<?xml version="1.0" encoding="utf-8" standalone="no"?>
<!DOCTYPE svg PUBLIC "-//W3C//DTD SVG 1.1//EN"
  "http://www.w3.org/Graphics/SVG/1.1/DTD/svg11.dtd">
<svg xmlns:xlink="http://www.w3.org/1999/xlink" width="460.8pt" height="345.6pt" viewBox="0 0 460.8 345.6" xmlns="http://www.w3.org/2000/svg" version="1.1">
 <metadata>
  <rdf:RDF xmlns:dc="http://purl.org/dc/elements/1.1/" xmlns:cc="http://creativecommons.org/ns#" xmlns:rdf="http://www.w3.org/1999/02/22-rdf-syntax-ns#">
   <cc:Work>
    <dc:type rdf:resource="http://purl.org/dc/dcmitype/StillImage"/>
    <dc:date>2025-06-14T10:00:05.830539</dc:date>
    <dc:format>image/svg+xml</dc:format>
    <dc:creator>
     <cc:Agent>
      <dc:title>Matplotlib v3.8.3, https://matplotlib.org/</dc:title>
     </cc:Agent>
    </dc:creator>
   </cc:Work>
  </rdf:RDF>
 </metadata>
 <defs>
  <style type="text/css">*{stroke-linejoin: round; stroke-linecap: butt}</style>
 </defs>
 <g id="figure_1">
  <g id="patch_1">
   <path d="M 0 345.6 
L 460.8 345.6 
L 460.8 0 
L 0 0 
z
" style="fill: #ffffff"/>
  </g>
  <g id="axes_1">
   <g id="patch_2">
    <path d="M 44.48 296.44 
L 447.147126 296.44 
L 447.147126 28.32 
L 44.48 28.32 
z
" style="fill: #ffffff"/>
   </g>
   <g id="patch_3">
    <path d="M 62.783051 296.44 
L 70.104272 296.44 
L 70.104272 41.087619 
L 62.783051 41.087619 
z
" clip-path="url(#p48317a4c70)" style="fill: #1f77b4"/>
   </g>
   <g id="patch_4">
    <path d="M 70.104272 296.44 
L 77.425492 296.44 
L 77.425492 194.299048 
L 70.104272 194.299048 
z
" clip-path="url(#p48317a4c70)" style="fill: #1f77b4"/>
   </g>
   <g id="patch_5">
    <path d="M 77.425492 296.44 
L 84.746713 296.44 
L 84.746713 143.228571 
L 77.425492 143.228571 
z
" clip-path="url(#p48317a4c70)" style="fill: #1f77b4"/>
   </g>
   <g id="patch_6">
    <path d="M 84.746713 296.44 
L 92.067933 296.44 
L 92.067933 245.369524 
L 84.746713 245.369524 
z
" clip-path="url(#p48317a4c70)" style="fill: #1f77b4"/>
   </g>
   <g id="patch_7">
    <path d="M 92.067933 296.44 
L 99.389154 296.44 
L 99.389154 194.299048 
L 92.067933 194.299048 
z
" clip-path="url(#p48317a4c70)" style="fill: #1f77b4"/>
   </g>
   <g id="patch_8">
    <path d="M 99.389154 296.44 
L 106.710374 296.44 
L 106.710374 143.228571 
L 99.389154 143.228571 
z
" clip-path="url(#p48317a4c70)" style="fill: #1f77b4"/>
   </g>
   <g id="patch_9">
    <path d="M 106.710374 296.44 
L 114.031595 296.44 
L 114.031595 296.44 
L 106.710374 296.44 
z
" clip-path="url(#p48317a4c70)" style="fill: #1f77b4"/>
   </g>
   <g id="patch_10">
    <path d="M 114.031595 296.44 
L 121.352815 296.44 
L 121.352815 245.369524 
L 114.031595 245.369524 
z
" clip-path="url(#p48317a4c70)" style="fill: #1f77b4"/>
   </g>
   <g id="patch_11">
    <path d="M 121.352815 296.44 
L 128.674035 296.44 
L 128.674035 296.44 
L 121.352815 296.44 
z
" clip-path="url(#p48317a4c70)" style="fill: #1f77b4"/>
   </g>
   <g id="patch_12">
    <path d="M 128.674035 296.44 
L 135.995256 296.44 
L 135.995256 194.299048 
L 128.674035 194.299048 
z
" clip-path="url(#p48317a4c70)" style="fill: #1f77b4"/>
   </g>
   <g id="patch_13">
    <path d="M 135.995256 296.44 
L 143.316476 296.44 
L 143.316476 245.369524 
L 135.995256 245.369524 
z
" clip-path="url(#p48317a4c70)" style="fill: #1f77b4"/>
   </g>
   <g id="patch_14">
    <path d="M 143.316476 296.44 
L 150.637697 296.44 
L 150.637697 194.299048 
L 143.316476 194.299048 
z
" clip-path="url(#p48317a4c70)" style="fill: #1f77b4"/>
   </g>
   <g id="patch_15">
    <path d="M 150.637697 296.44 
L 157.958917 296.44 
L 157.958917 245.369524 
L 150.637697 245.369524 
z
" clip-path="url(#p48317a4c70)" style="fill: #1f77b4"/>
   </g>
   <g id="patch_16">
    <path d="M 157.958917 296.44 
L 165.280138 296.44 
L 165.280138 245.369524 
L 157.958917 245.369524 
z
" clip-path="url(#p48317a4c70)" style="fill: #1f77b4"/>
   </g>
   <g id="patch_17">
    <path d="M 165.280138 296.44 
L 172.601358 296.44 
L 172.601358 296.44 
L 165.280138 296.44 
z
" clip-path="url(#p48317a4c70)" style="fill: #1f77b4"/>
   </g>
   <g id="patch_18">
    <path d="M 172.601358 296.44 
L 179.922579 296.44 
L 179.922579 194.299048 
L 172.601358 194.299048 
z
" clip-path="url(#p48317a4c70)" style="fill: #1f77b4"/>
   </g>
   <g id="patch_19">
    <path d="M 179.922579 296.44 
L 187.243799 296.44 
L 187.243799 296.44 
L 179.922579 296.44 
z
" clip-path="url(#p48317a4c70)" style="fill: #1f77b4"/>
   </g>
   <g id="patch_20">
    <path d="M 187.243799 296.44 
L 194.56502 296.44 
L 194.56502 296.44 
L 187.243799 296.44 
z
" clip-path="url(#p48317a4c70)" style="fill: #1f77b4"/>
   </g>
   <g id="patch_21">
    <path d="M 194.56502 296.44 
L 201.88624 296.44 
L 201.88624 194.299048 
L 194.56502 194.299048 
z
" clip-path="url(#p48317a4c70)" style="fill: #1f77b4"/>
   </g>
   <g id="patch_22">
    <path d="M 201.88624 296.44 
L 209.207461 296.44 
L 209.207461 245.369524 
L 201.88624 245.369524 
z
" clip-path="url(#p48317a4c70)" style="fill: #1f77b4"/>
   </g>
   <g id="patch_23">
    <path d="M 209.207461 296.44 
L 216.528681 296.44 
L 216.528681 296.44 
L 209.207461 296.44 
z
" clip-path="url(#p48317a4c70)" style="fill: #1f77b4"/>
   </g>
   <g id="patch_24">
    <path d="M 216.528681 296.44 
L 223.849902 296.44 
L 223.849902 245.369524 
L 216.528681 245.369524 
z
" clip-path="url(#p48317a4c70)" style="fill: #1f77b4"/>
   </g>
   <g id="patch_25">
    <path d="M 223.849902 296.44 
L 231.171122 296.44 
L 231.171122 296.44 
L 223.849902 296.44 
z
" clip-path="url(#p48317a4c70)" style="fill: #1f77b4"/>
   </g>
   <g id="patch_26">
    <path d="M 231.171122 296.44 
L 238.492343 296.44 
L 238.492343 296.44 
L 231.171122 296.44 
z
" clip-path="url(#p48317a4c70)" style="fill: #1f77b4"/>
   </g>
   <g id="patch_27">
    <path d="M 238.492343 296.44 
L 245.813563 296.44 
L 245.813563 296.44 
L 238.492343 296.44 
z
" clip-path="url(#p48317a4c70)" style="fill: #1f77b4"/>
   </g>
   <g id="patch_28">
    <path d="M 245.813563 296.44 
L 253.134784 296.44 
L 253.134784 245.369524 
L 245.813563 245.369524 
z
" clip-path="url(#p48317a4c70)" style="fill: #1f77b4"/>
   </g>
   <g id="patch_29">
    <path d="M 253.134784 296.44 
L 260.456004 296.44 
L 260.456004 296.44 
L 253.134784 296.44 
z
" clip-path="url(#p48317a4c70)" style="fill: #1f77b4"/>
   </g>
   <g id="patch_30">
    <path d="M 260.456004 296.44 
L 267.777224 296.44 
L 267.777224 296.44 
L 260.456004 296.44 
z
" clip-path="url(#p48317a4c70)" style="fill: #1f77b4"/>
   </g>
   <g id="patch_31">
    <path d="M 267.777224 296.44 
L 275.098445 296.44 
L 275.098445 245.369524 
L 267.777224 245.369524 
z
" clip-path="url(#p48317a4c70)" style="fill: #1f77b4"/>
   </g>
   <g id="patch_32">
    <path d="M 275.098445 296.44 
L 282.419665 296.44 
L 282.419665 296.44 
L 275.098445 296.44 
z
" clip-path="url(#p48317a4c70)" style="fill: #1f77b4"/>
   </g>
   <g id="patch_33">
    <path d="M 282.419665 296.44 
L 289.740886 296.44 
L 289.740886 296.44 
L 282.419665 296.44 
z
" clip-path="url(#p48317a4c70)" style="fill: #1f77b4"/>
   </g>
   <g id="patch_34">
    <path d="M 289.740886 296.44 
L 297.062106 296.44 
L 297.062106 296.44 
L 289.740886 296.44 
z
" clip-path="url(#p48317a4c70)" style="fill: #1f77b4"/>
   </g>
   <g id="patch_35">
    <path d="M 297.062106 296.44 
L 304.383327 296.44 
L 304.383327 296.44 
L 297.062106 296.44 
z
" clip-path="url(#p48317a4c70)" style="fill: #1f77b4"/>
   </g>
   <g id="patch_36">
    <path d="M 304.383327 296.44 
L 311.704547 296.44 
L 311.704547 296.44 
L 304.383327 296.44 
z
" clip-path="url(#p48317a4c70)" style="fill: #1f77b4"/>
   </g>
   <g id="patch_37">
    <path d="M 311.704547 296.44 
L 319.025768 296.44 
L 319.025768 296.44 
L 311.704547 296.44 
z
" clip-path="url(#p48317a4c70)" style="fill: #1f77b4"/>
   </g>
   <g id="patch_38">
    <path d="M 319.025768 296.44 
L 326.346988 296.44 
L 326.346988 296.44 
L 319.025768 296.44 
z
" clip-path="url(#p48317a4c70)" style="fill: #1f77b4"/>
   </g>
   <g id="patch_39">
    <path d="M 326.346988 296.44 
L 333.668209 296.44 
L 333.668209 296.44 
L 326.346988 296.44 
z
" clip-path="url(#p48317a4c70)" style="fill: #1f77b4"/>
   </g>
   <g id="patch_40">
    <path d="M 333.668209 296.44 
L 340.989429 296.44 
L 340.989429 245.369524 
L 333.668209 245.369524 
z
" clip-path="url(#p48317a4c70)" style="fill: #1f77b4"/>
   </g>
   <g id="patch_41">
    <path d="M 340.989429 296.44 
L 348.31065 296.44 
L 348.31065 296.44 
L 340.989429 296.44 
z
" clip-path="url(#p48317a4c70)" style="fill: #1f77b4"/>
   </g>
   <g id="patch_42">
    <path d="M 348.31065 296.44 
L 355.63187 296.44 
L 355.63187 296.44 
L 348.31065 296.44 
z
" clip-path="url(#p48317a4c70)" style="fill: #1f77b4"/>
   </g>
   <g id="patch_43">
    <path d="M 355.63187 296.44 
L 362.953091 296.44 
L 362.953091 296.44 
L 355.63187 296.44 
z
" clip-path="url(#p48317a4c70)" style="fill: #1f77b4"/>
   </g>
   <g id="patch_44">
    <path d="M 362.953091 296.44 
L 370.274311 296.44 
L 370.274311 296.44 
L 362.953091 296.44 
z
" clip-path="url(#p48317a4c70)" style="fill: #1f77b4"/>
   </g>
   <g id="patch_45">
    <path d="M 370.274311 296.44 
L 377.595532 296.44 
L 377.595532 296.44 
L 370.274311 296.44 
z
" clip-path="url(#p48317a4c70)" style="fill: #1f77b4"/>
   </g>
   <g id="patch_46">
    <path d="M 377.595532 296.44 
L 384.916752 296.44 
L 384.916752 296.44 
L 377.595532 296.44 
z
" clip-path="url(#p48317a4c70)" style="fill: #1f77b4"/>
   </g>
   <g id="patch_47">
    <path d="M 384.916752 296.44 
L 392.237973 296.44 
L 392.237973 296.44 
L 384.916752 296.44 
z
" clip-path="url(#p48317a4c70)" style="fill: #1f77b4"/>
   </g>
   <g id="patch_48">
    <path d="M 392.237973 296.44 
L 399.559193 296.44 
L 399.559193 296.44 
L 392.237973 296.44 
z
" clip-path="url(#p48317a4c70)" style="fill: #1f77b4"/>
   </g>
   <g id="patch_49">
    <path d="M 399.559193 296.44 
L 406.880414 296.44 
L 406.880414 296.44 
L 399.559193 296.44 
z
" clip-path="url(#p48317a4c70)" style="fill: #1f77b4"/>
   </g>
   <g id="patch_50">
    <path d="M 406.880414 296.44 
L 414.201634 296.44 
L 414.201634 296.44 
L 406.880414 296.44 
z
" clip-path="url(#p48317a4c70)" style="fill: #1f77b4"/>
   </g>
   <g id="patch_51">
    <path d="M 414.201634 296.44 
L 421.522854 296.44 
L 421.522854 296.44 
L 414.201634 296.44 
z
" clip-path="url(#p48317a4c70)" style="fill: #1f77b4"/>
   </g>
   <g id="patch_52">
    <path d="M 421.522854 296.44 
L 428.844075 296.44 
L 428.844075 245.369524 
L 421.522854 245.369524 
z
" clip-path="url(#p48317a4c70)" style="fill: #1f77b4"/>
   </g>
   <g id="matplotlib.axis_1">
    <g id="xtick_1">
     <g id="line2d_1">
      <defs>
       <path id="mfade6eb10a" d="M 0 0 
L 0 3.5 
" style="stroke: #000000; stroke-width: 0.8"/>
      </defs>
      <g>
       <use xlink:href="#mfade6eb10a" x="61.858468" y="296.44" style="stroke: #000000; stroke-width: 0.8"/>
      </g>
     </g>
     <g id="text_1">
      <!-- 0 -->
      <g transform="translate(57.722843 313.317969) scale(0.13 -0.13)">
       <defs>
        <path id="DejaVuSans-30" d="M 2034 4250 
Q 1547 4250 1301 3770 
Q 1056 3291 1056 2328 
Q 1056 1369 1301 889 
Q 1547 409 2034 409 
Q 2525 409 2770 889 
Q 3016 1369 3016 2328 
Q 3016 3291 2770 3770 
Q 2525 4250 2034 4250 
z
M 2034 4750 
Q 2819 4750 3233 4129 
Q 3647 3509 3647 2328 
Q 3647 1150 3233 529 
Q 2819 -91 2034 -91 
Q 1250 -91 836 529 
Q 422 1150 422 2328 
Q 422 3509 836 4129 
Q 1250 4750 2034 4750 
z
" transform="scale(0.015625)"/>
       </defs>
       <use xlink:href="#DejaVuSans-30"/>
      </g>
     </g>
    </g>
    <g id="xtick_2">
     <g id="line2d_2">
      <g>
       <use xlink:href="#mfade6eb10a" x="135.825133" y="296.44" style="stroke: #000000; stroke-width: 0.8"/>
      </g>
     </g>
     <g id="text_2">
      <!-- 1000 -->
      <g transform="translate(119.282633 313.317969) scale(0.13 -0.13)">
       <defs>
        <path id="DejaVuSans-31" d="M 794 531 
L 1825 531 
L 1825 4091 
L 703 3866 
L 703 4441 
L 1819 4666 
L 2450 4666 
L 2450 531 
L 3481 531 
L 3481 0 
L 794 0 
L 794 531 
z
" transform="scale(0.015625)"/>
       </defs>
       <use xlink:href="#DejaVuSans-31"/>
       <use xlink:href="#DejaVuSans-30" x="63.623047"/>
       <use xlink:href="#DejaVuSans-30" x="127.246094"/>
       <use xlink:href="#DejaVuSans-30" x="190.869141"/>
      </g>
     </g>
    </g>
    <g id="xtick_3">
     <g id="line2d_3">
      <g>
       <use xlink:href="#mfade6eb10a" x="209.791797" y="296.44" style="stroke: #000000; stroke-width: 0.8"/>
      </g>
     </g>
     <g id="text_3">
      <!-- 2000 -->
      <g transform="translate(193.249297 313.317969) scale(0.13 -0.13)">
       <defs>
        <path id="DejaVuSans-32" d="M 1228 531 
L 3431 531 
L 3431 0 
L 469 0 
L 469 531 
Q 828 903 1448 1529 
Q 2069 2156 2228 2338 
Q 2531 2678 2651 2914 
Q 2772 3150 2772 3378 
Q 2772 3750 2511 3984 
Q 2250 4219 1831 4219 
Q 1534 4219 1204 4116 
Q 875 4013 500 3803 
L 500 4441 
Q 881 4594 1212 4672 
Q 1544 4750 1819 4750 
Q 2544 4750 2975 4387 
Q 3406 4025 3406 3419 
Q 3406 3131 3298 2873 
Q 3191 2616 2906 2266 
Q 2828 2175 2409 1742 
Q 1991 1309 1228 531 
z
" transform="scale(0.015625)"/>
       </defs>
       <use xlink:href="#DejaVuSans-32"/>
       <use xlink:href="#DejaVuSans-30" x="63.623047"/>
       <use xlink:href="#DejaVuSans-30" x="127.246094"/>
       <use xlink:href="#DejaVuSans-30" x="190.869141"/>
      </g>
     </g>
    </g>
    <g id="xtick_4">
     <g id="line2d_4">
      <g>
       <use xlink:href="#mfade6eb10a" x="283.758462" y="296.44" style="stroke: #000000; stroke-width: 0.8"/>
      </g>
     </g>
     <g id="text_4">
      <!-- 3000 -->
      <g transform="translate(267.215962 313.317969) scale(0.13 -0.13)">
       <defs>
        <path id="DejaVuSans-33" d="M 2597 2516 
Q 3050 2419 3304 2112 
Q 3559 1806 3559 1356 
Q 3559 666 3084 287 
Q 2609 -91 1734 -91 
Q 1441 -91 1130 -33 
Q 819 25 488 141 
L 488 750 
Q 750 597 1062 519 
Q 1375 441 1716 441 
Q 2309 441 2620 675 
Q 2931 909 2931 1356 
Q 2931 1769 2642 2001 
Q 2353 2234 1838 2234 
L 1294 2234 
L 1294 2753 
L 1863 2753 
Q 2328 2753 2575 2939 
Q 2822 3125 2822 3475 
Q 2822 3834 2567 4026 
Q 2313 4219 1838 4219 
Q 1578 4219 1281 4162 
Q 984 4106 628 3988 
L 628 4550 
Q 988 4650 1302 4700 
Q 1616 4750 1894 4750 
Q 2613 4750 3031 4423 
Q 3450 4097 3450 3541 
Q 3450 3153 3228 2886 
Q 3006 2619 2597 2516 
z
" transform="scale(0.015625)"/>
       </defs>
       <use xlink:href="#DejaVuSans-33"/>
       <use xlink:href="#DejaVuSans-30" x="63.623047"/>
       <use xlink:href="#DejaVuSans-30" x="127.246094"/>
       <use xlink:href="#DejaVuSans-30" x="190.869141"/>
      </g>
     </g>
    </g>
    <g id="xtick_5">
     <g id="line2d_5">
      <g>
       <use xlink:href="#mfade6eb10a" x="357.725127" y="296.44" style="stroke: #000000; stroke-width: 0.8"/>
      </g>
     </g>
     <g id="text_5">
      <!-- 4000 -->
      <g transform="translate(341.182627 313.317969) scale(0.13 -0.13)">
       <defs>
        <path id="DejaVuSans-34" d="M 2419 4116 
L 825 1625 
L 2419 1625 
L 2419 4116 
z
M 2253 4666 
L 3047 4666 
L 3047 1625 
L 3713 1625 
L 3713 1100 
L 3047 1100 
L 3047 0 
L 2419 0 
L 2419 1100 
L 313 1100 
L 313 1709 
L 2253 4666 
z
" transform="scale(0.015625)"/>
       </defs>
       <use xlink:href="#DejaVuSans-34"/>
       <use xlink:href="#DejaVuSans-30" x="63.623047"/>
       <use xlink:href="#DejaVuSans-30" x="127.246094"/>
       <use xlink:href="#DejaVuSans-30" x="190.869141"/>
      </g>
     </g>
    </g>
    <g id="xtick_6">
     <g id="line2d_6">
      <g>
       <use xlink:href="#mfade6eb10a" x="431.691792" y="296.44" style="stroke: #000000; stroke-width: 0.8"/>
      </g>
     </g>
     <g id="text_6">
      <!-- 5000 -->
      <g transform="translate(415.149292 313.317969) scale(0.13 -0.13)">
       <defs>
        <path id="DejaVuSans-35" d="M 691 4666 
L 3169 4666 
L 3169 4134 
L 1269 4134 
L 1269 2991 
Q 1406 3038 1543 3061 
Q 1681 3084 1819 3084 
Q 2600 3084 3056 2656 
Q 3513 2228 3513 1497 
Q 3513 744 3044 326 
Q 2575 -91 1722 -91 
Q 1428 -91 1123 -41 
Q 819 9 494 109 
L 494 744 
Q 775 591 1075 516 
Q 1375 441 1709 441 
Q 2250 441 2565 725 
Q 2881 1009 2881 1497 
Q 2881 1984 2565 2268 
Q 2250 2553 1709 2553 
Q 1456 2553 1204 2497 
Q 953 2441 691 2322 
L 691 4666 
z
" transform="scale(0.015625)"/>
       </defs>
       <use xlink:href="#DejaVuSans-35"/>
       <use xlink:href="#DejaVuSans-30" x="63.623047"/>
       <use xlink:href="#DejaVuSans-30" x="127.246094"/>
       <use xlink:href="#DejaVuSans-30" x="190.869141"/>
      </g>
     </g>
    </g>
    <g id="text_7">
     <!-- Days -->
     <g transform="translate(227.096376 331.419219) scale(0.15 -0.15)">
      <defs>
       <path id="DejaVuSans-44" d="M 1259 4147 
L 1259 519 
L 2022 519 
Q 2988 519 3436 956 
Q 3884 1394 3884 2338 
Q 3884 3275 3436 3711 
Q 2988 4147 2022 4147 
L 1259 4147 
z
M 628 4666 
L 1925 4666 
Q 3281 4666 3915 4102 
Q 4550 3538 4550 2338 
Q 4550 1131 3912 565 
Q 3275 0 1925 0 
L 628 0 
L 628 4666 
z
" transform="scale(0.015625)"/>
       <path id="DejaVuSans-61" d="M 2194 1759 
Q 1497 1759 1228 1600 
Q 959 1441 959 1056 
Q 959 750 1161 570 
Q 1363 391 1709 391 
Q 2188 391 2477 730 
Q 2766 1069 2766 1631 
L 2766 1759 
L 2194 1759 
z
M 3341 1997 
L 3341 0 
L 2766 0 
L 2766 531 
Q 2569 213 2275 61 
Q 1981 -91 1556 -91 
Q 1019 -91 701 211 
Q 384 513 384 1019 
Q 384 1609 779 1909 
Q 1175 2209 1959 2209 
L 2766 2209 
L 2766 2266 
Q 2766 2663 2505 2880 
Q 2244 3097 1772 3097 
Q 1472 3097 1187 3025 
Q 903 2953 641 2809 
L 641 3341 
Q 956 3463 1253 3523 
Q 1550 3584 1831 3584 
Q 2591 3584 2966 3190 
Q 3341 2797 3341 1997 
z
" transform="scale(0.015625)"/>
       <path id="DejaVuSans-79" d="M 2059 -325 
Q 1816 -950 1584 -1140 
Q 1353 -1331 966 -1331 
L 506 -1331 
L 506 -850 
L 844 -850 
Q 1081 -850 1212 -737 
Q 1344 -625 1503 -206 
L 1606 56 
L 191 3500 
L 800 3500 
L 1894 763 
L 2988 3500 
L 3597 3500 
L 2059 -325 
z
" transform="scale(0.015625)"/>
       <path id="DejaVuSans-73" d="M 2834 3397 
L 2834 2853 
Q 2591 2978 2328 3040 
Q 2066 3103 1784 3103 
Q 1356 3103 1142 2972 
Q 928 2841 928 2578 
Q 928 2378 1081 2264 
Q 1234 2150 1697 2047 
L 1894 2003 
Q 2506 1872 2764 1633 
Q 3022 1394 3022 966 
Q 3022 478 2636 193 
Q 2250 -91 1575 -91 
Q 1294 -91 989 -36 
Q 684 19 347 128 
L 347 722 
Q 666 556 975 473 
Q 1284 391 1588 391 
Q 1994 391 2212 530 
Q 2431 669 2431 922 
Q 2431 1156 2273 1281 
Q 2116 1406 1581 1522 
L 1381 1569 
Q 847 1681 609 1914 
Q 372 2147 372 2553 
Q 372 3047 722 3315 
Q 1072 3584 1716 3584 
Q 2034 3584 2315 3537 
Q 2597 3491 2834 3397 
z
" transform="scale(0.015625)"/>
      </defs>
      <use xlink:href="#DejaVuSans-44"/>
      <use xlink:href="#DejaVuSans-61" x="77.001953"/>
      <use xlink:href="#DejaVuSans-79" x="138.28125"/>
      <use xlink:href="#DejaVuSans-73" x="197.460938"/>
     </g>
    </g>
   </g>
   <g id="matplotlib.axis_2">
    <g id="ytick_1">
     <g id="line2d_7">
      <defs>
       <path id="m621a70d49b" d="M 0 0 
L -3.5 0 
" style="stroke: #000000; stroke-width: 0.8"/>
      </defs>
      <g>
       <use xlink:href="#m621a70d49b" x="44.48" y="296.44" style="stroke: #000000; stroke-width: 0.8"/>
      </g>
     </g>
     <g id="text_8">
      <!-- 0 -->
      <g transform="translate(29.20875 301.378984) scale(0.13 -0.13)">
       <use xlink:href="#DejaVuSans-30"/>
      </g>
     </g>
    </g>
    <g id="ytick_2">
     <g id="line2d_8">
      <g>
       <use xlink:href="#m621a70d49b" x="44.48" y="245.369524" style="stroke: #000000; stroke-width: 0.8"/>
      </g>
     </g>
     <g id="text_9">
      <!-- 1 -->
      <g transform="translate(29.20875 250.308508) scale(0.13 -0.13)">
       <use xlink:href="#DejaVuSans-31"/>
      </g>
     </g>
    </g>
    <g id="ytick_3">
     <g id="line2d_9">
      <g>
       <use xlink:href="#m621a70d49b" x="44.48" y="194.299048" style="stroke: #000000; stroke-width: 0.8"/>
      </g>
     </g>
     <g id="text_10">
      <!-- 2 -->
      <g transform="translate(29.20875 199.238032) scale(0.13 -0.13)">
       <use xlink:href="#DejaVuSans-32"/>
      </g>
     </g>
    </g>
    <g id="ytick_4">
     <g id="line2d_10">
      <g>
       <use xlink:href="#m621a70d49b" x="44.48" y="143.228571" style="stroke: #000000; stroke-width: 0.8"/>
      </g>
     </g>
     <g id="text_11">
      <!-- 3 -->
      <g transform="translate(29.20875 148.167556) scale(0.13 -0.13)">
       <use xlink:href="#DejaVuSans-33"/>
      </g>
     </g>
    </g>
    <g id="ytick_5">
     <g id="line2d_11">
      <g>
       <use xlink:href="#m621a70d49b" x="44.48" y="92.158095" style="stroke: #000000; stroke-width: 0.8"/>
      </g>
     </g>
     <g id="text_12">
      <!-- 4 -->
      <g transform="translate(29.20875 97.09708) scale(0.13 -0.13)">
       <use xlink:href="#DejaVuSans-34"/>
      </g>
     </g>
    </g>
    <g id="ytick_6">
     <g id="line2d_12">
      <g>
       <use xlink:href="#m621a70d49b" x="44.48" y="41.087619" style="stroke: #000000; stroke-width: 0.8"/>
      </g>
     </g>
     <g id="text_13">
      <!-- 5 -->
      <g transform="translate(29.20875 46.026603) scale(0.13 -0.13)">
       <use xlink:href="#DejaVuSans-35"/>
      </g>
     </g>
    </g>
    <g id="text_14">
     <!-- Number of animals -->
     <g transform="translate(22.089219 233.830391) rotate(-90) scale(0.15 -0.15)">
      <defs>
       <path id="DejaVuSans-4e" d="M 628 4666 
L 1478 4666 
L 3547 763 
L 3547 4666 
L 4159 4666 
L 4159 0 
L 3309 0 
L 1241 3903 
L 1241 0 
L 628 0 
L 628 4666 
z
" transform="scale(0.015625)"/>
       <path id="DejaVuSans-75" d="M 544 1381 
L 544 3500 
L 1119 3500 
L 1119 1403 
Q 1119 906 1312 657 
Q 1506 409 1894 409 
Q 2359 409 2629 706 
Q 2900 1003 2900 1516 
L 2900 3500 
L 3475 3500 
L 3475 0 
L 2900 0 
L 2900 538 
Q 2691 219 2414 64 
Q 2138 -91 1772 -91 
Q 1169 -91 856 284 
Q 544 659 544 1381 
z
M 1991 3584 
L 1991 3584 
z
" transform="scale(0.015625)"/>
       <path id="DejaVuSans-6d" d="M 3328 2828 
Q 3544 3216 3844 3400 
Q 4144 3584 4550 3584 
Q 5097 3584 5394 3201 
Q 5691 2819 5691 2113 
L 5691 0 
L 5113 0 
L 5113 2094 
Q 5113 2597 4934 2840 
Q 4756 3084 4391 3084 
Q 3944 3084 3684 2787 
Q 3425 2491 3425 1978 
L 3425 0 
L 2847 0 
L 2847 2094 
Q 2847 2600 2669 2842 
Q 2491 3084 2119 3084 
Q 1678 3084 1418 2786 
Q 1159 2488 1159 1978 
L 1159 0 
L 581 0 
L 581 3500 
L 1159 3500 
L 1159 2956 
Q 1356 3278 1631 3431 
Q 1906 3584 2284 3584 
Q 2666 3584 2933 3390 
Q 3200 3197 3328 2828 
z
" transform="scale(0.015625)"/>
       <path id="DejaVuSans-62" d="M 3116 1747 
Q 3116 2381 2855 2742 
Q 2594 3103 2138 3103 
Q 1681 3103 1420 2742 
Q 1159 2381 1159 1747 
Q 1159 1113 1420 752 
Q 1681 391 2138 391 
Q 2594 391 2855 752 
Q 3116 1113 3116 1747 
z
M 1159 2969 
Q 1341 3281 1617 3432 
Q 1894 3584 2278 3584 
Q 2916 3584 3314 3078 
Q 3713 2572 3713 1747 
Q 3713 922 3314 415 
Q 2916 -91 2278 -91 
Q 1894 -91 1617 61 
Q 1341 213 1159 525 
L 1159 0 
L 581 0 
L 581 4863 
L 1159 4863 
L 1159 2969 
z
" transform="scale(0.015625)"/>
       <path id="DejaVuSans-65" d="M 3597 1894 
L 3597 1613 
L 953 1613 
Q 991 1019 1311 708 
Q 1631 397 2203 397 
Q 2534 397 2845 478 
Q 3156 559 3463 722 
L 3463 178 
Q 3153 47 2828 -22 
Q 2503 -91 2169 -91 
Q 1331 -91 842 396 
Q 353 884 353 1716 
Q 353 2575 817 3079 
Q 1281 3584 2069 3584 
Q 2775 3584 3186 3129 
Q 3597 2675 3597 1894 
z
M 3022 2063 
Q 3016 2534 2758 2815 
Q 2500 3097 2075 3097 
Q 1594 3097 1305 2825 
Q 1016 2553 972 2059 
L 3022 2063 
z
" transform="scale(0.015625)"/>
       <path id="DejaVuSans-72" d="M 2631 2963 
Q 2534 3019 2420 3045 
Q 2306 3072 2169 3072 
Q 1681 3072 1420 2755 
Q 1159 2438 1159 1844 
L 1159 0 
L 581 0 
L 581 3500 
L 1159 3500 
L 1159 2956 
Q 1341 3275 1631 3429 
Q 1922 3584 2338 3584 
Q 2397 3584 2469 3576 
Q 2541 3569 2628 3553 
L 2631 2963 
z
" transform="scale(0.015625)"/>
       <path id="DejaVuSans-20" transform="scale(0.015625)"/>
       <path id="DejaVuSans-6f" d="M 1959 3097 
Q 1497 3097 1228 2736 
Q 959 2375 959 1747 
Q 959 1119 1226 758 
Q 1494 397 1959 397 
Q 2419 397 2687 759 
Q 2956 1122 2956 1747 
Q 2956 2369 2687 2733 
Q 2419 3097 1959 3097 
z
M 1959 3584 
Q 2709 3584 3137 3096 
Q 3566 2609 3566 1747 
Q 3566 888 3137 398 
Q 2709 -91 1959 -91 
Q 1206 -91 779 398 
Q 353 888 353 1747 
Q 353 2609 779 3096 
Q 1206 3584 1959 3584 
z
" transform="scale(0.015625)"/>
       <path id="DejaVuSans-66" d="M 2375 4863 
L 2375 4384 
L 1825 4384 
Q 1516 4384 1395 4259 
Q 1275 4134 1275 3809 
L 1275 3500 
L 2222 3500 
L 2222 3053 
L 1275 3053 
L 1275 0 
L 697 0 
L 697 3053 
L 147 3053 
L 147 3500 
L 697 3500 
L 697 3744 
Q 697 4328 969 4595 
Q 1241 4863 1831 4863 
L 2375 4863 
z
" transform="scale(0.015625)"/>
       <path id="DejaVuSans-6e" d="M 3513 2113 
L 3513 0 
L 2938 0 
L 2938 2094 
Q 2938 2591 2744 2837 
Q 2550 3084 2163 3084 
Q 1697 3084 1428 2787 
Q 1159 2491 1159 1978 
L 1159 0 
L 581 0 
L 581 3500 
L 1159 3500 
L 1159 2956 
Q 1366 3272 1645 3428 
Q 1925 3584 2291 3584 
Q 2894 3584 3203 3211 
Q 3513 2838 3513 2113 
z
" transform="scale(0.015625)"/>
       <path id="DejaVuSans-69" d="M 603 3500 
L 1178 3500 
L 1178 0 
L 603 0 
L 603 3500 
z
M 603 4863 
L 1178 4863 
L 1178 4134 
L 603 4134 
L 603 4863 
z
" transform="scale(0.015625)"/>
       <path id="DejaVuSans-6c" d="M 603 4863 
L 1178 4863 
L 1178 0 
L 603 0 
L 603 4863 
z
" transform="scale(0.015625)"/>
      </defs>
      <use xlink:href="#DejaVuSans-4e"/>
      <use xlink:href="#DejaVuSans-75" x="74.804688"/>
      <use xlink:href="#DejaVuSans-6d" x="138.183594"/>
      <use xlink:href="#DejaVuSans-62" x="235.595703"/>
      <use xlink:href="#DejaVuSans-65" x="299.072266"/>
      <use xlink:href="#DejaVuSans-72" x="360.595703"/>
      <use xlink:href="#DejaVuSans-20" x="401.708984"/>
      <use xlink:href="#DejaVuSans-6f" x="433.496094"/>
      <use xlink:href="#DejaVuSans-66" x="494.677734"/>
      <use xlink:href="#DejaVuSans-20" x="529.882812"/>
      <use xlink:href="#DejaVuSans-61" x="561.669922"/>
      <use xlink:href="#DejaVuSans-6e" x="622.949219"/>
      <use xlink:href="#DejaVuSans-69" x="686.328125"/>
      <use xlink:href="#DejaVuSans-6d" x="714.111328"/>
      <use xlink:href="#DejaVuSans-61" x="811.523438"/>
      <use xlink:href="#DejaVuSans-6c" x="872.802734"/>
      <use xlink:href="#DejaVuSans-73" x="900.585938"/>
     </g>
    </g>
   </g>
   <g id="patch_53">
    <path d="M 44.48 296.44 
L 44.48 28.32 
" style="fill: none; stroke: #000000; stroke-width: 0.8; stroke-linejoin: miter; stroke-linecap: square"/>
   </g>
   <g id="patch_54">
    <path d="M 447.147126 296.44 
L 447.147126 28.32 
" style="fill: none; stroke: #000000; stroke-width: 0.8; stroke-linejoin: miter; stroke-linecap: square"/>
   </g>
   <g id="patch_55">
    <path d="M 44.48 296.44 
L 447.147126 296.44 
" style="fill: none; stroke: #000000; stroke-width: 0.8; stroke-linejoin: miter; stroke-linecap: square"/>
   </g>
   <g id="patch_56">
    <path d="M 44.48 28.32 
L 447.147126 28.32 
" style="fill: none; stroke: #000000; stroke-width: 0.8; stroke-linejoin: miter; stroke-linecap: square"/>
   </g>
   <g id="text_15">
    <!-- Wolves lifespans -->
    <g transform="translate(183.474501 22.32) scale(0.15 -0.15)">
     <defs>
      <path id="DejaVuSans-57" d="M 213 4666 
L 850 4666 
L 1831 722 
L 2809 4666 
L 3519 4666 
L 4500 722 
L 5478 4666 
L 6119 4666 
L 4947 0 
L 4153 0 
L 3169 4050 
L 2175 0 
L 1381 0 
L 213 4666 
z
" transform="scale(0.015625)"/>
      <path id="DejaVuSans-76" d="M 191 3500 
L 800 3500 
L 1894 563 
L 2988 3500 
L 3597 3500 
L 2284 0 
L 1503 0 
L 191 3500 
z
" transform="scale(0.015625)"/>
      <path id="DejaVuSans-70" d="M 1159 525 
L 1159 -1331 
L 581 -1331 
L 581 3500 
L 1159 3500 
L 1159 2969 
Q 1341 3281 1617 3432 
Q 1894 3584 2278 3584 
Q 2916 3584 3314 3078 
Q 3713 2572 3713 1747 
Q 3713 922 3314 415 
Q 2916 -91 2278 -91 
Q 1894 -91 1617 61 
Q 1341 213 1159 525 
z
M 3116 1747 
Q 3116 2381 2855 2742 
Q 2594 3103 2138 3103 
Q 1681 3103 1420 2742 
Q 1159 2381 1159 1747 
Q 1159 1113 1420 752 
Q 1681 391 2138 391 
Q 2594 391 2855 752 
Q 3116 1113 3116 1747 
z
" transform="scale(0.015625)"/>
     </defs>
     <use xlink:href="#DejaVuSans-57"/>
     <use xlink:href="#DejaVuSans-6f" x="93.001953"/>
     <use xlink:href="#DejaVuSans-6c" x="154.183594"/>
     <use xlink:href="#DejaVuSans-76" x="181.966797"/>
     <use xlink:href="#DejaVuSans-65" x="241.146484"/>
     <use xlink:href="#DejaVuSans-73" x="302.669922"/>
     <use xlink:href="#DejaVuSans-20" x="354.769531"/>
     <use xlink:href="#DejaVuSans-6c" x="386.556641"/>
     <use xlink:href="#DejaVuSans-69" x="414.339844"/>
     <use xlink:href="#DejaVuSans-66" x="442.123047"/>
     <use xlink:href="#DejaVuSans-65" x="477.328125"/>
     <use xlink:href="#DejaVuSans-73" x="538.851562"/>
     <use xlink:href="#DejaVuSans-70" x="590.951172"/>
     <use xlink:href="#DejaVuSans-61" x="654.427734"/>
     <use xlink:href="#DejaVuSans-6e" x="715.707031"/>
     <use xlink:href="#DejaVuSans-73" x="779.085938"/>
    </g>
   </g>
  </g>
 </g>
 <defs>
  <clipPath id="p48317a4c70">
   <rect x="44.48" y="28.32" width="402.667126" height="268.12"/>
  </clipPath>
 </defs>
</svg>
