<?xml version="1.0" encoding="utf-8" standalone="no"?>
<!DOCTYPE svg PUBLIC "-//W3C//DTD SVG 1.1//EN"
  "http://www.w3.org/Graphics/SVG/1.1/DTD/svg11.dtd">
<svg xmlns:xlink="http://www.w3.org/1999/xlink" width="432pt" height="360pt" viewBox="0 0 432 360" xmlns="http://www.w3.org/2000/svg" version="1.1">
 <metadata>
  <rdf:RDF xmlns:dc="http://purl.org/dc/elements/1.1/" xmlns:cc="http://creativecommons.org/ns#" xmlns:rdf="http://www.w3.org/1999/02/22-rdf-syntax-ns#">
   <cc:Work>
    <dc:type rdf:resource="http://purl.org/dc/dcmitype/StillImage"/>
    <dc:date>2025-06-14T08:56:29.238128</dc:date>
    <dc:format>image/svg+xml</dc:format>
    <dc:creator>
     <cc:Agent>
      <dc:title>Matplotlib v3.8.3, https://matplotlib.org/</dc:title>
     </cc:Agent>
    </dc:creator>
   </cc:Work>
  </rdf:RDF>
 </metadata>
 <defs>
  <style type="text/css">*{stroke-linejoin: round; stroke-linecap: butt}</style>
 </defs>
 <g id="figure_1">
  <g id="patch_1">
   <path d="M 0 360 
L 432 360 
L 432 0 
L 0 0 
z
" style="fill: #ffffff"/>
  </g>
  <g id="axes_1">
   <g id="patch_2">
    <path d="M 56.9 310.84 
L 421.2 310.84 
L 421.2 46.836 
L 56.9 46.836 
z
" style="fill: #ffffff"/>
   </g>
   <g id="matplotlib.axis_1">
    <g id="xtick_1">
     <g id="line2d_1">
      <path d="M 73.459091 310.84 
L 73.459091 46.836 
" clip-path="url(#p533c045274)" style="fill: none; stroke: #b0b0b0; stroke-width: 0.8; stroke-linecap: square"/>
     </g>
     <g id="line2d_2">
      <defs>
       <path id="mb1e0fb7530" d="M 0 0 
L 0 3.5 
" style="stroke: #000000; stroke-width: 0.8"/>
      </defs>
      <g>
       <use xlink:href="#mb1e0fb7530" x="73.459091" y="310.84" style="stroke: #000000; stroke-width: 0.8"/>
      </g>
     </g>
     <g id="text_1">
      <!-- 0 -->
      <g transform="translate(69.323466 327.717969) scale(0.13 -0.13)">
       <defs>
        <path id="DejaVuSans-30" d="M 2034 4250 
Q 1547 4250 1301 3770 
Q 1056 3291 1056 2328 
Q 1056 1369 1301 889 
Q 1547 409 2034 409 
Q 2525 409 2770 889 
Q 3016 1369 3016 2328 
Q 3016 3291 2770 3770 
Q 2525 4250 2034 4250 
z
M 2034 4750 
Q 2819 4750 3233 4129 
Q 3647 3509 3647 2328 
Q 3647 1150 3233 529 
Q 2819 -91 2034 -91 
Q 1250 -91 836 529 
Q 422 1150 422 2328 
Q 422 3509 836 4129 
Q 1250 4750 2034 4750 
z
" transform="scale(0.015625)"/>
       </defs>
       <use xlink:href="#DejaVuSans-30"/>
      </g>
     </g>
    </g>
    <g id="xtick_2">
     <g id="line2d_3">
      <path d="M 117.616667 310.84 
L 117.616667 46.836 
" clip-path="url(#p533c045274)" style="fill: none; stroke: #b0b0b0; stroke-width: 0.8; stroke-linecap: square"/>
     </g>
     <g id="line2d_4">
      <g>
       <use xlink:href="#mb1e0fb7530" x="117.616667" y="310.84" style="stroke: #000000; stroke-width: 0.8"/>
      </g>
     </g>
     <g id="text_2">
      <!-- 2 -->
      <g transform="translate(113.481042 327.717969) scale(0.13 -0.13)">
       <defs>
        <path id="DejaVuSans-32" d="M 1228 531 
L 3431 531 
L 3431 0 
L 469 0 
L 469 531 
Q 828 903 1448 1529 
Q 2069 2156 2228 2338 
Q 2531 2678 2651 2914 
Q 2772 3150 2772 3378 
Q 2772 3750 2511 3984 
Q 2250 4219 1831 4219 
Q 1534 4219 1204 4116 
Q 875 4013 500 3803 
L 500 4441 
Q 881 4594 1212 4672 
Q 1544 4750 1819 4750 
Q 2544 4750 2975 4387 
Q 3406 4025 3406 3419 
Q 3406 3131 3298 2873 
Q 3191 2616 2906 2266 
Q 2828 2175 2409 1742 
Q 1991 1309 1228 531 
z
" transform="scale(0.015625)"/>
       </defs>
       <use xlink:href="#DejaVuSans-32"/>
      </g>
     </g>
    </g>
    <g id="xtick_3">
     <g id="line2d_5">
      <path d="M 161.774242 310.84 
L 161.774242 46.836 
" clip-path="url(#p533c045274)" style="fill: none; stroke: #b0b0b0; stroke-width: 0.8; stroke-linecap: square"/>
     </g>
     <g id="line2d_6">
      <g>
       <use xlink:href="#mb1e0fb7530" x="161.774242" y="310.84" style="stroke: #000000; stroke-width: 0.8"/>
      </g>
     </g>
     <g id="text_3">
      <!-- 4 -->
      <g transform="translate(157.638617 327.717969) scale(0.13 -0.13)">
       <defs>
        <path id="DejaVuSans-34" d="M 2419 4116 
L 825 1625 
L 2419 1625 
L 2419 4116 
z
M 2253 4666 
L 3047 4666 
L 3047 1625 
L 3713 1625 
L 3713 1100 
L 3047 1100 
L 3047 0 
L 2419 0 
L 2419 1100 
L 313 1100 
L 313 1709 
L 2253 4666 
z
" transform="scale(0.015625)"/>
       </defs>
       <use xlink:href="#DejaVuSans-34"/>
      </g>
     </g>
    </g>
    <g id="xtick_4">
     <g id="line2d_7">
      <path d="M 205.931818 310.84 
L 205.931818 46.836 
" clip-path="url(#p533c045274)" style="fill: none; stroke: #b0b0b0; stroke-width: 0.8; stroke-linecap: square"/>
     </g>
     <g id="line2d_8">
      <g>
       <use xlink:href="#mb1e0fb7530" x="205.931818" y="310.84" style="stroke: #000000; stroke-width: 0.8"/>
      </g>
     </g>
     <g id="text_4">
      <!-- 6 -->
      <g transform="translate(201.796193 327.717969) scale(0.13 -0.13)">
       <defs>
        <path id="DejaVuSans-36" d="M 2113 2584 
Q 1688 2584 1439 2293 
Q 1191 2003 1191 1497 
Q 1191 994 1439 701 
Q 1688 409 2113 409 
Q 2538 409 2786 701 
Q 3034 994 3034 1497 
Q 3034 2003 2786 2293 
Q 2538 2584 2113 2584 
z
M 3366 4563 
L 3366 3988 
Q 3128 4100 2886 4159 
Q 2644 4219 2406 4219 
Q 1781 4219 1451 3797 
Q 1122 3375 1075 2522 
Q 1259 2794 1537 2939 
Q 1816 3084 2150 3084 
Q 2853 3084 3261 2657 
Q 3669 2231 3669 1497 
Q 3669 778 3244 343 
Q 2819 -91 2113 -91 
Q 1303 -91 875 529 
Q 447 1150 447 2328 
Q 447 3434 972 4092 
Q 1497 4750 2381 4750 
Q 2619 4750 2861 4703 
Q 3103 4656 3366 4563 
z
" transform="scale(0.015625)"/>
       </defs>
       <use xlink:href="#DejaVuSans-36"/>
      </g>
     </g>
    </g>
    <g id="xtick_5">
     <g id="line2d_9">
      <path d="M 250.089394 310.84 
L 250.089394 46.836 
" clip-path="url(#p533c045274)" style="fill: none; stroke: #b0b0b0; stroke-width: 0.8; stroke-linecap: square"/>
     </g>
     <g id="line2d_10">
      <g>
       <use xlink:href="#mb1e0fb7530" x="250.089394" y="310.84" style="stroke: #000000; stroke-width: 0.8"/>
      </g>
     </g>
     <g id="text_5">
      <!-- 8 -->
      <g transform="translate(245.953769 327.717969) scale(0.13 -0.13)">
       <defs>
        <path id="DejaVuSans-38" d="M 2034 2216 
Q 1584 2216 1326 1975 
Q 1069 1734 1069 1313 
Q 1069 891 1326 650 
Q 1584 409 2034 409 
Q 2484 409 2743 651 
Q 3003 894 3003 1313 
Q 3003 1734 2745 1975 
Q 2488 2216 2034 2216 
z
M 1403 2484 
Q 997 2584 770 2862 
Q 544 3141 544 3541 
Q 544 4100 942 4425 
Q 1341 4750 2034 4750 
Q 2731 4750 3128 4425 
Q 3525 4100 3525 3541 
Q 3525 3141 3298 2862 
Q 3072 2584 2669 2484 
Q 3125 2378 3379 2068 
Q 3634 1759 3634 1313 
Q 3634 634 3220 271 
Q 2806 -91 2034 -91 
Q 1263 -91 848 271 
Q 434 634 434 1313 
Q 434 1759 690 2068 
Q 947 2378 1403 2484 
z
M 1172 3481 
Q 1172 3119 1398 2916 
Q 1625 2713 2034 2713 
Q 2441 2713 2670 2916 
Q 2900 3119 2900 3481 
Q 2900 3844 2670 4047 
Q 2441 4250 2034 4250 
Q 1625 4250 1398 4047 
Q 1172 3844 1172 3481 
z
" transform="scale(0.015625)"/>
       </defs>
       <use xlink:href="#DejaVuSans-38"/>
      </g>
     </g>
    </g>
    <g id="xtick_6">
     <g id="line2d_11">
      <path d="M 294.24697 310.84 
L 294.24697 46.836 
" clip-path="url(#p533c045274)" style="fill: none; stroke: #b0b0b0; stroke-width: 0.8; stroke-linecap: square"/>
     </g>
     <g id="line2d_12">
      <g>
       <use xlink:href="#mb1e0fb7530" x="294.24697" y="310.84" style="stroke: #000000; stroke-width: 0.8"/>
      </g>
     </g>
     <g id="text_6">
      <!-- 10 -->
      <g transform="translate(285.97572 327.717969) scale(0.13 -0.13)">
       <defs>
        <path id="DejaVuSans-31" d="M 794 531 
L 1825 531 
L 1825 4091 
L 703 3866 
L 703 4441 
L 1819 4666 
L 2450 4666 
L 2450 531 
L 3481 531 
L 3481 0 
L 794 0 
L 794 531 
z
" transform="scale(0.015625)"/>
       </defs>
       <use xlink:href="#DejaVuSans-31"/>
       <use xlink:href="#DejaVuSans-30" x="63.623047"/>
      </g>
     </g>
    </g>
    <g id="xtick_7">
     <g id="line2d_13">
      <path d="M 338.404545 310.84 
L 338.404545 46.836 
" clip-path="url(#p533c045274)" style="fill: none; stroke: #b0b0b0; stroke-width: 0.8; stroke-linecap: square"/>
     </g>
     <g id="line2d_14">
      <g>
       <use xlink:href="#mb1e0fb7530" x="338.404545" y="310.84" style="stroke: #000000; stroke-width: 0.8"/>
      </g>
     </g>
     <g id="text_7">
      <!-- 12 -->
      <g transform="translate(330.133295 327.717969) scale(0.13 -0.13)">
       <use xlink:href="#DejaVuSans-31"/>
       <use xlink:href="#DejaVuSans-32" x="63.623047"/>
      </g>
     </g>
    </g>
    <g id="xtick_8">
     <g id="line2d_15">
      <path d="M 382.562121 310.84 
L 382.562121 46.836 
" clip-path="url(#p533c045274)" style="fill: none; stroke: #b0b0b0; stroke-width: 0.8; stroke-linecap: square"/>
     </g>
     <g id="line2d_16">
      <g>
       <use xlink:href="#mb1e0fb7530" x="382.562121" y="310.84" style="stroke: #000000; stroke-width: 0.8"/>
      </g>
     </g>
     <g id="text_8">
      <!-- 14 -->
      <g transform="translate(374.290871 327.717969) scale(0.13 -0.13)">
       <use xlink:href="#DejaVuSans-31"/>
       <use xlink:href="#DejaVuSans-34" x="63.623047"/>
      </g>
     </g>
    </g>
    <g id="text_9">
     <!-- Time (years) -->
     <g transform="translate(191.823437 345.819219) scale(0.15 -0.15)">
      <defs>
       <path id="DejaVuSans-54" d="M -19 4666 
L 3928 4666 
L 3928 4134 
L 2272 4134 
L 2272 0 
L 1638 0 
L 1638 4134 
L -19 4134 
L -19 4666 
z
" transform="scale(0.015625)"/>
       <path id="DejaVuSans-69" d="M 603 3500 
L 1178 3500 
L 1178 0 
L 603 0 
L 603 3500 
z
M 603 4863 
L 1178 4863 
L 1178 4134 
L 603 4134 
L 603 4863 
z
" transform="scale(0.015625)"/>
       <path id="DejaVuSans-6d" d="M 3328 2828 
Q 3544 3216 3844 3400 
Q 4144 3584 4550 3584 
Q 5097 3584 5394 3201 
Q 5691 2819 5691 2113 
L 5691 0 
L 5113 0 
L 5113 2094 
Q 5113 2597 4934 2840 
Q 4756 3084 4391 3084 
Q 3944 3084 3684 2787 
Q 3425 2491 3425 1978 
L 3425 0 
L 2847 0 
L 2847 2094 
Q 2847 2600 2669 2842 
Q 2491 3084 2119 3084 
Q 1678 3084 1418 2786 
Q 1159 2488 1159 1978 
L 1159 0 
L 581 0 
L 581 3500 
L 1159 3500 
L 1159 2956 
Q 1356 3278 1631 3431 
Q 1906 3584 2284 3584 
Q 2666 3584 2933 3390 
Q 3200 3197 3328 2828 
z
" transform="scale(0.015625)"/>
       <path id="DejaVuSans-65" d="M 3597 1894 
L 3597 1613 
L 953 1613 
Q 991 1019 1311 708 
Q 1631 397 2203 397 
Q 2534 397 2845 478 
Q 3156 559 3463 722 
L 3463 178 
Q 3153 47 2828 -22 
Q 2503 -91 2169 -91 
Q 1331 -91 842 396 
Q 353 884 353 1716 
Q 353 2575 817 3079 
Q 1281 3584 2069 3584 
Q 2775 3584 3186 3129 
Q 3597 2675 3597 1894 
z
M 3022 2063 
Q 3016 2534 2758 2815 
Q 2500 3097 2075 3097 
Q 1594 3097 1305 2825 
Q 1016 2553 972 2059 
L 3022 2063 
z
" transform="scale(0.015625)"/>
       <path id="DejaVuSans-20" transform="scale(0.015625)"/>
       <path id="DejaVuSans-28" d="M 1984 4856 
Q 1566 4138 1362 3434 
Q 1159 2731 1159 2009 
Q 1159 1288 1364 580 
Q 1569 -128 1984 -844 
L 1484 -844 
Q 1016 -109 783 600 
Q 550 1309 550 2009 
Q 550 2706 781 3412 
Q 1013 4119 1484 4856 
L 1984 4856 
z
" transform="scale(0.015625)"/>
       <path id="DejaVuSans-79" d="M 2059 -325 
Q 1816 -950 1584 -1140 
Q 1353 -1331 966 -1331 
L 506 -1331 
L 506 -850 
L 844 -850 
Q 1081 -850 1212 -737 
Q 1344 -625 1503 -206 
L 1606 56 
L 191 3500 
L 800 3500 
L 1894 763 
L 2988 3500 
L 3597 3500 
L 2059 -325 
z
" transform="scale(0.015625)"/>
       <path id="DejaVuSans-61" d="M 2194 1759 
Q 1497 1759 1228 1600 
Q 959 1441 959 1056 
Q 959 750 1161 570 
Q 1363 391 1709 391 
Q 2188 391 2477 730 
Q 2766 1069 2766 1631 
L 2766 1759 
L 2194 1759 
z
M 3341 1997 
L 3341 0 
L 2766 0 
L 2766 531 
Q 2569 213 2275 61 
Q 1981 -91 1556 -91 
Q 1019 -91 701 211 
Q 384 513 384 1019 
Q 384 1609 779 1909 
Q 1175 2209 1959 2209 
L 2766 2209 
L 2766 2266 
Q 2766 2663 2505 2880 
Q 2244 3097 1772 3097 
Q 1472 3097 1187 3025 
Q 903 2953 641 2809 
L 641 3341 
Q 956 3463 1253 3523 
Q 1550 3584 1831 3584 
Q 2591 3584 2966 3190 
Q 3341 2797 3341 1997 
z
" transform="scale(0.015625)"/>
       <path id="DejaVuSans-72" d="M 2631 2963 
Q 2534 3019 2420 3045 
Q 2306 3072 2169 3072 
Q 1681 3072 1420 2755 
Q 1159 2438 1159 1844 
L 1159 0 
L 581 0 
L 581 3500 
L 1159 3500 
L 1159 2956 
Q 1341 3275 1631 3429 
Q 1922 3584 2338 3584 
Q 2397 3584 2469 3576 
Q 2541 3569 2628 3553 
L 2631 2963 
z
" transform="scale(0.015625)"/>
       <path id="DejaVuSans-73" d="M 2834 3397 
L 2834 2853 
Q 2591 2978 2328 3040 
Q 2066 3103 1784 3103 
Q 1356 3103 1142 2972 
Q 928 2841 928 2578 
Q 928 2378 1081 2264 
Q 1234 2150 1697 2047 
L 1894 2003 
Q 2506 1872 2764 1633 
Q 3022 1394 3022 966 
Q 3022 478 2636 193 
Q 2250 -91 1575 -91 
Q 1294 -91 989 -36 
Q 684 19 347 128 
L 347 722 
Q 666 556 975 473 
Q 1284 391 1588 391 
Q 1994 391 2212 530 
Q 2431 669 2431 922 
Q 2431 1156 2273 1281 
Q 2116 1406 1581 1522 
L 1381 1569 
Q 847 1681 609 1914 
Q 372 2147 372 2553 
Q 372 3047 722 3315 
Q 1072 3584 1716 3584 
Q 2034 3584 2315 3537 
Q 2597 3491 2834 3397 
z
" transform="scale(0.015625)"/>
       <path id="DejaVuSans-29" d="M 513 4856 
L 1013 4856 
Q 1481 4119 1714 3412 
Q 1947 2706 1947 2009 
Q 1947 1309 1714 600 
Q 1481 -109 1013 -844 
L 513 -844 
Q 928 -128 1133 580 
Q 1338 1288 1338 2009 
Q 1338 2731 1133 3434 
Q 928 4138 513 4856 
z
" transform="scale(0.015625)"/>
      </defs>
      <use xlink:href="#DejaVuSans-54"/>
      <use xlink:href="#DejaVuSans-69" x="57.958984"/>
      <use xlink:href="#DejaVuSans-6d" x="85.742188"/>
      <use xlink:href="#DejaVuSans-65" x="183.154297"/>
      <use xlink:href="#DejaVuSans-20" x="244.677734"/>
      <use xlink:href="#DejaVuSans-28" x="276.464844"/>
      <use xlink:href="#DejaVuSans-79" x="315.478516"/>
      <use xlink:href="#DejaVuSans-65" x="374.658203"/>
      <use xlink:href="#DejaVuSans-61" x="436.181641"/>
      <use xlink:href="#DejaVuSans-72" x="497.460938"/>
      <use xlink:href="#DejaVuSans-73" x="538.574219"/>
      <use xlink:href="#DejaVuSans-29" x="590.673828"/>
     </g>
    </g>
   </g>
   <g id="matplotlib.axis_2">
    <g id="ytick_1">
     <g id="line2d_17">
      <path d="M 56.9 298.839818 
L 421.2 298.839818 
" clip-path="url(#p533c045274)" style="fill: none; stroke: #b0b0b0; stroke-width: 0.8; stroke-linecap: square"/>
     </g>
     <g id="line2d_18">
      <defs>
       <path id="m8be2f4b4c3" d="M 0 0 
L -3.5 0 
" style="stroke: #000000; stroke-width: 0.8"/>
      </defs>
      <g>
       <use xlink:href="#m8be2f4b4c3" x="56.9" y="298.839818" style="stroke: #000000; stroke-width: 0.8"/>
      </g>
     </g>
     <g id="text_10">
      <!-- 0.0 -->
      <g transform="translate(29.225938 303.778803) scale(0.13 -0.13)">
       <defs>
        <path id="DejaVuSans-2e" d="M 684 794 
L 1344 794 
L 1344 0 
L 684 0 
L 684 794 
z
" transform="scale(0.015625)"/>
       </defs>
       <use xlink:href="#DejaVuSans-30"/>
       <use xlink:href="#DejaVuSans-2e" x="63.623047"/>
       <use xlink:href="#DejaVuSans-30" x="95.410156"/>
      </g>
     </g>
    </g>
    <g id="ytick_2">
     <g id="line2d_19">
      <path d="M 56.9 250.839091 
L 421.2 250.839091 
" clip-path="url(#p533c045274)" style="fill: none; stroke: #b0b0b0; stroke-width: 0.8; stroke-linecap: square"/>
     </g>
     <g id="line2d_20">
      <g>
       <use xlink:href="#m8be2f4b4c3" x="56.9" y="250.839091" style="stroke: #000000; stroke-width: 0.8"/>
      </g>
     </g>
     <g id="text_11">
      <!-- 0.2 -->
      <g transform="translate(29.225938 255.778075) scale(0.13 -0.13)">
       <use xlink:href="#DejaVuSans-30"/>
       <use xlink:href="#DejaVuSans-2e" x="63.623047"/>
       <use xlink:href="#DejaVuSans-32" x="95.410156"/>
      </g>
     </g>
    </g>
    <g id="ytick_3">
     <g id="line2d_21">
      <path d="M 56.9 202.838364 
L 421.2 202.838364 
" clip-path="url(#p533c045274)" style="fill: none; stroke: #b0b0b0; stroke-width: 0.8; stroke-linecap: square"/>
     </g>
     <g id="line2d_22">
      <g>
       <use xlink:href="#m8be2f4b4c3" x="56.9" y="202.838364" style="stroke: #000000; stroke-width: 0.8"/>
      </g>
     </g>
     <g id="text_12">
      <!-- 0.4 -->
      <g transform="translate(29.225938 207.777348) scale(0.13 -0.13)">
       <use xlink:href="#DejaVuSans-30"/>
       <use xlink:href="#DejaVuSans-2e" x="63.623047"/>
       <use xlink:href="#DejaVuSans-34" x="95.410156"/>
      </g>
     </g>
    </g>
    <g id="ytick_4">
     <g id="line2d_23">
      <path d="M 56.9 154.837636 
L 421.2 154.837636 
" clip-path="url(#p533c045274)" style="fill: none; stroke: #b0b0b0; stroke-width: 0.8; stroke-linecap: square"/>
     </g>
     <g id="line2d_24">
      <g>
       <use xlink:href="#m8be2f4b4c3" x="56.9" y="154.837636" style="stroke: #000000; stroke-width: 0.8"/>
      </g>
     </g>
     <g id="text_13">
      <!-- 0.6 -->
      <g transform="translate(29.225938 159.776621) scale(0.13 -0.13)">
       <use xlink:href="#DejaVuSans-30"/>
       <use xlink:href="#DejaVuSans-2e" x="63.623047"/>
       <use xlink:href="#DejaVuSans-36" x="95.410156"/>
      </g>
     </g>
    </g>
    <g id="ytick_5">
     <g id="line2d_25">
      <path d="M 56.9 106.836909 
L 421.2 106.836909 
" clip-path="url(#p533c045274)" style="fill: none; stroke: #b0b0b0; stroke-width: 0.8; stroke-linecap: square"/>
     </g>
     <g id="line2d_26">
      <g>
       <use xlink:href="#m8be2f4b4c3" x="56.9" y="106.836909" style="stroke: #000000; stroke-width: 0.8"/>
      </g>
     </g>
     <g id="text_14">
      <!-- 0.8 -->
      <g transform="translate(29.225938 111.775893) scale(0.13 -0.13)">
       <use xlink:href="#DejaVuSans-30"/>
       <use xlink:href="#DejaVuSans-2e" x="63.623047"/>
       <use xlink:href="#DejaVuSans-38" x="95.410156"/>
      </g>
     </g>
    </g>
    <g id="ytick_6">
     <g id="line2d_27">
      <path d="M 56.9 58.836182 
L 421.2 58.836182 
" clip-path="url(#p533c045274)" style="fill: none; stroke: #b0b0b0; stroke-width: 0.8; stroke-linecap: square"/>
     </g>
     <g id="line2d_28">
      <g>
       <use xlink:href="#m8be2f4b4c3" x="56.9" y="58.836182" style="stroke: #000000; stroke-width: 0.8"/>
      </g>
     </g>
     <g id="text_15">
      <!-- 1.0 -->
      <g transform="translate(29.225938 63.775166) scale(0.13 -0.13)">
       <use xlink:href="#DejaVuSans-31"/>
       <use xlink:href="#DejaVuSans-2e" x="63.623047"/>
       <use xlink:href="#DejaVuSans-30" x="95.410156"/>
      </g>
     </g>
    </g>
    <g id="text_16">
     <!-- Concentration -->
     <g transform="translate(22.106406 231.894641) rotate(-90) scale(0.15 -0.15)">
      <defs>
       <path id="DejaVuSans-43" d="M 4122 4306 
L 4122 3641 
Q 3803 3938 3442 4084 
Q 3081 4231 2675 4231 
Q 1875 4231 1450 3742 
Q 1025 3253 1025 2328 
Q 1025 1406 1450 917 
Q 1875 428 2675 428 
Q 3081 428 3442 575 
Q 3803 722 4122 1019 
L 4122 359 
Q 3791 134 3420 21 
Q 3050 -91 2638 -91 
Q 1578 -91 968 557 
Q 359 1206 359 2328 
Q 359 3453 968 4101 
Q 1578 4750 2638 4750 
Q 3056 4750 3426 4639 
Q 3797 4528 4122 4306 
z
" transform="scale(0.015625)"/>
       <path id="DejaVuSans-6f" d="M 1959 3097 
Q 1497 3097 1228 2736 
Q 959 2375 959 1747 
Q 959 1119 1226 758 
Q 1494 397 1959 397 
Q 2419 397 2687 759 
Q 2956 1122 2956 1747 
Q 2956 2369 2687 2733 
Q 2419 3097 1959 3097 
z
M 1959 3584 
Q 2709 3584 3137 3096 
Q 3566 2609 3566 1747 
Q 3566 888 3137 398 
Q 2709 -91 1959 -91 
Q 1206 -91 779 398 
Q 353 888 353 1747 
Q 353 2609 779 3096 
Q 1206 3584 1959 3584 
z
" transform="scale(0.015625)"/>
       <path id="DejaVuSans-6e" d="M 3513 2113 
L 3513 0 
L 2938 0 
L 2938 2094 
Q 2938 2591 2744 2837 
Q 2550 3084 2163 3084 
Q 1697 3084 1428 2787 
Q 1159 2491 1159 1978 
L 1159 0 
L 581 0 
L 581 3500 
L 1159 3500 
L 1159 2956 
Q 1366 3272 1645 3428 
Q 1925 3584 2291 3584 
Q 2894 3584 3203 3211 
Q 3513 2838 3513 2113 
z
" transform="scale(0.015625)"/>
       <path id="DejaVuSans-63" d="M 3122 3366 
L 3122 2828 
Q 2878 2963 2633 3030 
Q 2388 3097 2138 3097 
Q 1578 3097 1268 2742 
Q 959 2388 959 1747 
Q 959 1106 1268 751 
Q 1578 397 2138 397 
Q 2388 397 2633 464 
Q 2878 531 3122 666 
L 3122 134 
Q 2881 22 2623 -34 
Q 2366 -91 2075 -91 
Q 1284 -91 818 406 
Q 353 903 353 1747 
Q 353 2603 823 3093 
Q 1294 3584 2113 3584 
Q 2378 3584 2631 3529 
Q 2884 3475 3122 3366 
z
" transform="scale(0.015625)"/>
       <path id="DejaVuSans-74" d="M 1172 4494 
L 1172 3500 
L 2356 3500 
L 2356 3053 
L 1172 3053 
L 1172 1153 
Q 1172 725 1289 603 
Q 1406 481 1766 481 
L 2356 481 
L 2356 0 
L 1766 0 
Q 1100 0 847 248 
Q 594 497 594 1153 
L 594 3053 
L 172 3053 
L 172 3500 
L 594 3500 
L 594 4494 
L 1172 4494 
z
" transform="scale(0.015625)"/>
      </defs>
      <use xlink:href="#DejaVuSans-43"/>
      <use xlink:href="#DejaVuSans-6f" x="69.824219"/>
      <use xlink:href="#DejaVuSans-6e" x="131.005859"/>
      <use xlink:href="#DejaVuSans-63" x="194.384766"/>
      <use xlink:href="#DejaVuSans-65" x="249.365234"/>
      <use xlink:href="#DejaVuSans-6e" x="310.888672"/>
      <use xlink:href="#DejaVuSans-74" x="374.267578"/>
      <use xlink:href="#DejaVuSans-72" x="413.476562"/>
      <use xlink:href="#DejaVuSans-61" x="454.589844"/>
      <use xlink:href="#DejaVuSans-74" x="515.869141"/>
      <use xlink:href="#DejaVuSans-69" x="555.078125"/>
      <use xlink:href="#DejaVuSans-6f" x="582.861328"/>
      <use xlink:href="#DejaVuSans-6e" x="644.042969"/>
     </g>
    </g>
   </g>
   <g id="line2d_29">
    <path d="M 73.459091 58.836182 
L 76.804362 88.690982 
L 80.149633 89.283761 
L 83.494904 89.222041 
L 86.840174 90.056119 
L 90.185445 89.963632 
L 93.530716 90.741693 
L 96.875987 90.64037 
L 100.221258 91.309209 
L 103.566529 91.292126 
L 106.9118 91.730844 
L 110.257071 91.922872 
L 113.602342 92.006681 
L 116.947612 92.468087 
L 120.292883 92.223368 
L 123.638154 92.828026 
L 126.983425 92.620017 
L 130.328696 92.949084 
L 133.673967 93.089475 
L 137.019238 92.915676 
L 140.364509 93.397221 
L 143.70978 93.063455 
L 147.055051 93.416262 
L 150.400321 93.430316 
L 153.745592 93.239873 
L 157.090863 93.654784 
L 160.436134 93.272897 
L 163.781405 93.574547 
L 167.126676 93.564611 
L 170.471947 93.309165 
L 173.817218 93.704842 
L 177.162489 93.30437 
L 180.507759 93.545688 
L 183.85303 93.54313 
L 187.198301 93.233335 
L 190.543572 93.621743 
L 193.888843 93.210904 
L 197.234114 93.421033 
L 200.579385 93.41222 
L 203.924656 93.089959 
L 207.269927 93.465668 
L 210.615197 93.033623 
L 213.960468 93.265481 
L 217.305739 93.209593 
L 220.65101 92.933818 
L 223.996281 93.275672 
L 227.341552 92.810069 
L 230.686823 93.11651 
L 234.032094 92.959714 
L 237.377365 92.806153 
L 240.722635 93.064805 
L 244.067906 92.5871 
L 247.413177 92.982656 
L 250.758448 92.679852 
L 254.103719 92.728706 
L 257.44899 92.825524 
L 260.794261 92.444586 
L 264.139532 92.843978 
L 267.484803 92.402063 
L 270.830073 92.689322 
L 274.175344 92.548928 
L 277.520615 92.424937 
L 280.865886 92.66349 
L 284.211157 92.210048 
L 287.556428 92.63976 
L 290.901699 92.259027 
L 294.24697 92.468773 
L 297.592241 92.416542 
L 300.937511 92.223085 
L 304.282782 92.51897 
L 307.628053 92.057328 
L 310.973324 92.490423 
L 314.318595 92.134859 
L 317.663866 92.330764 
L 321.009137 92.29771 
L 324.354408 92.106291 
L 327.699679 92.407328 
L 331.044949 91.953357 
L 334.39022 92.396181 
L 337.735491 92.029336 
L 341.080762 92.260485 
L 344.426033 92.196793 
L 347.771304 92.054694 
L 351.116575 92.324463 
L 354.461846 91.89175 
L 357.807117 92.342338 
L 361.152388 91.944162 
L 364.497658 92.237346 
L 367.842929 92.111593 
L 371.1882 92.050205 
L 374.533471 92.260304 
L 377.878742 91.873222 
L 381.224013 92.312116 
L 384.569284 91.880816 
L 387.914555 92.241962 
L 391.259826 92.038997 
L 394.605096 92.076203 
L 397.950367 92.205915 
L 401.295638 91.891549 
L 404.640909 92.065768 
" clip-path="url(#p533c045274)" style="fill: none; stroke: #2ca02c; stroke-width: 1.5; stroke-linecap: square"/>
   </g>
   <g id="line2d_30">
    <path d="M 73.459091 298.839818 
L 76.804362 298.839818 
L 80.149633 298.839818 
L 83.494904 298.839818 
L 86.840174 298.839818 
L 90.185445 298.839818 
L 93.530716 298.839818 
L 96.875987 298.839818 
L 100.221258 298.839818 
L 103.566529 298.839818 
L 106.9118 298.839818 
L 110.257071 298.839818 
L 113.602342 298.839818 
L 116.947612 298.839818 
L 120.292883 298.839818 
L 123.638154 298.839818 
L 126.983425 298.839818 
L 130.328696 298.839818 
L 133.673967 298.839818 
L 137.019238 298.839818 
L 140.364509 298.839818 
L 143.70978 298.839818 
L 147.055051 298.839818 
L 150.400321 298.839818 
L 153.745592 298.839818 
L 157.090863 298.839818 
L 160.436134 298.839818 
L 163.781405 298.839818 
L 167.126676 298.839818 
L 170.471947 298.839818 
L 173.817218 298.839818 
L 177.162489 298.839818 
L 180.507759 298.839818 
L 183.85303 298.839818 
L 187.198301 298.839818 
L 190.543572 298.839818 
L 193.888843 298.839818 
L 197.234114 298.839818 
L 200.579385 298.839818 
L 203.924656 298.839818 
L 207.269927 298.839818 
L 210.615197 298.839818 
L 213.960468 298.839818 
L 217.305739 298.839818 
L 220.65101 298.839818 
L 223.996281 298.839818 
L 227.341552 298.839818 
L 230.686823 298.839818 
L 234.032094 298.839818 
L 237.377365 298.839818 
L 240.722635 298.839818 
L 244.067906 298.839818 
L 247.413177 298.839818 
L 250.758448 298.839818 
L 254.103719 298.839818 
L 257.44899 298.839818 
L 260.794261 298.839818 
L 264.139532 298.839818 
L 267.484803 298.839818 
L 270.830073 298.839818 
L 274.175344 298.839818 
L 277.520615 298.839818 
L 280.865886 298.839818 
L 284.211157 298.839818 
L 287.556428 298.839818 
L 290.901699 298.839818 
L 294.24697 298.839818 
L 297.592241 298.839818 
L 300.937511 298.839818 
L 304.282782 298.839818 
L 307.628053 298.839818 
L 310.973324 298.839818 
L 314.318595 298.839818 
L 317.663866 298.839818 
L 321.009137 298.839818 
L 324.354408 298.839818 
L 327.699679 298.839818 
L 331.044949 298.839818 
L 334.39022 298.839818 
L 337.735491 298.839818 
L 341.080762 298.839818 
L 344.426033 298.839818 
L 347.771304 298.839818 
L 351.116575 298.839818 
L 354.461846 298.839818 
L 357.807117 298.839818 
L 361.152388 298.839818 
L 364.497658 298.839818 
L 367.842929 298.839818 
L 371.1882 298.839818 
L 374.533471 298.839818 
L 377.878742 298.839818 
L 381.224013 298.839818 
L 384.569284 298.839818 
L 387.914555 298.839818 
L 391.259826 298.839818 
L 394.605096 298.839818 
L 397.950367 298.839818 
L 401.295638 298.839818 
L 404.640909 298.839818 
" clip-path="url(#p533c045274)" style="fill: none; stroke: #ff7f0e; stroke-width: 1.5; stroke-linecap: square"/>
   </g>
   <g id="line2d_31">
    <path d="M 73.459091 202.838364 
L 76.804362 201.579564 
L 80.149633 200.403816 
L 83.494904 199.292489 
L 86.840174 198.244438 
L 90.185445 197.260802 
L 93.530716 196.339434 
L 96.875987 195.480785 
L 100.221258 194.682204 
L 103.566529 193.943397 
L 106.9118 193.261673 
L 110.257071 192.635713 
L 113.602342 192.063377 
L 116.947612 191.54204 
L 120.292883 191.070449 
L 123.638154 190.644872 
L 126.983425 190.264476 
L 130.328696 189.925669 
L 133.673967 189.626732 
L 137.019238 189.365463 
L 140.364509 189.138618 
L 143.70978 188.945313 
L 147.055051 188.781923 
L 150.400321 188.647243 
L 153.745592 188.539081 
L 157.090863 188.454638 
L 160.436134 188.393323 
L 163.781405 188.351883 
L 167.126676 188.329481 
L 170.471947 188.324395 
L 173.817218 188.334157 
L 177.162489 188.358642 
L 180.507759 188.395063 
L 183.85303 188.442904 
L 187.198301 188.500982 
L 190.543572 188.567145 
L 193.888843 188.641716 
L 197.234114 188.722327 
L 200.579385 188.808797 
L 203.924656 188.900347 
L 207.269927 188.995184 
L 210.615197 189.093973 
L 213.960468 189.194639 
L 217.305739 189.297418 
L 220.65101 189.401679 
L 223.996281 189.506085 
L 227.341552 189.611492 
L 230.686823 189.71599 
L 234.032094 189.820318 
L 237.377365 189.923707 
L 240.722635 190.025438 
L 244.067906 190.126309 
L 247.413177 190.224578 
L 250.758448 190.321473 
L 254.103719 190.415853 
L 257.44899 190.507815 
L 260.794261 190.597725 
L 264.139532 190.684302 
L 267.484803 190.768945 
L 270.830073 190.85015 
L 274.175344 190.928904 
L 277.520615 191.004784 
L 280.865886 191.07743 
L 284.211157 191.147809 
L 287.556428 191.214485 
L 290.901699 191.279006 
L 294.24697 191.340138 
L 297.592241 191.398667 
L 300.937511 191.454547 
L 304.282782 191.507234 
L 307.628053 191.557924 
L 310.973324 191.605181 
L 314.318595 191.65058 
L 317.663866 191.692997 
L 321.009137 191.733186 
L 324.354408 191.771179 
L 327.699679 191.806446 
L 331.044949 191.840201 
L 334.39022 191.871034 
L 337.735491 191.900552 
L 341.080762 191.927586 
L 344.426033 191.952998 
L 347.771304 191.976694 
L 351.116575 191.998293 
L 354.461846 192.01889 
L 357.807117 192.037132 
L 361.152388 192.054646 
L 364.497658 192.070138 
L 367.842929 192.084657 
L 371.1882 192.097864 
L 374.533471 192.109621 
L 377.878742 192.120791 
L 381.224013 192.130156 
L 384.569284 192.139298 
L 387.914555 192.146799 
L 391.259826 192.153916 
L 394.605096 192.160008 
L 397.950367 192.165239 
L 401.295638 192.170162 
L 404.640909 192.17399 
" clip-path="url(#p533c045274)" style="fill: none; stroke: #d62728; stroke-width: 1.5; stroke-linecap: square"/>
   </g>
   <g id="line2d_32">
    <path d="M 73.459091 294.039745 
L 76.804362 294.030315 
L 80.149633 294.0189 
L 83.494904 294.005692 
L 86.840174 293.990869 
L 90.185445 293.974601 
L 93.530716 293.957051 
L 96.875987 293.938374 
L 100.221258 293.918717 
L 103.566529 293.898221 
L 106.9118 293.877017 
L 110.257071 293.855233 
L 113.602342 293.832986 
L 116.947612 293.810388 
L 120.292883 293.787543 
L 123.638154 293.76455 
L 126.983425 293.7415 
L 130.328696 293.718477 
L 133.673967 293.695559 
L 137.019238 293.672819 
L 140.364509 293.650323 
L 143.70978 293.62813 
L 147.055051 293.606295 
L 150.400321 293.584867 
L 153.745592 293.563889 
L 157.090863 293.543399 
L 160.436134 293.523431 
L 163.781405 293.504014 
L 167.126676 293.485172 
L 170.471947 293.466925 
L 173.817218 293.449289 
L 177.162489 293.432277 
L 180.507759 293.415899 
L 183.85303 293.40016 
L 187.198301 293.385062 
L 190.543572 293.370607 
L 193.888843 293.356791 
L 197.234114 293.34361 
L 200.579385 293.331057 
L 203.924656 293.319124 
L 207.269927 293.3078 
L 210.615197 293.297072 
L 213.960468 293.28693 
L 217.305739 293.277356 
L 220.65101 293.268337 
L 223.996281 293.259857 
L 227.341552 293.251897 
L 230.686823 293.244442 
L 234.032094 293.237473 
L 237.377365 293.230972 
L 240.722635 293.224921 
L 244.067906 293.219301 
L 247.413177 293.214093 
L 250.758448 293.20928 
L 254.103719 293.204843 
L 257.44899 293.200765 
L 260.794261 293.197026 
L 264.139532 293.19361 
L 267.484803 293.190499 
L 270.830073 293.187677 
L 274.175344 293.185127 
L 277.520615 293.182833 
L 280.865886 293.180781 
L 284.211157 293.178954 
L 287.556428 293.177339 
L 290.901699 293.175922 
L 294.24697 293.174689 
L 297.592241 293.173628 
L 300.937511 293.172726 
L 304.282782 293.171971 
L 307.628053 293.171352 
L 310.973324 293.17086 
L 314.318595 293.170482 
L 317.663866 293.17021 
L 321.009137 293.170035 
L 324.354408 293.169948 
L 327.699679 293.16994 
L 331.044949 293.170005 
L 334.39022 293.170134 
L 337.735491 293.170321 
L 341.080762 293.17056 
L 344.426033 293.170845 
L 347.771304 293.171169 
L 351.116575 293.171529 
L 354.461846 293.171918 
L 357.807117 293.172333 
L 361.152388 293.172769 
L 364.497658 293.173223 
L 367.842929 293.173691 
L 371.1882 293.174169 
L 374.533471 293.174655 
L 377.878742 293.175146 
L 381.224013 293.17564 
L 384.569284 293.176134 
L 387.914555 293.176626 
L 391.259826 293.177115 
L 394.605096 293.177599 
L 397.950367 293.178076 
L 401.295638 293.178544 
L 404.640909 293.179004 
" clip-path="url(#p533c045274)" style="fill: none; stroke: #1f77b4; stroke-width: 1.5; stroke-linecap: square"/>
   </g>
   <g id="patch_3">
    <path d="M 56.9 310.84 
L 56.9 46.836 
" style="fill: none; stroke: #000000; stroke-width: 0.8; stroke-linejoin: miter; stroke-linecap: square"/>
   </g>
   <g id="patch_4">
    <path d="M 421.2 310.84 
L 421.2 46.836 
" style="fill: none; stroke: #000000; stroke-width: 0.8; stroke-linejoin: miter; stroke-linecap: square"/>
   </g>
   <g id="patch_5">
    <path d="M 56.9 310.84 
L 421.2 310.84 
" style="fill: none; stroke: #000000; stroke-width: 0.8; stroke-linejoin: miter; stroke-linecap: square"/>
   </g>
   <g id="patch_6">
    <path d="M 56.9 46.836 
L 421.2 46.836 
" style="fill: none; stroke: #000000; stroke-width: 0.8; stroke-linejoin: miter; stroke-linecap: square"/>
   </g>
   <g id="legend_1">
    <g id="line2d_33">
     <path d="M 62.9 24.663136 
L 70.4 24.663136 
L 77.9 24.663136 
" style="fill: none; stroke: #2ca02c; stroke-width: 1.5; stroke-linecap: square"/>
    </g>
    <g id="text_17">
     <!-- Grass -->
     <g transform="translate(89.9 29.913136) scale(0.15 -0.15)">
      <defs>
       <path id="DejaVuSans-47" d="M 3809 666 
L 3809 1919 
L 2778 1919 
L 2778 2438 
L 4434 2438 
L 4434 434 
Q 4069 175 3628 42 
Q 3188 -91 2688 -91 
Q 1594 -91 976 548 
Q 359 1188 359 2328 
Q 359 3472 976 4111 
Q 1594 4750 2688 4750 
Q 3144 4750 3555 4637 
Q 3966 4525 4313 4306 
L 4313 3634 
Q 3963 3931 3569 4081 
Q 3175 4231 2741 4231 
Q 1884 4231 1454 3753 
Q 1025 3275 1025 2328 
Q 1025 1384 1454 906 
Q 1884 428 2741 428 
Q 3075 428 3337 486 
Q 3600 544 3809 666 
z
" transform="scale(0.015625)"/>
      </defs>
      <use xlink:href="#DejaVuSans-47"/>
      <use xlink:href="#DejaVuSans-72" x="77.490234"/>
      <use xlink:href="#DejaVuSans-61" x="118.603516"/>
      <use xlink:href="#DejaVuSans-73" x="179.882812"/>
      <use xlink:href="#DejaVuSans-73" x="231.982422"/>
     </g>
    </g>
    <g id="line2d_34">
     <path d="M 155.49349 24.663136 
L 162.99349 24.663136 
L 170.49349 24.663136 
" style="fill: none; stroke: #ff7f0e; stroke-width: 1.5; stroke-linecap: square"/>
    </g>
    <g id="text_18">
     <!-- Hares -->
     <g transform="translate(182.49349 29.913136) scale(0.15 -0.15)">
      <defs>
       <path id="DejaVuSans-48" d="M 628 4666 
L 1259 4666 
L 1259 2753 
L 3553 2753 
L 3553 4666 
L 4184 4666 
L 4184 0 
L 3553 0 
L 3553 2222 
L 1259 2222 
L 1259 0 
L 628 0 
L 628 4666 
z
" transform="scale(0.015625)"/>
      </defs>
      <use xlink:href="#DejaVuSans-48"/>
      <use xlink:href="#DejaVuSans-61" x="75.195312"/>
      <use xlink:href="#DejaVuSans-72" x="136.474609"/>
      <use xlink:href="#DejaVuSans-65" x="175.337891"/>
      <use xlink:href="#DejaVuSans-73" x="236.861328"/>
     </g>
    </g>
    <g id="line2d_35">
     <path d="M 248.822917 24.663136 
L 256.322917 24.663136 
L 263.822917 24.663136 
" style="fill: none; stroke: #d62728; stroke-width: 1.5; stroke-linecap: square"/>
    </g>
    <g id="text_19">
     <!-- Deer -->
     <g transform="translate(275.822917 29.913136) scale(0.15 -0.15)">
      <defs>
       <path id="DejaVuSans-44" d="M 1259 4147 
L 1259 519 
L 2022 519 
Q 2988 519 3436 956 
Q 3884 1394 3884 2338 
Q 3884 3275 3436 3711 
Q 2988 4147 2022 4147 
L 1259 4147 
z
M 628 4666 
L 1925 4666 
Q 3281 4666 3915 4102 
Q 4550 3538 4550 2338 
Q 4550 1131 3912 565 
Q 3275 0 1925 0 
L 628 0 
L 628 4666 
z
" transform="scale(0.015625)"/>
      </defs>
      <use xlink:href="#DejaVuSans-44"/>
      <use xlink:href="#DejaVuSans-65" x="77.001953"/>
      <use xlink:href="#DejaVuSans-65" x="138.525391"/>
      <use xlink:href="#DejaVuSans-72" x="200.048828"/>
     </g>
    </g>
    <g id="line2d_36">
     <path d="M 334.982813 24.663136 
L 342.482813 24.663136 
L 349.982813 24.663136 
" style="fill: none; stroke: #1f77b4; stroke-width: 1.5; stroke-linecap: square"/>
    </g>
    <g id="text_20">
     <!-- Wolves -->
     <g transform="translate(361.982813 29.913136) scale(0.15 -0.15)">
      <defs>
       <path id="DejaVuSans-57" d="M 213 4666 
L 850 4666 
L 1831 722 
L 2809 4666 
L 3519 4666 
L 4500 722 
L 5478 4666 
L 6119 4666 
L 4947 0 
L 4153 0 
L 3169 4050 
L 2175 0 
L 1381 0 
L 213 4666 
z
" transform="scale(0.015625)"/>
       <path id="DejaVuSans-6c" d="M 603 4863 
L 1178 4863 
L 1178 0 
L 603 0 
L 603 4863 
z
" transform="scale(0.015625)"/>
       <path id="DejaVuSans-76" d="M 191 3500 
L 800 3500 
L 1894 563 
L 2988 3500 
L 3597 3500 
L 2284 0 
L 1503 0 
L 191 3500 
z
" transform="scale(0.015625)"/>
      </defs>
      <use xlink:href="#DejaVuSans-57"/>
      <use xlink:href="#DejaVuSans-6f" x="93.001953"/>
      <use xlink:href="#DejaVuSans-6c" x="154.183594"/>
      <use xlink:href="#DejaVuSans-76" x="181.966797"/>
      <use xlink:href="#DejaVuSans-65" x="241.146484"/>
      <use xlink:href="#DejaVuSans-73" x="302.669922"/>
     </g>
    </g>
   </g>
  </g>
 </g>
 <defs>
  <clipPath id="p533c045274">
   <rect x="56.9" y="46.836" width="364.3" height="264.004"/>
  </clipPath>
 </defs>
</svg>
