<?xml version="1.0" encoding="utf-8" standalone="no"?>
<!DOCTYPE svg PUBLIC "-//W3C//DTD SVG 1.1//EN"
  "http://www.w3.org/Graphics/SVG/1.1/DTD/svg11.dtd">
<svg xmlns:xlink="http://www.w3.org/1999/xlink" width="432pt" height="360pt" viewBox="0 0 432 360" xmlns="http://www.w3.org/2000/svg" version="1.1">
 <metadata>
  <rdf:RDF xmlns:dc="http://purl.org/dc/elements/1.1/" xmlns:cc="http://creativecommons.org/ns#" xmlns:rdf="http://www.w3.org/1999/02/22-rdf-syntax-ns#">
   <cc:Work>
    <dc:type rdf:resource="http://purl.org/dc/dcmitype/StillImage"/>
    <dc:date>2025-06-14T10:39:39.797214</dc:date>
    <dc:format>image/svg+xml</dc:format>
    <dc:creator>
     <cc:Agent>
      <dc:title>Matplotlib v3.8.3, https://matplotlib.org/</dc:title>
     </cc:Agent>
    </dc:creator>
   </cc:Work>
  </rdf:RDF>
 </metadata>
 <defs>
  <style type="text/css">*{stroke-linejoin: round; stroke-linecap: butt}</style>
 </defs>
 <g id="figure_1">
  <g id="patch_1">
   <path d="M 0 360 
L 432 360 
L 432 0 
L 0 0 
z
" style="fill: #ffffff"/>
  </g>
  <g id="axes_1">
   <g id="patch_2">
    <path d="M 61.04 310.84 
L 421.2 310.84 
L 421.2 46.836 
L 61.04 46.836 
z
" style="fill: #ffffff"/>
   </g>
   <g id="matplotlib.axis_1">
    <g id="xtick_1">
     <g id="line2d_1">
      <path d="M 77.410909 310.84 
L 77.410909 46.836 
" clip-path="url(#pb8817dfb45)" style="fill: none; stroke: #b0b0b0; stroke-width: 0.8; stroke-linecap: square"/>
     </g>
     <g id="line2d_2">
      <defs>
       <path id="m95d2fe3541" d="M 0 0 
L 0 3.5 
" style="stroke: #000000; stroke-width: 0.8"/>
      </defs>
      <g>
       <use xlink:href="#m95d2fe3541" x="77.410909" y="310.84" style="stroke: #000000; stroke-width: 0.8"/>
      </g>
     </g>
     <g id="text_1">
      <!-- 0 -->
      <g transform="translate(73.275284 327.717969) scale(0.13 -0.13)">
       <defs>
        <path id="DejaVuSans-30" d="M 2034 4250 
Q 1547 4250 1301 3770 
Q 1056 3291 1056 2328 
Q 1056 1369 1301 889 
Q 1547 409 2034 409 
Q 2525 409 2770 889 
Q 3016 1369 3016 2328 
Q 3016 3291 2770 3770 
Q 2525 4250 2034 4250 
z
M 2034 4750 
Q 2819 4750 3233 4129 
Q 3647 3509 3647 2328 
Q 3647 1150 3233 529 
Q 2819 -91 2034 -91 
Q 1250 -91 836 529 
Q 422 1150 422 2328 
Q 422 3509 836 4129 
Q 1250 4750 2034 4750 
z
" transform="scale(0.015625)"/>
       </defs>
       <use xlink:href="#DejaVuSans-30"/>
      </g>
     </g>
    </g>
    <g id="xtick_2">
     <g id="line2d_3">
      <path d="M 121.066667 310.84 
L 121.066667 46.836 
" clip-path="url(#pb8817dfb45)" style="fill: none; stroke: #b0b0b0; stroke-width: 0.8; stroke-linecap: square"/>
     </g>
     <g id="line2d_4">
      <g>
       <use xlink:href="#m95d2fe3541" x="121.066667" y="310.84" style="stroke: #000000; stroke-width: 0.8"/>
      </g>
     </g>
     <g id="text_2">
      <!-- 2 -->
      <g transform="translate(116.931042 327.717969) scale(0.13 -0.13)">
       <defs>
        <path id="DejaVuSans-32" d="M 1228 531 
L 3431 531 
L 3431 0 
L 469 0 
L 469 531 
Q 828 903 1448 1529 
Q 2069 2156 2228 2338 
Q 2531 2678 2651 2914 
Q 2772 3150 2772 3378 
Q 2772 3750 2511 3984 
Q 2250 4219 1831 4219 
Q 1534 4219 1204 4116 
Q 875 4013 500 3803 
L 500 4441 
Q 881 4594 1212 4672 
Q 1544 4750 1819 4750 
Q 2544 4750 2975 4387 
Q 3406 4025 3406 3419 
Q 3406 3131 3298 2873 
Q 3191 2616 2906 2266 
Q 2828 2175 2409 1742 
Q 1991 1309 1228 531 
z
" transform="scale(0.015625)"/>
       </defs>
       <use xlink:href="#DejaVuSans-32"/>
      </g>
     </g>
    </g>
    <g id="xtick_3">
     <g id="line2d_5">
      <path d="M 164.722424 310.84 
L 164.722424 46.836 
" clip-path="url(#pb8817dfb45)" style="fill: none; stroke: #b0b0b0; stroke-width: 0.8; stroke-linecap: square"/>
     </g>
     <g id="line2d_6">
      <g>
       <use xlink:href="#m95d2fe3541" x="164.722424" y="310.84" style="stroke: #000000; stroke-width: 0.8"/>
      </g>
     </g>
     <g id="text_3">
      <!-- 4 -->
      <g transform="translate(160.586799 327.717969) scale(0.13 -0.13)">
       <defs>
        <path id="DejaVuSans-34" d="M 2419 4116 
L 825 1625 
L 2419 1625 
L 2419 4116 
z
M 2253 4666 
L 3047 4666 
L 3047 1625 
L 3713 1625 
L 3713 1100 
L 3047 1100 
L 3047 0 
L 2419 0 
L 2419 1100 
L 313 1100 
L 313 1709 
L 2253 4666 
z
" transform="scale(0.015625)"/>
       </defs>
       <use xlink:href="#DejaVuSans-34"/>
      </g>
     </g>
    </g>
    <g id="xtick_4">
     <g id="line2d_7">
      <path d="M 208.378182 310.84 
L 208.378182 46.836 
" clip-path="url(#pb8817dfb45)" style="fill: none; stroke: #b0b0b0; stroke-width: 0.8; stroke-linecap: square"/>
     </g>
     <g id="line2d_8">
      <g>
       <use xlink:href="#m95d2fe3541" x="208.378182" y="310.84" style="stroke: #000000; stroke-width: 0.8"/>
      </g>
     </g>
     <g id="text_4">
      <!-- 6 -->
      <g transform="translate(204.242557 327.717969) scale(0.13 -0.13)">
       <defs>
        <path id="DejaVuSans-36" d="M 2113 2584 
Q 1688 2584 1439 2293 
Q 1191 2003 1191 1497 
Q 1191 994 1439 701 
Q 1688 409 2113 409 
Q 2538 409 2786 701 
Q 3034 994 3034 1497 
Q 3034 2003 2786 2293 
Q 2538 2584 2113 2584 
z
M 3366 4563 
L 3366 3988 
Q 3128 4100 2886 4159 
Q 2644 4219 2406 4219 
Q 1781 4219 1451 3797 
Q 1122 3375 1075 2522 
Q 1259 2794 1537 2939 
Q 1816 3084 2150 3084 
Q 2853 3084 3261 2657 
Q 3669 2231 3669 1497 
Q 3669 778 3244 343 
Q 2819 -91 2113 -91 
Q 1303 -91 875 529 
Q 447 1150 447 2328 
Q 447 3434 972 4092 
Q 1497 4750 2381 4750 
Q 2619 4750 2861 4703 
Q 3103 4656 3366 4563 
z
" transform="scale(0.015625)"/>
       </defs>
       <use xlink:href="#DejaVuSans-36"/>
      </g>
     </g>
    </g>
    <g id="xtick_5">
     <g id="line2d_9">
      <path d="M 252.033939 310.84 
L 252.033939 46.836 
" clip-path="url(#pb8817dfb45)" style="fill: none; stroke: #b0b0b0; stroke-width: 0.8; stroke-linecap: square"/>
     </g>
     <g id="line2d_10">
      <g>
       <use xlink:href="#m95d2fe3541" x="252.033939" y="310.84" style="stroke: #000000; stroke-width: 0.8"/>
      </g>
     </g>
     <g id="text_5">
      <!-- 8 -->
      <g transform="translate(247.898314 327.717969) scale(0.13 -0.13)">
       <defs>
        <path id="DejaVuSans-38" d="M 2034 2216 
Q 1584 2216 1326 1975 
Q 1069 1734 1069 1313 
Q 1069 891 1326 650 
Q 1584 409 2034 409 
Q 2484 409 2743 651 
Q 3003 894 3003 1313 
Q 3003 1734 2745 1975 
Q 2488 2216 2034 2216 
z
M 1403 2484 
Q 997 2584 770 2862 
Q 544 3141 544 3541 
Q 544 4100 942 4425 
Q 1341 4750 2034 4750 
Q 2731 4750 3128 4425 
Q 3525 4100 3525 3541 
Q 3525 3141 3298 2862 
Q 3072 2584 2669 2484 
Q 3125 2378 3379 2068 
Q 3634 1759 3634 1313 
Q 3634 634 3220 271 
Q 2806 -91 2034 -91 
Q 1263 -91 848 271 
Q 434 634 434 1313 
Q 434 1759 690 2068 
Q 947 2378 1403 2484 
z
M 1172 3481 
Q 1172 3119 1398 2916 
Q 1625 2713 2034 2713 
Q 2441 2713 2670 2916 
Q 2900 3119 2900 3481 
Q 2900 3844 2670 4047 
Q 2441 4250 2034 4250 
Q 1625 4250 1398 4047 
Q 1172 3844 1172 3481 
z
" transform="scale(0.015625)"/>
       </defs>
       <use xlink:href="#DejaVuSans-38"/>
      </g>
     </g>
    </g>
    <g id="xtick_6">
     <g id="line2d_11">
      <path d="M 295.689697 310.84 
L 295.689697 46.836 
" clip-path="url(#pb8817dfb45)" style="fill: none; stroke: #b0b0b0; stroke-width: 0.8; stroke-linecap: square"/>
     </g>
     <g id="line2d_12">
      <g>
       <use xlink:href="#m95d2fe3541" x="295.689697" y="310.84" style="stroke: #000000; stroke-width: 0.8"/>
      </g>
     </g>
     <g id="text_6">
      <!-- 10 -->
      <g transform="translate(287.418447 327.717969) scale(0.13 -0.13)">
       <defs>
        <path id="DejaVuSans-31" d="M 794 531 
L 1825 531 
L 1825 4091 
L 703 3866 
L 703 4441 
L 1819 4666 
L 2450 4666 
L 2450 531 
L 3481 531 
L 3481 0 
L 794 0 
L 794 531 
z
" transform="scale(0.015625)"/>
       </defs>
       <use xlink:href="#DejaVuSans-31"/>
       <use xlink:href="#DejaVuSans-30" x="63.623047"/>
      </g>
     </g>
    </g>
    <g id="xtick_7">
     <g id="line2d_13">
      <path d="M 339.345455 310.84 
L 339.345455 46.836 
" clip-path="url(#pb8817dfb45)" style="fill: none; stroke: #b0b0b0; stroke-width: 0.8; stroke-linecap: square"/>
     </g>
     <g id="line2d_14">
      <g>
       <use xlink:href="#m95d2fe3541" x="339.345455" y="310.84" style="stroke: #000000; stroke-width: 0.8"/>
      </g>
     </g>
     <g id="text_7">
      <!-- 12 -->
      <g transform="translate(331.074205 327.717969) scale(0.13 -0.13)">
       <use xlink:href="#DejaVuSans-31"/>
       <use xlink:href="#DejaVuSans-32" x="63.623047"/>
      </g>
     </g>
    </g>
    <g id="xtick_8">
     <g id="line2d_15">
      <path d="M 383.001212 310.84 
L 383.001212 46.836 
" clip-path="url(#pb8817dfb45)" style="fill: none; stroke: #b0b0b0; stroke-width: 0.8; stroke-linecap: square"/>
     </g>
     <g id="line2d_16">
      <g>
       <use xlink:href="#m95d2fe3541" x="383.001212" y="310.84" style="stroke: #000000; stroke-width: 0.8"/>
      </g>
     </g>
     <g id="text_8">
      <!-- 14 -->
      <g transform="translate(374.729962 327.717969) scale(0.13 -0.13)">
       <use xlink:href="#DejaVuSans-31"/>
       <use xlink:href="#DejaVuSans-34" x="63.623047"/>
      </g>
     </g>
    </g>
    <g id="text_9">
     <!-- Time (years) -->
     <g transform="translate(193.893437 345.819219) scale(0.15 -0.15)">
      <defs>
       <path id="DejaVuSans-54" d="M -19 4666 
L 3928 4666 
L 3928 4134 
L 2272 4134 
L 2272 0 
L 1638 0 
L 1638 4134 
L -19 4134 
L -19 4666 
z
" transform="scale(0.015625)"/>
       <path id="DejaVuSans-69" d="M 603 3500 
L 1178 3500 
L 1178 0 
L 603 0 
L 603 3500 
z
M 603 4863 
L 1178 4863 
L 1178 4134 
L 603 4134 
L 603 4863 
z
" transform="scale(0.015625)"/>
       <path id="DejaVuSans-6d" d="M 3328 2828 
Q 3544 3216 3844 3400 
Q 4144 3584 4550 3584 
Q 5097 3584 5394 3201 
Q 5691 2819 5691 2113 
L 5691 0 
L 5113 0 
L 5113 2094 
Q 5113 2597 4934 2840 
Q 4756 3084 4391 3084 
Q 3944 3084 3684 2787 
Q 3425 2491 3425 1978 
L 3425 0 
L 2847 0 
L 2847 2094 
Q 2847 2600 2669 2842 
Q 2491 3084 2119 3084 
Q 1678 3084 1418 2786 
Q 1159 2488 1159 1978 
L 1159 0 
L 581 0 
L 581 3500 
L 1159 3500 
L 1159 2956 
Q 1356 3278 1631 3431 
Q 1906 3584 2284 3584 
Q 2666 3584 2933 3390 
Q 3200 3197 3328 2828 
z
" transform="scale(0.015625)"/>
       <path id="DejaVuSans-65" d="M 3597 1894 
L 3597 1613 
L 953 1613 
Q 991 1019 1311 708 
Q 1631 397 2203 397 
Q 2534 397 2845 478 
Q 3156 559 3463 722 
L 3463 178 
Q 3153 47 2828 -22 
Q 2503 -91 2169 -91 
Q 1331 -91 842 396 
Q 353 884 353 1716 
Q 353 2575 817 3079 
Q 1281 3584 2069 3584 
Q 2775 3584 3186 3129 
Q 3597 2675 3597 1894 
z
M 3022 2063 
Q 3016 2534 2758 2815 
Q 2500 3097 2075 3097 
Q 1594 3097 1305 2825 
Q 1016 2553 972 2059 
L 3022 2063 
z
" transform="scale(0.015625)"/>
       <path id="DejaVuSans-20" transform="scale(0.015625)"/>
       <path id="DejaVuSans-28" d="M 1984 4856 
Q 1566 4138 1362 3434 
Q 1159 2731 1159 2009 
Q 1159 1288 1364 580 
Q 1569 -128 1984 -844 
L 1484 -844 
Q 1016 -109 783 600 
Q 550 1309 550 2009 
Q 550 2706 781 3412 
Q 1013 4119 1484 4856 
L 1984 4856 
z
" transform="scale(0.015625)"/>
       <path id="DejaVuSans-79" d="M 2059 -325 
Q 1816 -950 1584 -1140 
Q 1353 -1331 966 -1331 
L 506 -1331 
L 506 -850 
L 844 -850 
Q 1081 -850 1212 -737 
Q 1344 -625 1503 -206 
L 1606 56 
L 191 3500 
L 800 3500 
L 1894 763 
L 2988 3500 
L 3597 3500 
L 2059 -325 
z
" transform="scale(0.015625)"/>
       <path id="DejaVuSans-61" d="M 2194 1759 
Q 1497 1759 1228 1600 
Q 959 1441 959 1056 
Q 959 750 1161 570 
Q 1363 391 1709 391 
Q 2188 391 2477 730 
Q 2766 1069 2766 1631 
L 2766 1759 
L 2194 1759 
z
M 3341 1997 
L 3341 0 
L 2766 0 
L 2766 531 
Q 2569 213 2275 61 
Q 1981 -91 1556 -91 
Q 1019 -91 701 211 
Q 384 513 384 1019 
Q 384 1609 779 1909 
Q 1175 2209 1959 2209 
L 2766 2209 
L 2766 2266 
Q 2766 2663 2505 2880 
Q 2244 3097 1772 3097 
Q 1472 3097 1187 3025 
Q 903 2953 641 2809 
L 641 3341 
Q 956 3463 1253 3523 
Q 1550 3584 1831 3584 
Q 2591 3584 2966 3190 
Q 3341 2797 3341 1997 
z
" transform="scale(0.015625)"/>
       <path id="DejaVuSans-72" d="M 2631 2963 
Q 2534 3019 2420 3045 
Q 2306 3072 2169 3072 
Q 1681 3072 1420 2755 
Q 1159 2438 1159 1844 
L 1159 0 
L 581 0 
L 581 3500 
L 1159 3500 
L 1159 2956 
Q 1341 3275 1631 3429 
Q 1922 3584 2338 3584 
Q 2397 3584 2469 3576 
Q 2541 3569 2628 3553 
L 2631 2963 
z
" transform="scale(0.015625)"/>
       <path id="DejaVuSans-73" d="M 2834 3397 
L 2834 2853 
Q 2591 2978 2328 3040 
Q 2066 3103 1784 3103 
Q 1356 3103 1142 2972 
Q 928 2841 928 2578 
Q 928 2378 1081 2264 
Q 1234 2150 1697 2047 
L 1894 2003 
Q 2506 1872 2764 1633 
Q 3022 1394 3022 966 
Q 3022 478 2636 193 
Q 2250 -91 1575 -91 
Q 1294 -91 989 -36 
Q 684 19 347 128 
L 347 722 
Q 666 556 975 473 
Q 1284 391 1588 391 
Q 1994 391 2212 530 
Q 2431 669 2431 922 
Q 2431 1156 2273 1281 
Q 2116 1406 1581 1522 
L 1381 1569 
Q 847 1681 609 1914 
Q 372 2147 372 2553 
Q 372 3047 722 3315 
Q 1072 3584 1716 3584 
Q 2034 3584 2315 3537 
Q 2597 3491 2834 3397 
z
" transform="scale(0.015625)"/>
       <path id="DejaVuSans-29" d="M 513 4856 
L 1013 4856 
Q 1481 4119 1714 3412 
Q 1947 2706 1947 2009 
Q 1947 1309 1714 600 
Q 1481 -109 1013 -844 
L 513 -844 
Q 928 -128 1133 580 
Q 1338 1288 1338 2009 
Q 1338 2731 1133 3434 
Q 928 4138 513 4856 
z
" transform="scale(0.015625)"/>
      </defs>
      <use xlink:href="#DejaVuSans-54"/>
      <use xlink:href="#DejaVuSans-69" x="57.958984"/>
      <use xlink:href="#DejaVuSans-6d" x="85.742188"/>
      <use xlink:href="#DejaVuSans-65" x="183.154297"/>
      <use xlink:href="#DejaVuSans-20" x="244.677734"/>
      <use xlink:href="#DejaVuSans-28" x="276.464844"/>
      <use xlink:href="#DejaVuSans-79" x="315.478516"/>
      <use xlink:href="#DejaVuSans-65" x="374.658203"/>
      <use xlink:href="#DejaVuSans-61" x="436.181641"/>
      <use xlink:href="#DejaVuSans-72" x="497.460938"/>
      <use xlink:href="#DejaVuSans-73" x="538.574219"/>
      <use xlink:href="#DejaVuSans-29" x="590.673828"/>
     </g>
    </g>
   </g>
   <g id="matplotlib.axis_2">
    <g id="ytick_1">
     <g id="line2d_17">
      <path d="M 61.04 300.524154 
L 421.2 300.524154 
" clip-path="url(#pb8817dfb45)" style="fill: none; stroke: #b0b0b0; stroke-width: 0.8; stroke-linecap: square"/>
     </g>
     <g id="line2d_18">
      <defs>
       <path id="mf265b639ff" d="M 0 0 
L -3.5 0 
" style="stroke: #000000; stroke-width: 0.8"/>
      </defs>
      <g>
       <use xlink:href="#mf265b639ff" x="61.04" y="300.524154" style="stroke: #000000; stroke-width: 0.8"/>
      </g>
     </g>
     <g id="text_10">
      <!-- 0 -->
      <g transform="translate(45.76875 305.463139) scale(0.13 -0.13)">
       <use xlink:href="#DejaVuSans-30"/>
      </g>
     </g>
    </g>
    <g id="ytick_2">
     <g id="line2d_19">
      <path d="M 61.04 267.260168 
L 421.2 267.260168 
" clip-path="url(#pb8817dfb45)" style="fill: none; stroke: #b0b0b0; stroke-width: 0.8; stroke-linecap: square"/>
     </g>
     <g id="line2d_20">
      <g>
       <use xlink:href="#mf265b639ff" x="61.04" y="267.260168" style="stroke: #000000; stroke-width: 0.8"/>
      </g>
     </g>
     <g id="text_11">
      <!-- 50 -->
      <g transform="translate(37.4975 272.199152) scale(0.13 -0.13)">
       <defs>
        <path id="DejaVuSans-35" d="M 691 4666 
L 3169 4666 
L 3169 4134 
L 1269 4134 
L 1269 2991 
Q 1406 3038 1543 3061 
Q 1681 3084 1819 3084 
Q 2600 3084 3056 2656 
Q 3513 2228 3513 1497 
Q 3513 744 3044 326 
Q 2575 -91 1722 -91 
Q 1428 -91 1123 -41 
Q 819 9 494 109 
L 494 744 
Q 775 591 1075 516 
Q 1375 441 1709 441 
Q 2250 441 2565 725 
Q 2881 1009 2881 1497 
Q 2881 1984 2565 2268 
Q 2250 2553 1709 2553 
Q 1456 2553 1204 2497 
Q 953 2441 691 2322 
L 691 4666 
z
" transform="scale(0.015625)"/>
       </defs>
       <use xlink:href="#DejaVuSans-35"/>
       <use xlink:href="#DejaVuSans-30" x="63.623047"/>
      </g>
     </g>
    </g>
    <g id="ytick_3">
     <g id="line2d_21">
      <path d="M 61.04 233.996182 
L 421.2 233.996182 
" clip-path="url(#pb8817dfb45)" style="fill: none; stroke: #b0b0b0; stroke-width: 0.8; stroke-linecap: square"/>
     </g>
     <g id="line2d_22">
      <g>
       <use xlink:href="#mf265b639ff" x="61.04" y="233.996182" style="stroke: #000000; stroke-width: 0.8"/>
      </g>
     </g>
     <g id="text_12">
      <!-- 100 -->
      <g transform="translate(29.22625 238.935166) scale(0.13 -0.13)">
       <use xlink:href="#DejaVuSans-31"/>
       <use xlink:href="#DejaVuSans-30" x="63.623047"/>
       <use xlink:href="#DejaVuSans-30" x="127.246094"/>
      </g>
     </g>
    </g>
    <g id="ytick_4">
     <g id="line2d_23">
      <path d="M 61.04 200.732195 
L 421.2 200.732195 
" clip-path="url(#pb8817dfb45)" style="fill: none; stroke: #b0b0b0; stroke-width: 0.8; stroke-linecap: square"/>
     </g>
     <g id="line2d_24">
      <g>
       <use xlink:href="#mf265b639ff" x="61.04" y="200.732195" style="stroke: #000000; stroke-width: 0.8"/>
      </g>
     </g>
     <g id="text_13">
      <!-- 150 -->
      <g transform="translate(29.22625 205.67118) scale(0.13 -0.13)">
       <use xlink:href="#DejaVuSans-31"/>
       <use xlink:href="#DejaVuSans-35" x="63.623047"/>
       <use xlink:href="#DejaVuSans-30" x="127.246094"/>
      </g>
     </g>
    </g>
    <g id="ytick_5">
     <g id="line2d_25">
      <path d="M 61.04 167.468209 
L 421.2 167.468209 
" clip-path="url(#pb8817dfb45)" style="fill: none; stroke: #b0b0b0; stroke-width: 0.8; stroke-linecap: square"/>
     </g>
     <g id="line2d_26">
      <g>
       <use xlink:href="#mf265b639ff" x="61.04" y="167.468209" style="stroke: #000000; stroke-width: 0.8"/>
      </g>
     </g>
     <g id="text_14">
      <!-- 200 -->
      <g transform="translate(29.22625 172.407193) scale(0.13 -0.13)">
       <use xlink:href="#DejaVuSans-32"/>
       <use xlink:href="#DejaVuSans-30" x="63.623047"/>
       <use xlink:href="#DejaVuSans-30" x="127.246094"/>
      </g>
     </g>
    </g>
    <g id="ytick_6">
     <g id="line2d_27">
      <path d="M 61.04 134.204223 
L 421.2 134.204223 
" clip-path="url(#pb8817dfb45)" style="fill: none; stroke: #b0b0b0; stroke-width: 0.8; stroke-linecap: square"/>
     </g>
     <g id="line2d_28">
      <g>
       <use xlink:href="#mf265b639ff" x="61.04" y="134.204223" style="stroke: #000000; stroke-width: 0.8"/>
      </g>
     </g>
     <g id="text_15">
      <!-- 250 -->
      <g transform="translate(29.22625 139.143207) scale(0.13 -0.13)">
       <use xlink:href="#DejaVuSans-32"/>
       <use xlink:href="#DejaVuSans-35" x="63.623047"/>
       <use xlink:href="#DejaVuSans-30" x="127.246094"/>
      </g>
     </g>
    </g>
    <g id="ytick_7">
     <g id="line2d_29">
      <path d="M 61.04 100.940236 
L 421.2 100.940236 
" clip-path="url(#pb8817dfb45)" style="fill: none; stroke: #b0b0b0; stroke-width: 0.8; stroke-linecap: square"/>
     </g>
     <g id="line2d_30">
      <g>
       <use xlink:href="#mf265b639ff" x="61.04" y="100.940236" style="stroke: #000000; stroke-width: 0.8"/>
      </g>
     </g>
     <g id="text_16">
      <!-- 300 -->
      <g transform="translate(29.22625 105.879221) scale(0.13 -0.13)">
       <defs>
        <path id="DejaVuSans-33" d="M 2597 2516 
Q 3050 2419 3304 2112 
Q 3559 1806 3559 1356 
Q 3559 666 3084 287 
Q 2609 -91 1734 -91 
Q 1441 -91 1130 -33 
Q 819 25 488 141 
L 488 750 
Q 750 597 1062 519 
Q 1375 441 1716 441 
Q 2309 441 2620 675 
Q 2931 909 2931 1356 
Q 2931 1769 2642 2001 
Q 2353 2234 1838 2234 
L 1294 2234 
L 1294 2753 
L 1863 2753 
Q 2328 2753 2575 2939 
Q 2822 3125 2822 3475 
Q 2822 3834 2567 4026 
Q 2313 4219 1838 4219 
Q 1578 4219 1281 4162 
Q 984 4106 628 3988 
L 628 4550 
Q 988 4650 1302 4700 
Q 1616 4750 1894 4750 
Q 2613 4750 3031 4423 
Q 3450 4097 3450 3541 
Q 3450 3153 3228 2886 
Q 3006 2619 2597 2516 
z
" transform="scale(0.015625)"/>
       </defs>
       <use xlink:href="#DejaVuSans-33"/>
       <use xlink:href="#DejaVuSans-30" x="63.623047"/>
       <use xlink:href="#DejaVuSans-30" x="127.246094"/>
      </g>
     </g>
    </g>
    <g id="ytick_8">
     <g id="line2d_31">
      <path d="M 61.04 67.67625 
L 421.2 67.67625 
" clip-path="url(#pb8817dfb45)" style="fill: none; stroke: #b0b0b0; stroke-width: 0.8; stroke-linecap: square"/>
     </g>
     <g id="line2d_32">
      <g>
       <use xlink:href="#mf265b639ff" x="61.04" y="67.67625" style="stroke: #000000; stroke-width: 0.8"/>
      </g>
     </g>
     <g id="text_17">
      <!-- 350 -->
      <g transform="translate(29.22625 72.615234) scale(0.13 -0.13)">
       <use xlink:href="#DejaVuSans-33"/>
       <use xlink:href="#DejaVuSans-35" x="63.623047"/>
       <use xlink:href="#DejaVuSans-30" x="127.246094"/>
      </g>
     </g>
    </g>
    <g id="text_18">
     <!-- Concentration -->
     <g transform="translate(22.106719 231.894641) rotate(-90) scale(0.15 -0.15)">
      <defs>
       <path id="DejaVuSans-43" d="M 4122 4306 
L 4122 3641 
Q 3803 3938 3442 4084 
Q 3081 4231 2675 4231 
Q 1875 4231 1450 3742 
Q 1025 3253 1025 2328 
Q 1025 1406 1450 917 
Q 1875 428 2675 428 
Q 3081 428 3442 575 
Q 3803 722 4122 1019 
L 4122 359 
Q 3791 134 3420 21 
Q 3050 -91 2638 -91 
Q 1578 -91 968 557 
Q 359 1206 359 2328 
Q 359 3453 968 4101 
Q 1578 4750 2638 4750 
Q 3056 4750 3426 4639 
Q 3797 4528 4122 4306 
z
" transform="scale(0.015625)"/>
       <path id="DejaVuSans-6f" d="M 1959 3097 
Q 1497 3097 1228 2736 
Q 959 2375 959 1747 
Q 959 1119 1226 758 
Q 1494 397 1959 397 
Q 2419 397 2687 759 
Q 2956 1122 2956 1747 
Q 2956 2369 2687 2733 
Q 2419 3097 1959 3097 
z
M 1959 3584 
Q 2709 3584 3137 3096 
Q 3566 2609 3566 1747 
Q 3566 888 3137 398 
Q 2709 -91 1959 -91 
Q 1206 -91 779 398 
Q 353 888 353 1747 
Q 353 2609 779 3096 
Q 1206 3584 1959 3584 
z
" transform="scale(0.015625)"/>
       <path id="DejaVuSans-6e" d="M 3513 2113 
L 3513 0 
L 2938 0 
L 2938 2094 
Q 2938 2591 2744 2837 
Q 2550 3084 2163 3084 
Q 1697 3084 1428 2787 
Q 1159 2491 1159 1978 
L 1159 0 
L 581 0 
L 581 3500 
L 1159 3500 
L 1159 2956 
Q 1366 3272 1645 3428 
Q 1925 3584 2291 3584 
Q 2894 3584 3203 3211 
Q 3513 2838 3513 2113 
z
" transform="scale(0.015625)"/>
       <path id="DejaVuSans-63" d="M 3122 3366 
L 3122 2828 
Q 2878 2963 2633 3030 
Q 2388 3097 2138 3097 
Q 1578 3097 1268 2742 
Q 959 2388 959 1747 
Q 959 1106 1268 751 
Q 1578 397 2138 397 
Q 2388 397 2633 464 
Q 2878 531 3122 666 
L 3122 134 
Q 2881 22 2623 -34 
Q 2366 -91 2075 -91 
Q 1284 -91 818 406 
Q 353 903 353 1747 
Q 353 2603 823 3093 
Q 1294 3584 2113 3584 
Q 2378 3584 2631 3529 
Q 2884 3475 3122 3366 
z
" transform="scale(0.015625)"/>
       <path id="DejaVuSans-74" d="M 1172 4494 
L 1172 3500 
L 2356 3500 
L 2356 3053 
L 1172 3053 
L 1172 1153 
Q 1172 725 1289 603 
Q 1406 481 1766 481 
L 2356 481 
L 2356 0 
L 1766 0 
Q 1100 0 847 248 
Q 594 497 594 1153 
L 594 3053 
L 172 3053 
L 172 3500 
L 594 3500 
L 594 4494 
L 1172 4494 
z
" transform="scale(0.015625)"/>
      </defs>
      <use xlink:href="#DejaVuSans-43"/>
      <use xlink:href="#DejaVuSans-6f" x="69.824219"/>
      <use xlink:href="#DejaVuSans-6e" x="131.005859"/>
      <use xlink:href="#DejaVuSans-63" x="194.384766"/>
      <use xlink:href="#DejaVuSans-65" x="249.365234"/>
      <use xlink:href="#DejaVuSans-6e" x="310.888672"/>
      <use xlink:href="#DejaVuSans-74" x="374.267578"/>
      <use xlink:href="#DejaVuSans-72" x="413.476562"/>
      <use xlink:href="#DejaVuSans-61" x="454.589844"/>
      <use xlink:href="#DejaVuSans-74" x="515.869141"/>
      <use xlink:href="#DejaVuSans-69" x="555.078125"/>
      <use xlink:href="#DejaVuSans-6f" x="582.861328"/>
      <use xlink:href="#DejaVuSans-6e" x="644.042969"/>
     </g>
    </g>
   </g>
   <g id="line2d_33">
    <path d="M 77.410909 240.648979 
L 80.718163 248.383541 
L 84.025418 248.728199 
L 87.332672 248.822958 
L 90.639927 248.966502 
L 93.947181 248.978071 
L 97.254435 248.926189 
L 100.56169 248.963703 
L 103.868944 248.809096 
L 107.176198 248.871583 
L 110.483453 248.71484 
L 113.790707 248.750429 
L 117.097961 248.636605 
L 120.405216 248.628086 
L 123.71247 248.564282 
L 127.019725 248.517854 
L 130.326979 248.495389 
L 133.634233 248.423429 
L 136.941488 248.42993 
L 140.248742 248.343923 
L 143.555996 248.368275 
L 146.863251 248.277292 
L 150.170505 248.310471 
L 153.477759 248.221844 
L 156.785014 248.256156 
L 160.092268 248.176499 
L 163.399522 248.204693 
L 166.706777 248.140503 
L 170.014031 248.155333 
L 173.321286 248.112969 
L 176.62854 248.107379 
L 179.935794 248.092513 
L 183.243049 248.060433 
L 186.550303 248.077129 
L 189.857557 248.014753 
L 193.164812 248.064324 
L 196.472066 247.971734 
L 199.77932 248.051412 
L 203.086575 247.934403 
L 206.393829 248.035833 
L 209.701084 247.907856 
L 213.008338 248.015445 
L 216.315592 247.899315 
L 219.622847 247.988852 
L 222.930101 247.905533 
L 226.237355 247.955807 
L 229.54461 247.918345 
L 232.851864 247.917698 
L 236.159118 247.932216 
L 239.466373 247.878065 
L 242.773627 247.941999 
L 246.080882 247.843042 
L 249.388136 247.943525 
L 252.69539 247.821718 
L 256.002645 247.934094 
L 259.309899 247.825493 
L 262.617153 247.912943 
L 265.924408 247.846525 
L 269.231662 247.881686 
L 272.538916 247.871689 
L 275.846171 247.844723 
L 279.153425 247.892914 
L 282.46068 247.80958 
L 285.767934 247.904152 
L 289.075188 247.78716 
L 292.382443 247.901787 
L 295.689697 247.791619 
L 298.996951 247.884979 
L 302.304206 247.817636 
L 305.61146 247.855956 
L 308.918714 247.848004 
L 312.225969 247.820268 
L 315.533223 247.873151 
L 318.840478 247.78698 
L 322.147732 247.886405 
L 325.454986 247.76881 
L 328.762241 247.884248 
L 332.069495 247.780691 
L 335.376749 247.866502 
L 338.684004 247.811235 
L 341.991258 247.836497 
L 345.298512 247.843693 
L 348.605767 247.801186 
L 351.913021 247.86845 
L 355.220275 247.771238 
L 358.52753 247.879312 
L 361.834784 247.761097 
L 365.142039 247.873637 
L 368.449293 247.782586 
L 371.756547 247.852416 
L 375.063802 247.816322 
L 378.371056 247.820349 
L 381.67831 247.848386 
L 384.985565 247.785888 
L 388.292819 247.870007 
L 391.600073 247.761267 
L 394.907328 247.876089 
L 398.214582 247.762519 
L 401.521837 247.865253 
L 404.829091 247.781633 
" clip-path="url(#pb8817dfb45)" style="fill: none; stroke: #2ca02c; stroke-width: 1.5; stroke-linecap: square"/>
   </g>
   <g id="line2d_34">
    <path d="M 77.410909 134.204223 
L 80.718163 112.71634 
L 84.025418 97.304624 
L 87.332672 86.943979 
L 90.639927 80.288039 
L 93.947181 76.114624 
L 97.254435 73.504419 
L 100.56169 71.837563 
L 103.868944 70.743423 
L 107.176198 69.968721 
L 110.483453 69.396551 
L 113.790707 68.926233 
L 117.097961 68.527652 
L 120.405216 68.162195 
L 123.71247 67.822426 
L 127.019725 67.497008 
L 130.326979 67.180877 
L 133.634233 66.875735 
L 136.941488 66.574039 
L 140.248742 66.283956 
L 143.555996 65.995375 
L 146.863251 65.719494 
L 150.170505 65.44472 
L 153.477759 65.183217 
L 156.785014 64.923167 
L 160.092268 64.676215 
L 163.399522 64.431581 
L 166.706777 64.199085 
L 170.014031 63.970268 
L 173.321286 63.751861 
L 176.62854 63.539003 
L 179.935794 63.334118 
L 183.243049 63.137125 
L 186.550303 62.945105 
L 189.857557 62.763636 
L 193.164812 62.583838 
L 196.472066 62.417281 
L 199.77932 62.249179 
L 203.086575 62.096594 
L 206.393829 61.939883 
L 209.701084 61.79994 
L 213.008338 61.654637 
L 216.315592 61.525551 
L 219.622847 61.392081 
L 222.930101 61.272142 
L 226.237355 61.150814 
L 229.54461 61.038694 
L 232.851864 60.929393 
L 236.159118 60.824111 
L 239.466373 60.726317 
L 242.773627 60.627333 
L 246.080882 60.540021 
L 249.388136 60.447311 
L 252.69539 60.368857 
L 256.002645 60.282992 
L 259.309899 60.211133 
L 262.617153 60.133291 
L 265.924408 60.066104 
L 269.231662 59.997081 
L 272.538916 59.933364 
L 275.846171 59.873164 
L 279.153425 59.812338 
L 282.46068 59.760255 
L 285.767934 59.70242 
L 289.075188 59.656973 
L 292.382443 59.602945 
L 295.689697 59.561836 
L 298.996951 59.513178 
L 302.304206 59.474316 
L 305.61146 59.432287 
L 308.918714 59.394517 
L 312.225969 59.359337 
L 315.533223 59.322245 
L 318.840478 59.293273 
L 322.147732 59.25722 
L 325.454986 59.232912 
L 328.762241 59.199052 
L 332.069495 59.177006 
L 335.376749 59.147237 
L 338.684004 59.125563 
L 341.991258 59.101141 
L 345.298512 59.078913 
L 348.605767 59.059994 
L 351.913021 59.037094 
L 355.220275 59.022885 
L 358.52753 59.000012 
L 361.834784 58.988753 
L 365.142039 58.967436 
L 368.449293 58.956682 
L 371.756547 58.938991 
L 375.063802 58.927238 
L 378.371056 58.914151 
L 381.67831 58.900793 
L 384.985565 58.892237 
L 388.292819 58.877499 
L 391.600073 58.87241 
L 394.907328 58.857356 
L 398.214582 58.853675 
L 401.521837 58.840207 
L 404.829091 58.836182 
" clip-path="url(#pb8817dfb45)" style="fill: none; stroke: #ff7f0e; stroke-width: 1.5; stroke-linecap: square"/>
   </g>
   <g id="line2d_35">
    <path d="M 77.410909 297.197756 
L 80.718163 297.289893 
L 84.025418 297.375054 
L 87.332672 297.454233 
L 90.639927 297.528435 
L 93.947181 297.598335 
L 97.254435 297.664364 
L 100.56169 297.726821 
L 103.868944 297.785971 
L 107.176198 297.841974 
L 110.483453 297.895043 
L 113.790707 297.945298 
L 117.097961 297.992915 
L 120.405216 298.03801 
L 123.71247 298.080727 
L 127.019725 298.121186 
L 130.326979 298.159504 
L 133.634233 298.195802 
L 136.941488 298.230176 
L 140.248742 298.262743 
L 143.555996 298.293586 
L 146.863251 298.322812 
L 150.170505 298.350492 
L 153.477759 298.376728 
L 156.785014 298.401579 
L 160.092268 298.425136 
L 163.399522 298.447454 
L 166.706777 298.468614 
L 170.014031 298.488664 
L 173.321286 298.507675 
L 176.62854 298.525694 
L 179.935794 298.542778 
L 183.243049 298.558976 
L 186.550303 298.574331 
L 189.857557 298.588895 
L 193.164812 298.602698 
L 196.472066 298.615794 
L 199.77932 298.628203 
L 203.086575 298.63998 
L 206.393829 298.651135 
L 209.701084 298.661725 
L 213.008338 298.671753 
L 216.315592 298.681273 
L 219.622847 298.690287 
L 222.930101 298.698842 
L 226.237355 298.706945 
L 229.54461 298.714629 
L 232.851864 298.72191 
L 236.159118 298.728809 
L 239.466373 298.73535 
L 242.773627 298.741541 
L 246.080882 298.747414 
L 249.388136 298.752965 
L 252.69539 298.758234 
L 256.002645 298.76321 
L 259.309899 298.767932 
L 262.617153 298.772391 
L 265.924408 298.776618 
L 269.231662 298.780611 
L 272.538916 298.78439 
L 275.846171 298.787963 
L 279.153425 298.791338 
L 282.46068 298.794533 
L 285.767934 298.797542 
L 289.075188 298.800395 
L 292.382443 298.803076 
L 295.689697 298.805618 
L 298.996951 298.808005 
L 302.304206 298.810265 
L 305.61146 298.81239 
L 308.918714 298.814394 
L 312.225969 298.816283 
L 315.533223 298.818058 
L 318.840478 298.819734 
L 322.147732 298.821301 
L 325.454986 298.822786 
L 328.762241 298.824169 
L 332.069495 298.825478 
L 335.376749 298.826697 
L 338.684004 298.827848 
L 341.991258 298.828922 
L 345.298512 298.829929 
L 348.605767 298.830874 
L 351.913021 298.831753 
L 355.220275 298.832582 
L 358.52753 298.833345 
L 361.834784 298.834069 
L 365.142039 298.834732 
L 368.449293 298.83536 
L 371.756547 298.835935 
L 375.063802 298.836475 
L 378.371056 298.836974 
L 381.67831 298.837436 
L 384.985565 298.837867 
L 388.292819 298.838259 
L 391.600073 298.838629 
L 394.907328 298.83896 
L 398.214582 298.839275 
L 401.521837 298.839554 
L 404.829091 298.839818 
" clip-path="url(#pb8817dfb45)" style="fill: none; stroke: #d62728; stroke-width: 1.5; stroke-linecap: square"/>
   </g>
   <g id="line2d_36">
    <path d="M 77.410909 296.366156 
L 80.718163 296.423579 
L 84.025418 296.463151 
L 87.332672 296.491731 
L 90.639927 296.513918 
L 93.947181 296.53259 
L 97.254435 296.549454 
L 100.56169 296.565474 
L 103.868944 296.581161 
L 107.176198 296.59677 
L 110.483453 296.612398 
L 113.790707 296.628068 
L 117.097961 296.643758 
L 120.405216 296.659427 
L 123.71247 296.675025 
L 127.019725 296.690505 
L 130.326979 296.70582 
L 133.634233 296.720929 
L 136.941488 296.735797 
L 140.248742 296.750392 
L 143.555996 296.764691 
L 146.863251 296.778672 
L 150.170505 296.792318 
L 153.477759 296.805617 
L 156.785014 296.81856 
L 160.092268 296.831139 
L 163.399522 296.843352 
L 166.706777 296.855194 
L 170.014031 296.866668 
L 173.321286 296.877774 
L 176.62854 296.888515 
L 179.935794 296.898895 
L 183.243049 296.908919 
L 186.550303 296.918593 
L 189.857557 296.927923 
L 193.164812 296.936916 
L 196.472066 296.94558 
L 199.77932 296.953923 
L 203.086575 296.961952 
L 206.393829 296.969676 
L 209.701084 296.977103 
L 213.008338 296.984242 
L 216.315592 296.991101 
L 219.622847 296.997689 
L 222.930101 297.004013 
L 226.237355 297.010083 
L 229.54461 297.015906 
L 232.851864 297.021491 
L 236.159118 297.026846 
L 239.466373 297.031979 
L 242.773627 297.036897 
L 246.080882 297.041608 
L 249.388136 297.046119 
L 252.69539 297.050437 
L 256.002645 297.054571 
L 259.309899 297.058525 
L 262.617153 297.062308 
L 265.924408 297.065925 
L 269.231662 297.069383 
L 272.538916 297.072688 
L 275.846171 297.075845 
L 279.153425 297.078862 
L 282.46068 297.081741 
L 285.767934 297.084491 
L 289.075188 297.087115 
L 292.382443 297.089619 
L 295.689697 297.092007 
L 298.996951 297.094284 
L 302.304206 297.096455 
L 305.61146 297.098524 
L 308.918714 297.100495 
L 312.225969 297.102373 
L 315.533223 297.104161 
L 318.840478 297.105862 
L 322.147732 297.107482 
L 325.454986 297.109022 
L 328.762241 297.110487 
L 332.069495 297.11188 
L 335.376749 297.113204 
L 338.684004 297.114462 
L 341.991258 297.115656 
L 345.298512 297.11679 
L 348.605767 297.117867 
L 351.913021 297.118888 
L 355.220275 297.119856 
L 358.52753 297.120775 
L 361.834784 297.121645 
L 365.142039 297.122469 
L 368.449293 297.12325 
L 371.756547 297.123989 
L 375.063802 297.124688 
L 378.371056 297.125349 
L 381.67831 297.125974 
L 384.985565 297.126565 
L 388.292819 297.127123 
L 391.600073 297.127649 
L 394.907328 297.128146 
L 398.214582 297.128615 
L 401.521837 297.129057 
L 404.829091 297.129472 
" clip-path="url(#pb8817dfb45)" style="fill: none; stroke: #1f77b4; stroke-width: 1.5; stroke-linecap: square"/>
   </g>
   <g id="patch_3">
    <path d="M 61.04 310.84 
L 61.04 46.836 
" style="fill: none; stroke: #000000; stroke-width: 0.8; stroke-linejoin: miter; stroke-linecap: square"/>
   </g>
   <g id="patch_4">
    <path d="M 421.2 310.84 
L 421.2 46.836 
" style="fill: none; stroke: #000000; stroke-width: 0.8; stroke-linejoin: miter; stroke-linecap: square"/>
   </g>
   <g id="patch_5">
    <path d="M 61.04 310.84 
L 421.2 310.84 
" style="fill: none; stroke: #000000; stroke-width: 0.8; stroke-linejoin: miter; stroke-linecap: square"/>
   </g>
   <g id="patch_6">
    <path d="M 61.04 46.836 
L 421.2 46.836 
" style="fill: none; stroke: #000000; stroke-width: 0.8; stroke-linejoin: miter; stroke-linecap: square"/>
   </g>
   <g id="legend_1">
    <g id="line2d_37">
     <path d="M 67.04 24.663136 
L 74.54 24.663136 
L 82.04 24.663136 
" style="fill: none; stroke: #2ca02c; stroke-width: 1.5; stroke-linecap: square"/>
    </g>
    <g id="text_19">
     <!-- Grass -->
     <g transform="translate(94.04 29.913136) scale(0.15 -0.15)">
      <defs>
       <path id="DejaVuSans-47" d="M 3809 666 
L 3809 1919 
L 2778 1919 
L 2778 2438 
L 4434 2438 
L 4434 434 
Q 4069 175 3628 42 
Q 3188 -91 2688 -91 
Q 1594 -91 976 548 
Q 359 1188 359 2328 
Q 359 3472 976 4111 
Q 1594 4750 2688 4750 
Q 3144 4750 3555 4637 
Q 3966 4525 4313 4306 
L 4313 3634 
Q 3963 3931 3569 4081 
Q 3175 4231 2741 4231 
Q 1884 4231 1454 3753 
Q 1025 3275 1025 2328 
Q 1025 1384 1454 906 
Q 1884 428 2741 428 
Q 3075 428 3337 486 
Q 3600 544 3809 666 
z
" transform="scale(0.015625)"/>
      </defs>
      <use xlink:href="#DejaVuSans-47"/>
      <use xlink:href="#DejaVuSans-72" x="77.490234"/>
      <use xlink:href="#DejaVuSans-61" x="118.603516"/>
      <use xlink:href="#DejaVuSans-73" x="179.882812"/>
      <use xlink:href="#DejaVuSans-73" x="231.982422"/>
     </g>
    </g>
    <g id="line2d_38">
     <path d="M 158.25349 24.663136 
L 165.75349 24.663136 
L 173.25349 24.663136 
" style="fill: none; stroke: #ff7f0e; stroke-width: 1.5; stroke-linecap: square"/>
    </g>
    <g id="text_20">
     <!-- Hares -->
     <g transform="translate(185.25349 29.913136) scale(0.15 -0.15)">
      <defs>
       <path id="DejaVuSans-48" d="M 628 4666 
L 1259 4666 
L 1259 2753 
L 3553 2753 
L 3553 4666 
L 4184 4666 
L 4184 0 
L 3553 0 
L 3553 2222 
L 1259 2222 
L 1259 0 
L 628 0 
L 628 4666 
z
" transform="scale(0.015625)"/>
      </defs>
      <use xlink:href="#DejaVuSans-48"/>
      <use xlink:href="#DejaVuSans-61" x="75.195312"/>
      <use xlink:href="#DejaVuSans-72" x="136.474609"/>
      <use xlink:href="#DejaVuSans-65" x="175.337891"/>
      <use xlink:href="#DejaVuSans-73" x="236.861328"/>
     </g>
    </g>
    <g id="line2d_39">
     <path d="M 250.202917 24.663136 
L 257.702917 24.663136 
L 265.202917 24.663136 
" style="fill: none; stroke: #d62728; stroke-width: 1.5; stroke-linecap: square"/>
    </g>
    <g id="text_21">
     <!-- Deer -->
     <g transform="translate(277.202917 29.913136) scale(0.15 -0.15)">
      <defs>
       <path id="DejaVuSans-44" d="M 1259 4147 
L 1259 519 
L 2022 519 
Q 2988 519 3436 956 
Q 3884 1394 3884 2338 
Q 3884 3275 3436 3711 
Q 2988 4147 2022 4147 
L 1259 4147 
z
M 628 4666 
L 1925 4666 
Q 3281 4666 3915 4102 
Q 4550 3538 4550 2338 
Q 4550 1131 3912 565 
Q 3275 0 1925 0 
L 628 0 
L 628 4666 
z
" transform="scale(0.015625)"/>
      </defs>
      <use xlink:href="#DejaVuSans-44"/>
      <use xlink:href="#DejaVuSans-65" x="77.001953"/>
      <use xlink:href="#DejaVuSans-65" x="138.525391"/>
      <use xlink:href="#DejaVuSans-72" x="200.048828"/>
     </g>
    </g>
    <g id="line2d_40">
     <path d="M 334.982812 24.663136 
L 342.482812 24.663136 
L 349.982812 24.663136 
" style="fill: none; stroke: #1f77b4; stroke-width: 1.5; stroke-linecap: square"/>
    </g>
    <g id="text_22">
     <!-- Wolves -->
     <g transform="translate(361.982812 29.913136) scale(0.15 -0.15)">
      <defs>
       <path id="DejaVuSans-57" d="M 213 4666 
L 850 4666 
L 1831 722 
L 2809 4666 
L 3519 4666 
L 4500 722 
L 5478 4666 
L 6119 4666 
L 4947 0 
L 4153 0 
L 3169 4050 
L 2175 0 
L 1381 0 
L 213 4666 
z
" transform="scale(0.015625)"/>
       <path id="DejaVuSans-6c" d="M 603 4863 
L 1178 4863 
L 1178 0 
L 603 0 
L 603 4863 
z
" transform="scale(0.015625)"/>
       <path id="DejaVuSans-76" d="M 191 3500 
L 800 3500 
L 1894 563 
L 2988 3500 
L 3597 3500 
L 2284 0 
L 1503 0 
L 191 3500 
z
" transform="scale(0.015625)"/>
      </defs>
      <use xlink:href="#DejaVuSans-57"/>
      <use xlink:href="#DejaVuSans-6f" x="93.001953"/>
      <use xlink:href="#DejaVuSans-6c" x="154.183594"/>
      <use xlink:href="#DejaVuSans-76" x="181.966797"/>
      <use xlink:href="#DejaVuSans-65" x="241.146484"/>
      <use xlink:href="#DejaVuSans-73" x="302.669922"/>
     </g>
    </g>
   </g>
  </g>
 </g>
 <defs>
  <clipPath id="pb8817dfb45">
   <rect x="61.04" y="46.836" width="360.16" height="264.004"/>
  </clipPath>
 </defs>
</svg>
