<?xml version="1.0" encoding="utf-8" standalone="no"?>
<!DOCTYPE svg PUBLIC "-//W3C//DTD SVG 1.1//EN"
  "http://www.w3.org/Graphics/SVG/1.1/DTD/svg11.dtd">
<svg xmlns:xlink="http://www.w3.org/1999/xlink" width="432pt" height="360pt" viewBox="0 0 432 360" xmlns="http://www.w3.org/2000/svg" version="1.1">
 <metadata>
  <rdf:RDF xmlns:dc="http://purl.org/dc/elements/1.1/" xmlns:cc="http://creativecommons.org/ns#" xmlns:rdf="http://www.w3.org/1999/02/22-rdf-syntax-ns#">
   <cc:Work>
    <dc:type rdf:resource="http://purl.org/dc/dcmitype/StillImage"/>
    <dc:date>2025-06-14T08:56:29.401687</dc:date>
    <dc:format>image/svg+xml</dc:format>
    <dc:creator>
     <cc:Agent>
      <dc:title>Matplotlib v3.8.3, https://matplotlib.org/</dc:title>
     </cc:Agent>
    </dc:creator>
   </cc:Work>
  </rdf:RDF>
 </metadata>
 <defs>
  <style type="text/css">*{stroke-linejoin: round; stroke-linecap: butt}</style>
 </defs>
 <g id="figure_1">
  <g id="patch_1">
   <path d="M 0 360 
L 432 360 
L 432 0 
L 0 0 
z
" style="fill: #ffffff"/>
  </g>
  <g id="axes_1">
   <g id="patch_2">
    <path d="M 56.9 310.84 
L 421.2 310.84 
L 421.2 46.836 
L 56.9 46.836 
z
" style="fill: #ffffff"/>
   </g>
   <g id="matplotlib.axis_1">
    <g id="xtick_1">
     <g id="line2d_1">
      <path d="M 73.459091 310.84 
L 73.459091 46.836 
" clip-path="url(#p37ef0dbc1e)" style="fill: none; stroke: #b0b0b0; stroke-width: 0.8; stroke-linecap: square"/>
     </g>
     <g id="line2d_2">
      <defs>
       <path id="mc803246b2a" d="M 0 0 
L 0 3.5 
" style="stroke: #000000; stroke-width: 0.8"/>
      </defs>
      <g>
       <use xlink:href="#mc803246b2a" x="73.459091" y="310.84" style="stroke: #000000; stroke-width: 0.8"/>
      </g>
     </g>
     <g id="text_1">
      <!-- 0 -->
      <g transform="translate(69.323466 327.717969) scale(0.13 -0.13)">
       <defs>
        <path id="DejaVuSans-30" d="M 2034 4250 
Q 1547 4250 1301 3770 
Q 1056 3291 1056 2328 
Q 1056 1369 1301 889 
Q 1547 409 2034 409 
Q 2525 409 2770 889 
Q 3016 1369 3016 2328 
Q 3016 3291 2770 3770 
Q 2525 4250 2034 4250 
z
M 2034 4750 
Q 2819 4750 3233 4129 
Q 3647 3509 3647 2328 
Q 3647 1150 3233 529 
Q 2819 -91 2034 -91 
Q 1250 -91 836 529 
Q 422 1150 422 2328 
Q 422 3509 836 4129 
Q 1250 4750 2034 4750 
z
" transform="scale(0.015625)"/>
       </defs>
       <use xlink:href="#DejaVuSans-30"/>
      </g>
     </g>
    </g>
    <g id="xtick_2">
     <g id="line2d_3">
      <path d="M 117.616667 310.84 
L 117.616667 46.836 
" clip-path="url(#p37ef0dbc1e)" style="fill: none; stroke: #b0b0b0; stroke-width: 0.8; stroke-linecap: square"/>
     </g>
     <g id="line2d_4">
      <g>
       <use xlink:href="#mc803246b2a" x="117.616667" y="310.84" style="stroke: #000000; stroke-width: 0.8"/>
      </g>
     </g>
     <g id="text_2">
      <!-- 2 -->
      <g transform="translate(113.481042 327.717969) scale(0.13 -0.13)">
       <defs>
        <path id="DejaVuSans-32" d="M 1228 531 
L 3431 531 
L 3431 0 
L 469 0 
L 469 531 
Q 828 903 1448 1529 
Q 2069 2156 2228 2338 
Q 2531 2678 2651 2914 
Q 2772 3150 2772 3378 
Q 2772 3750 2511 3984 
Q 2250 4219 1831 4219 
Q 1534 4219 1204 4116 
Q 875 4013 500 3803 
L 500 4441 
Q 881 4594 1212 4672 
Q 1544 4750 1819 4750 
Q 2544 4750 2975 4387 
Q 3406 4025 3406 3419 
Q 3406 3131 3298 2873 
Q 3191 2616 2906 2266 
Q 2828 2175 2409 1742 
Q 1991 1309 1228 531 
z
" transform="scale(0.015625)"/>
       </defs>
       <use xlink:href="#DejaVuSans-32"/>
      </g>
     </g>
    </g>
    <g id="xtick_3">
     <g id="line2d_5">
      <path d="M 161.774242 310.84 
L 161.774242 46.836 
" clip-path="url(#p37ef0dbc1e)" style="fill: none; stroke: #b0b0b0; stroke-width: 0.8; stroke-linecap: square"/>
     </g>
     <g id="line2d_6">
      <g>
       <use xlink:href="#mc803246b2a" x="161.774242" y="310.84" style="stroke: #000000; stroke-width: 0.8"/>
      </g>
     </g>
     <g id="text_3">
      <!-- 4 -->
      <g transform="translate(157.638617 327.717969) scale(0.13 -0.13)">
       <defs>
        <path id="DejaVuSans-34" d="M 2419 4116 
L 825 1625 
L 2419 1625 
L 2419 4116 
z
M 2253 4666 
L 3047 4666 
L 3047 1625 
L 3713 1625 
L 3713 1100 
L 3047 1100 
L 3047 0 
L 2419 0 
L 2419 1100 
L 313 1100 
L 313 1709 
L 2253 4666 
z
" transform="scale(0.015625)"/>
       </defs>
       <use xlink:href="#DejaVuSans-34"/>
      </g>
     </g>
    </g>
    <g id="xtick_4">
     <g id="line2d_7">
      <path d="M 205.931818 310.84 
L 205.931818 46.836 
" clip-path="url(#p37ef0dbc1e)" style="fill: none; stroke: #b0b0b0; stroke-width: 0.8; stroke-linecap: square"/>
     </g>
     <g id="line2d_8">
      <g>
       <use xlink:href="#mc803246b2a" x="205.931818" y="310.84" style="stroke: #000000; stroke-width: 0.8"/>
      </g>
     </g>
     <g id="text_4">
      <!-- 6 -->
      <g transform="translate(201.796193 327.717969) scale(0.13 -0.13)">
       <defs>
        <path id="DejaVuSans-36" d="M 2113 2584 
Q 1688 2584 1439 2293 
Q 1191 2003 1191 1497 
Q 1191 994 1439 701 
Q 1688 409 2113 409 
Q 2538 409 2786 701 
Q 3034 994 3034 1497 
Q 3034 2003 2786 2293 
Q 2538 2584 2113 2584 
z
M 3366 4563 
L 3366 3988 
Q 3128 4100 2886 4159 
Q 2644 4219 2406 4219 
Q 1781 4219 1451 3797 
Q 1122 3375 1075 2522 
Q 1259 2794 1537 2939 
Q 1816 3084 2150 3084 
Q 2853 3084 3261 2657 
Q 3669 2231 3669 1497 
Q 3669 778 3244 343 
Q 2819 -91 2113 -91 
Q 1303 -91 875 529 
Q 447 1150 447 2328 
Q 447 3434 972 4092 
Q 1497 4750 2381 4750 
Q 2619 4750 2861 4703 
Q 3103 4656 3366 4563 
z
" transform="scale(0.015625)"/>
       </defs>
       <use xlink:href="#DejaVuSans-36"/>
      </g>
     </g>
    </g>
    <g id="xtick_5">
     <g id="line2d_9">
      <path d="M 250.089394 310.84 
L 250.089394 46.836 
" clip-path="url(#p37ef0dbc1e)" style="fill: none; stroke: #b0b0b0; stroke-width: 0.8; stroke-linecap: square"/>
     </g>
     <g id="line2d_10">
      <g>
       <use xlink:href="#mc803246b2a" x="250.089394" y="310.84" style="stroke: #000000; stroke-width: 0.8"/>
      </g>
     </g>
     <g id="text_5">
      <!-- 8 -->
      <g transform="translate(245.953769 327.717969) scale(0.13 -0.13)">
       <defs>
        <path id="DejaVuSans-38" d="M 2034 2216 
Q 1584 2216 1326 1975 
Q 1069 1734 1069 1313 
Q 1069 891 1326 650 
Q 1584 409 2034 409 
Q 2484 409 2743 651 
Q 3003 894 3003 1313 
Q 3003 1734 2745 1975 
Q 2488 2216 2034 2216 
z
M 1403 2484 
Q 997 2584 770 2862 
Q 544 3141 544 3541 
Q 544 4100 942 4425 
Q 1341 4750 2034 4750 
Q 2731 4750 3128 4425 
Q 3525 4100 3525 3541 
Q 3525 3141 3298 2862 
Q 3072 2584 2669 2484 
Q 3125 2378 3379 2068 
Q 3634 1759 3634 1313 
Q 3634 634 3220 271 
Q 2806 -91 2034 -91 
Q 1263 -91 848 271 
Q 434 634 434 1313 
Q 434 1759 690 2068 
Q 947 2378 1403 2484 
z
M 1172 3481 
Q 1172 3119 1398 2916 
Q 1625 2713 2034 2713 
Q 2441 2713 2670 2916 
Q 2900 3119 2900 3481 
Q 2900 3844 2670 4047 
Q 2441 4250 2034 4250 
Q 1625 4250 1398 4047 
Q 1172 3844 1172 3481 
z
" transform="scale(0.015625)"/>
       </defs>
       <use xlink:href="#DejaVuSans-38"/>
      </g>
     </g>
    </g>
    <g id="xtick_6">
     <g id="line2d_11">
      <path d="M 294.24697 310.84 
L 294.24697 46.836 
" clip-path="url(#p37ef0dbc1e)" style="fill: none; stroke: #b0b0b0; stroke-width: 0.8; stroke-linecap: square"/>
     </g>
     <g id="line2d_12">
      <g>
       <use xlink:href="#mc803246b2a" x="294.24697" y="310.84" style="stroke: #000000; stroke-width: 0.8"/>
      </g>
     </g>
     <g id="text_6">
      <!-- 10 -->
      <g transform="translate(285.97572 327.717969) scale(0.13 -0.13)">
       <defs>
        <path id="DejaVuSans-31" d="M 794 531 
L 1825 531 
L 1825 4091 
L 703 3866 
L 703 4441 
L 1819 4666 
L 2450 4666 
L 2450 531 
L 3481 531 
L 3481 0 
L 794 0 
L 794 531 
z
" transform="scale(0.015625)"/>
       </defs>
       <use xlink:href="#DejaVuSans-31"/>
       <use xlink:href="#DejaVuSans-30" x="63.623047"/>
      </g>
     </g>
    </g>
    <g id="xtick_7">
     <g id="line2d_13">
      <path d="M 338.404545 310.84 
L 338.404545 46.836 
" clip-path="url(#p37ef0dbc1e)" style="fill: none; stroke: #b0b0b0; stroke-width: 0.8; stroke-linecap: square"/>
     </g>
     <g id="line2d_14">
      <g>
       <use xlink:href="#mc803246b2a" x="338.404545" y="310.84" style="stroke: #000000; stroke-width: 0.8"/>
      </g>
     </g>
     <g id="text_7">
      <!-- 12 -->
      <g transform="translate(330.133295 327.717969) scale(0.13 -0.13)">
       <use xlink:href="#DejaVuSans-31"/>
       <use xlink:href="#DejaVuSans-32" x="63.623047"/>
      </g>
     </g>
    </g>
    <g id="xtick_8">
     <g id="line2d_15">
      <path d="M 382.562121 310.84 
L 382.562121 46.836 
" clip-path="url(#p37ef0dbc1e)" style="fill: none; stroke: #b0b0b0; stroke-width: 0.8; stroke-linecap: square"/>
     </g>
     <g id="line2d_16">
      <g>
       <use xlink:href="#mc803246b2a" x="382.562121" y="310.84" style="stroke: #000000; stroke-width: 0.8"/>
      </g>
     </g>
     <g id="text_8">
      <!-- 14 -->
      <g transform="translate(374.290871 327.717969) scale(0.13 -0.13)">
       <use xlink:href="#DejaVuSans-31"/>
       <use xlink:href="#DejaVuSans-34" x="63.623047"/>
      </g>
     </g>
    </g>
    <g id="text_9">
     <!-- Time (years) -->
     <g transform="translate(191.823437 345.819219) scale(0.15 -0.15)">
      <defs>
       <path id="DejaVuSans-54" d="M -19 4666 
L 3928 4666 
L 3928 4134 
L 2272 4134 
L 2272 0 
L 1638 0 
L 1638 4134 
L -19 4134 
L -19 4666 
z
" transform="scale(0.015625)"/>
       <path id="DejaVuSans-69" d="M 603 3500 
L 1178 3500 
L 1178 0 
L 603 0 
L 603 3500 
z
M 603 4863 
L 1178 4863 
L 1178 4134 
L 603 4134 
L 603 4863 
z
" transform="scale(0.015625)"/>
       <path id="DejaVuSans-6d" d="M 3328 2828 
Q 3544 3216 3844 3400 
Q 4144 3584 4550 3584 
Q 5097 3584 5394 3201 
Q 5691 2819 5691 2113 
L 5691 0 
L 5113 0 
L 5113 2094 
Q 5113 2597 4934 2840 
Q 4756 3084 4391 3084 
Q 3944 3084 3684 2787 
Q 3425 2491 3425 1978 
L 3425 0 
L 2847 0 
L 2847 2094 
Q 2847 2600 2669 2842 
Q 2491 3084 2119 3084 
Q 1678 3084 1418 2786 
Q 1159 2488 1159 1978 
L 1159 0 
L 581 0 
L 581 3500 
L 1159 3500 
L 1159 2956 
Q 1356 3278 1631 3431 
Q 1906 3584 2284 3584 
Q 2666 3584 2933 3390 
Q 3200 3197 3328 2828 
z
" transform="scale(0.015625)"/>
       <path id="DejaVuSans-65" d="M 3597 1894 
L 3597 1613 
L 953 1613 
Q 991 1019 1311 708 
Q 1631 397 2203 397 
Q 2534 397 2845 478 
Q 3156 559 3463 722 
L 3463 178 
Q 3153 47 2828 -22 
Q 2503 -91 2169 -91 
Q 1331 -91 842 396 
Q 353 884 353 1716 
Q 353 2575 817 3079 
Q 1281 3584 2069 3584 
Q 2775 3584 3186 3129 
Q 3597 2675 3597 1894 
z
M 3022 2063 
Q 3016 2534 2758 2815 
Q 2500 3097 2075 3097 
Q 1594 3097 1305 2825 
Q 1016 2553 972 2059 
L 3022 2063 
z
" transform="scale(0.015625)"/>
       <path id="DejaVuSans-20" transform="scale(0.015625)"/>
       <path id="DejaVuSans-28" d="M 1984 4856 
Q 1566 4138 1362 3434 
Q 1159 2731 1159 2009 
Q 1159 1288 1364 580 
Q 1569 -128 1984 -844 
L 1484 -844 
Q 1016 -109 783 600 
Q 550 1309 550 2009 
Q 550 2706 781 3412 
Q 1013 4119 1484 4856 
L 1984 4856 
z
" transform="scale(0.015625)"/>
       <path id="DejaVuSans-79" d="M 2059 -325 
Q 1816 -950 1584 -1140 
Q 1353 -1331 966 -1331 
L 506 -1331 
L 506 -850 
L 844 -850 
Q 1081 -850 1212 -737 
Q 1344 -625 1503 -206 
L 1606 56 
L 191 3500 
L 800 3500 
L 1894 763 
L 2988 3500 
L 3597 3500 
L 2059 -325 
z
" transform="scale(0.015625)"/>
       <path id="DejaVuSans-61" d="M 2194 1759 
Q 1497 1759 1228 1600 
Q 959 1441 959 1056 
Q 959 750 1161 570 
Q 1363 391 1709 391 
Q 2188 391 2477 730 
Q 2766 1069 2766 1631 
L 2766 1759 
L 2194 1759 
z
M 3341 1997 
L 3341 0 
L 2766 0 
L 2766 531 
Q 2569 213 2275 61 
Q 1981 -91 1556 -91 
Q 1019 -91 701 211 
Q 384 513 384 1019 
Q 384 1609 779 1909 
Q 1175 2209 1959 2209 
L 2766 2209 
L 2766 2266 
Q 2766 2663 2505 2880 
Q 2244 3097 1772 3097 
Q 1472 3097 1187 3025 
Q 903 2953 641 2809 
L 641 3341 
Q 956 3463 1253 3523 
Q 1550 3584 1831 3584 
Q 2591 3584 2966 3190 
Q 3341 2797 3341 1997 
z
" transform="scale(0.015625)"/>
       <path id="DejaVuSans-72" d="M 2631 2963 
Q 2534 3019 2420 3045 
Q 2306 3072 2169 3072 
Q 1681 3072 1420 2755 
Q 1159 2438 1159 1844 
L 1159 0 
L 581 0 
L 581 3500 
L 1159 3500 
L 1159 2956 
Q 1341 3275 1631 3429 
Q 1922 3584 2338 3584 
Q 2397 3584 2469 3576 
Q 2541 3569 2628 3553 
L 2631 2963 
z
" transform="scale(0.015625)"/>
       <path id="DejaVuSans-73" d="M 2834 3397 
L 2834 2853 
Q 2591 2978 2328 3040 
Q 2066 3103 1784 3103 
Q 1356 3103 1142 2972 
Q 928 2841 928 2578 
Q 928 2378 1081 2264 
Q 1234 2150 1697 2047 
L 1894 2003 
Q 2506 1872 2764 1633 
Q 3022 1394 3022 966 
Q 3022 478 2636 193 
Q 2250 -91 1575 -91 
Q 1294 -91 989 -36 
Q 684 19 347 128 
L 347 722 
Q 666 556 975 473 
Q 1284 391 1588 391 
Q 1994 391 2212 530 
Q 2431 669 2431 922 
Q 2431 1156 2273 1281 
Q 2116 1406 1581 1522 
L 1381 1569 
Q 847 1681 609 1914 
Q 372 2147 372 2553 
Q 372 3047 722 3315 
Q 1072 3584 1716 3584 
Q 2034 3584 2315 3537 
Q 2597 3491 2834 3397 
z
" transform="scale(0.015625)"/>
       <path id="DejaVuSans-29" d="M 513 4856 
L 1013 4856 
Q 1481 4119 1714 3412 
Q 1947 2706 1947 2009 
Q 1947 1309 1714 600 
Q 1481 -109 1013 -844 
L 513 -844 
Q 928 -128 1133 580 
Q 1338 1288 1338 2009 
Q 1338 2731 1133 3434 
Q 928 4138 513 4856 
z
" transform="scale(0.015625)"/>
      </defs>
      <use xlink:href="#DejaVuSans-54"/>
      <use xlink:href="#DejaVuSans-69" x="57.958984"/>
      <use xlink:href="#DejaVuSans-6d" x="85.742188"/>
      <use xlink:href="#DejaVuSans-65" x="183.154297"/>
      <use xlink:href="#DejaVuSans-20" x="244.677734"/>
      <use xlink:href="#DejaVuSans-28" x="276.464844"/>
      <use xlink:href="#DejaVuSans-79" x="315.478516"/>
      <use xlink:href="#DejaVuSans-65" x="374.658203"/>
      <use xlink:href="#DejaVuSans-61" x="436.181641"/>
      <use xlink:href="#DejaVuSans-72" x="497.460938"/>
      <use xlink:href="#DejaVuSans-73" x="538.574219"/>
      <use xlink:href="#DejaVuSans-29" x="590.673828"/>
     </g>
    </g>
   </g>
   <g id="matplotlib.axis_2">
    <g id="ytick_1">
     <g id="line2d_17">
      <path d="M 56.9 309.053986 
L 421.2 309.053986 
" clip-path="url(#p37ef0dbc1e)" style="fill: none; stroke: #b0b0b0; stroke-width: 0.8; stroke-linecap: square"/>
     </g>
     <g id="line2d_18">
      <defs>
       <path id="m1bd7514f21" d="M 0 0 
L -3.5 0 
" style="stroke: #000000; stroke-width: 0.8"/>
      </defs>
      <g>
       <use xlink:href="#m1bd7514f21" x="56.9" y="309.053986" style="stroke: #000000; stroke-width: 0.8"/>
      </g>
     </g>
     <g id="text_10">
      <!-- 0.0 -->
      <g transform="translate(29.225938 313.99297) scale(0.13 -0.13)">
       <defs>
        <path id="DejaVuSans-2e" d="M 684 794 
L 1344 794 
L 1344 0 
L 684 0 
L 684 794 
z
" transform="scale(0.015625)"/>
       </defs>
       <use xlink:href="#DejaVuSans-30"/>
       <use xlink:href="#DejaVuSans-2e" x="63.623047"/>
       <use xlink:href="#DejaVuSans-30" x="95.410156"/>
      </g>
     </g>
    </g>
    <g id="ytick_2">
     <g id="line2d_19">
      <path d="M 56.9 259.010425 
L 421.2 259.010425 
" clip-path="url(#p37ef0dbc1e)" style="fill: none; stroke: #b0b0b0; stroke-width: 0.8; stroke-linecap: square"/>
     </g>
     <g id="line2d_20">
      <g>
       <use xlink:href="#m1bd7514f21" x="56.9" y="259.010425" style="stroke: #000000; stroke-width: 0.8"/>
      </g>
     </g>
     <g id="text_11">
      <!-- 0.2 -->
      <g transform="translate(29.225938 263.949409) scale(0.13 -0.13)">
       <use xlink:href="#DejaVuSans-30"/>
       <use xlink:href="#DejaVuSans-2e" x="63.623047"/>
       <use xlink:href="#DejaVuSans-32" x="95.410156"/>
      </g>
     </g>
    </g>
    <g id="ytick_3">
     <g id="line2d_21">
      <path d="M 56.9 208.966864 
L 421.2 208.966864 
" clip-path="url(#p37ef0dbc1e)" style="fill: none; stroke: #b0b0b0; stroke-width: 0.8; stroke-linecap: square"/>
     </g>
     <g id="line2d_22">
      <g>
       <use xlink:href="#m1bd7514f21" x="56.9" y="208.966864" style="stroke: #000000; stroke-width: 0.8"/>
      </g>
     </g>
     <g id="text_12">
      <!-- 0.4 -->
      <g transform="translate(29.225938 213.905849) scale(0.13 -0.13)">
       <use xlink:href="#DejaVuSans-30"/>
       <use xlink:href="#DejaVuSans-2e" x="63.623047"/>
       <use xlink:href="#DejaVuSans-34" x="95.410156"/>
      </g>
     </g>
    </g>
    <g id="ytick_4">
     <g id="line2d_23">
      <path d="M 56.9 158.923303 
L 421.2 158.923303 
" clip-path="url(#p37ef0dbc1e)" style="fill: none; stroke: #b0b0b0; stroke-width: 0.8; stroke-linecap: square"/>
     </g>
     <g id="line2d_24">
      <g>
       <use xlink:href="#m1bd7514f21" x="56.9" y="158.923303" style="stroke: #000000; stroke-width: 0.8"/>
      </g>
     </g>
     <g id="text_13">
      <!-- 0.6 -->
      <g transform="translate(29.225938 163.862288) scale(0.13 -0.13)">
       <use xlink:href="#DejaVuSans-30"/>
       <use xlink:href="#DejaVuSans-2e" x="63.623047"/>
       <use xlink:href="#DejaVuSans-36" x="95.410156"/>
      </g>
     </g>
    </g>
    <g id="ytick_5">
     <g id="line2d_25">
      <path d="M 56.9 108.879743 
L 421.2 108.879743 
" clip-path="url(#p37ef0dbc1e)" style="fill: none; stroke: #b0b0b0; stroke-width: 0.8; stroke-linecap: square"/>
     </g>
     <g id="line2d_26">
      <g>
       <use xlink:href="#m1bd7514f21" x="56.9" y="108.879743" style="stroke: #000000; stroke-width: 0.8"/>
      </g>
     </g>
     <g id="text_14">
      <!-- 0.8 -->
      <g transform="translate(29.225938 113.818727) scale(0.13 -0.13)">
       <use xlink:href="#DejaVuSans-30"/>
       <use xlink:href="#DejaVuSans-2e" x="63.623047"/>
       <use xlink:href="#DejaVuSans-38" x="95.410156"/>
      </g>
     </g>
    </g>
    <g id="ytick_6">
     <g id="line2d_27">
      <path d="M 56.9 58.836182 
L 421.2 58.836182 
" clip-path="url(#p37ef0dbc1e)" style="fill: none; stroke: #b0b0b0; stroke-width: 0.8; stroke-linecap: square"/>
     </g>
     <g id="line2d_28">
      <g>
       <use xlink:href="#m1bd7514f21" x="56.9" y="58.836182" style="stroke: #000000; stroke-width: 0.8"/>
      </g>
     </g>
     <g id="text_15">
      <!-- 1.0 -->
      <g transform="translate(29.225938 63.775166) scale(0.13 -0.13)">
       <use xlink:href="#DejaVuSans-31"/>
       <use xlink:href="#DejaVuSans-2e" x="63.623047"/>
       <use xlink:href="#DejaVuSans-30" x="95.410156"/>
      </g>
     </g>
    </g>
    <g id="text_16">
     <!-- Concentration -->
     <g transform="translate(22.106406 231.894641) rotate(-90) scale(0.15 -0.15)">
      <defs>
       <path id="DejaVuSans-43" d="M 4122 4306 
L 4122 3641 
Q 3803 3938 3442 4084 
Q 3081 4231 2675 4231 
Q 1875 4231 1450 3742 
Q 1025 3253 1025 2328 
Q 1025 1406 1450 917 
Q 1875 428 2675 428 
Q 3081 428 3442 575 
Q 3803 722 4122 1019 
L 4122 359 
Q 3791 134 3420 21 
Q 3050 -91 2638 -91 
Q 1578 -91 968 557 
Q 359 1206 359 2328 
Q 359 3453 968 4101 
Q 1578 4750 2638 4750 
Q 3056 4750 3426 4639 
Q 3797 4528 4122 4306 
z
" transform="scale(0.015625)"/>
       <path id="DejaVuSans-6f" d="M 1959 3097 
Q 1497 3097 1228 2736 
Q 959 2375 959 1747 
Q 959 1119 1226 758 
Q 1494 397 1959 397 
Q 2419 397 2687 759 
Q 2956 1122 2956 1747 
Q 2956 2369 2687 2733 
Q 2419 3097 1959 3097 
z
M 1959 3584 
Q 2709 3584 3137 3096 
Q 3566 2609 3566 1747 
Q 3566 888 3137 398 
Q 2709 -91 1959 -91 
Q 1206 -91 779 398 
Q 353 888 353 1747 
Q 353 2609 779 3096 
Q 1206 3584 1959 3584 
z
" transform="scale(0.015625)"/>
       <path id="DejaVuSans-6e" d="M 3513 2113 
L 3513 0 
L 2938 0 
L 2938 2094 
Q 2938 2591 2744 2837 
Q 2550 3084 2163 3084 
Q 1697 3084 1428 2787 
Q 1159 2491 1159 1978 
L 1159 0 
L 581 0 
L 581 3500 
L 1159 3500 
L 1159 2956 
Q 1366 3272 1645 3428 
Q 1925 3584 2291 3584 
Q 2894 3584 3203 3211 
Q 3513 2838 3513 2113 
z
" transform="scale(0.015625)"/>
       <path id="DejaVuSans-63" d="M 3122 3366 
L 3122 2828 
Q 2878 2963 2633 3030 
Q 2388 3097 2138 3097 
Q 1578 3097 1268 2742 
Q 959 2388 959 1747 
Q 959 1106 1268 751 
Q 1578 397 2138 397 
Q 2388 397 2633 464 
Q 2878 531 3122 666 
L 3122 134 
Q 2881 22 2623 -34 
Q 2366 -91 2075 -91 
Q 1284 -91 818 406 
Q 353 903 353 1747 
Q 353 2603 823 3093 
Q 1294 3584 2113 3584 
Q 2378 3584 2631 3529 
Q 2884 3475 3122 3366 
z
" transform="scale(0.015625)"/>
       <path id="DejaVuSans-74" d="M 1172 4494 
L 1172 3500 
L 2356 3500 
L 2356 3053 
L 1172 3053 
L 1172 1153 
Q 1172 725 1289 603 
Q 1406 481 1766 481 
L 2356 481 
L 2356 0 
L 1766 0 
Q 1100 0 847 248 
Q 594 497 594 1153 
L 594 3053 
L 172 3053 
L 172 3500 
L 594 3500 
L 594 4494 
L 1172 4494 
z
" transform="scale(0.015625)"/>
      </defs>
      <use xlink:href="#DejaVuSans-43"/>
      <use xlink:href="#DejaVuSans-6f" x="69.824219"/>
      <use xlink:href="#DejaVuSans-6e" x="131.005859"/>
      <use xlink:href="#DejaVuSans-63" x="194.384766"/>
      <use xlink:href="#DejaVuSans-65" x="249.365234"/>
      <use xlink:href="#DejaVuSans-6e" x="310.888672"/>
      <use xlink:href="#DejaVuSans-74" x="374.267578"/>
      <use xlink:href="#DejaVuSans-72" x="413.476562"/>
      <use xlink:href="#DejaVuSans-61" x="454.589844"/>
      <use xlink:href="#DejaVuSans-74" x="515.869141"/>
      <use xlink:href="#DejaVuSans-69" x="555.078125"/>
      <use xlink:href="#DejaVuSans-6f" x="582.861328"/>
      <use xlink:href="#DejaVuSans-6e" x="644.042969"/>
     </g>
    </g>
   </g>
   <g id="line2d_29">
    <path d="M 73.459091 58.836182 
L 76.804362 91.158842 
L 80.149633 92.599165 
L 83.494904 92.995172 
L 86.840174 93.595026 
L 90.185445 93.64339 
L 93.530716 93.426559 
L 96.875987 93.583343 
L 100.221258 92.937235 
L 103.566529 93.198368 
L 106.9118 92.543346 
L 110.257071 92.692063 
L 113.602342 92.216406 
L 116.947612 92.180789 
L 120.292883 91.914169 
L 123.638154 91.720127 
L 126.983425 91.626267 
L 130.328696 91.325526 
L 133.673967 91.352713 
L 137.019238 90.993272 
L 140.364509 91.095056 
L 143.70978 90.714823 
L 147.055051 90.853492 
L 150.400321 90.483104 
L 153.745592 90.62651 
L 157.090863 90.29361 
L 160.436134 90.411449 
L 163.781405 90.143182 
L 167.126676 90.205174 
L 170.471947 90.028116 
L 173.817218 90.004778 
L 177.162489 89.942633 
L 180.507759 89.808589 
L 183.85303 89.878345 
L 187.198301 89.617694 
L 190.543572 89.824835 
L 193.888843 89.437918 
L 197.234114 89.770879 
L 200.579385 89.281909 
L 203.924656 89.705774 
L 207.269927 89.17096 
L 210.615197 89.620577 
L 213.960468 89.135263 
L 217.305739 89.50945 
L 220.65101 89.161246 
L 223.996281 89.371356 
L 227.341552 89.214786 
L 230.686823 89.212103 
L 234.032094 89.272752 
L 237.377365 89.046476 
L 240.722635 89.313641 
L 244.067906 88.900114 
L 247.413177 89.320021 
L 250.758448 88.810992 
L 254.103719 89.280614 
L 257.44899 88.826762 
L 260.794261 89.192227 
L 264.139532 88.91465 
L 267.484803 89.061606 
L 270.830073 89.019811 
L 274.175344 88.907142 
L 277.520615 89.108512 
L 280.865886 88.760276 
L 284.211157 89.155481 
L 287.556428 88.666576 
L 290.901699 89.145604 
L 294.24697 88.685199 
L 297.592241 89.075365 
L 300.937511 88.793922 
L 304.282782 88.954081 
L 307.628053 88.920832 
L 310.973324 88.804944 
L 314.318595 89.025922 
L 317.663866 88.665831 
L 321.009137 89.081318 
L 324.354408 88.589892 
L 327.699679 89.072306 
L 331.044949 88.639531 
L 334.39022 88.998153 
L 337.735491 88.767171 
L 341.080762 88.872764 
L 344.426033 88.902818 
L 347.771304 88.725199 
L 351.116575 89.006278 
L 354.461846 88.600044 
L 357.807117 89.051678 
L 361.152388 88.557657 
L 364.497658 89.027964 
L 367.842929 88.64745 
L 371.1882 88.939288 
L 374.533471 88.788429 
L 377.878742 88.805283 
L 381.224013 88.922427 
L 384.569284 88.661269 
L 387.914555 89.012788 
L 391.259826 88.558374 
L 394.605096 89.038209 
L 397.950367 88.563595 
L 401.295638 88.99293 
L 404.640909 88.643471 
" clip-path="url(#p37ef0dbc1e)" style="fill: none; stroke: #2ca02c; stroke-width: 1.5; stroke-linecap: square"/>
   </g>
   <g id="line2d_30">
    <path d="M 73.459091 259.010425 
L 76.804362 252.544993 
L 80.149633 247.907803 
L 83.494904 244.790416 
L 86.840174 242.787728 
L 90.185445 241.532 
L 93.530716 240.746623 
L 96.875987 240.245087 
L 100.221258 239.915874 
L 103.566529 239.682776 
L 106.9118 239.510617 
L 110.257071 239.369105 
L 113.602342 239.249177 
L 116.947612 239.139215 
L 120.292883 239.036983 
L 123.638154 238.939069 
L 126.983425 238.843949 
L 130.328696 238.752136 
L 133.673967 238.661359 
L 137.019238 238.574077 
L 140.364509 238.487247 
L 143.70978 238.404238 
L 147.055051 238.321562 
L 150.400321 238.242879 
L 153.745592 238.164633 
L 157.090863 238.090328 
L 160.436134 238.016721 
L 163.781405 237.946766 
L 167.126676 237.877918 
L 170.471947 237.812202 
L 173.817218 237.748156 
L 177.162489 237.686508 
L 180.507759 237.627235 
L 183.85303 237.569459 
L 187.198301 237.514857 
L 190.543572 237.460758 
L 193.888843 237.410643 
L 197.234114 237.360064 
L 200.579385 237.314153 
L 203.924656 237.267 
L 207.269927 237.224893 
L 210.615197 237.181174 
L 213.960468 237.142333 
L 217.305739 237.102174 
L 220.65101 237.066086 
L 223.996281 237.02958 
L 227.341552 236.995844 
L 230.686823 236.962957 
L 234.032094 236.931279 
L 237.377365 236.901854 
L 240.722635 236.872071 
L 244.067906 236.8458 
L 247.413177 236.817905 
L 250.758448 236.794299 
L 254.103719 236.768463 
L 257.44899 236.746841 
L 260.794261 236.72342 
L 264.139532 236.703204 
L 267.484803 236.682436 
L 270.830073 236.663264 
L 274.175344 236.645151 
L 277.520615 236.626849 
L 280.865886 236.611178 
L 284.211157 236.593776 
L 287.556428 236.580102 
L 290.901699 236.563846 
L 294.24697 236.551476 
L 297.592241 236.536836 
L 300.937511 236.525143 
L 304.282782 236.512497 
L 307.628053 236.501132 
L 310.973324 236.490547 
L 314.318595 236.479386 
L 317.663866 236.470669 
L 321.009137 236.459821 
L 324.354408 236.452507 
L 327.699679 236.442319 
L 331.044949 236.435686 
L 334.39022 236.426729 
L 337.735491 236.420207 
L 341.080762 236.412859 
L 344.426033 236.406171 
L 347.771304 236.400478 
L 351.116575 236.393588 
L 354.461846 236.389313 
L 357.807117 236.38243 
L 361.152388 236.379043 
L 364.497658 236.372629 
L 367.842929 236.369393 
L 371.1882 236.36407 
L 374.533471 236.360534 
L 377.878742 236.356596 
L 381.224013 236.352577 
L 384.569284 236.350002 
L 387.914555 236.345568 
L 391.259826 236.344037 
L 394.605096 236.339507 
L 397.950367 236.338399 
L 401.295638 236.334347 
L 404.640909 236.333136 
" clip-path="url(#p37ef0dbc1e)" style="fill: none; stroke: #ff7f0e; stroke-width: 1.5; stroke-linecap: square"/>
   </g>
   <g id="line2d_31">
    <path d="M 73.459091 259.010425 
L 76.804362 260.396569 
L 80.149633 261.677765 
L 83.494904 262.868966 
L 86.840174 263.985283 
L 90.185445 265.036882 
L 93.530716 266.030258 
L 96.875987 266.969878 
L 100.221258 267.859753 
L 103.566529 268.702289 
L 106.9118 269.500676 
L 110.257071 270.256734 
L 113.602342 270.973096 
L 116.947612 271.651523 
L 120.292883 272.294174 
L 123.638154 272.90285 
L 126.983425 273.479324 
L 130.328696 274.025397 
L 133.673967 274.542538 
L 137.019238 275.032491 
L 140.364509 275.496493 
L 143.70978 275.936184 
L 147.055051 276.35262 
L 150.400321 276.747311 
L 153.745592 277.121179 
L 157.090863 277.475584 
L 160.436134 277.811351 
L 163.781405 278.129678 
L 167.126676 278.431329 
L 170.471947 278.717329 
L 173.817218 278.988417 
L 177.162489 279.245432 
L 180.507759 279.48912 
L 183.85303 279.720128 
L 187.198301 279.939233 
L 190.543572 280.146891 
L 193.888843 280.343918 
L 197.234114 280.530596 
L 200.579385 280.707778 
L 203.924656 280.875597 
L 207.269927 281.034917 
L 210.615197 281.185779 
L 213.960468 281.329003 
L 217.305739 281.464616 
L 220.65101 281.593323 
L 223.996281 281.715217 
L 227.341552 281.830828 
L 230.686823 281.940366 
L 234.032094 282.044161 
L 237.377365 282.142563 
L 240.722635 282.235696 
L 244.067906 282.324048 
L 247.413177 282.407569 
L 250.758448 282.486837 
L 254.103719 282.5617 
L 257.44899 282.632741 
L 260.794261 282.699818 
L 264.139532 282.763408 
L 267.484803 282.823481 
L 270.830073 282.880331 
L 274.175344 282.934094 
L 277.520615 282.984856 
L 280.865886 283.032924 
L 284.211157 283.078197 
L 287.556428 283.121114 
L 290.901699 283.161452 
L 294.24697 283.199694 
L 297.592241 283.235613 
L 300.937511 283.269611 
L 304.282782 283.301576 
L 307.628053 283.331732 
L 310.973324 283.360149 
L 314.318595 283.386841 
L 317.663866 283.412063 
L 321.009137 283.435644 
L 324.354408 283.457975 
L 327.699679 283.478779 
L 331.044949 283.49848 
L 334.39022 283.516822 
L 337.735491 283.534133 
L 341.080762 283.550295 
L 344.426033 283.565446 
L 347.771304 283.579663 
L 351.116575 283.592877 
L 354.461846 283.605348 
L 357.807117 283.616839 
L 361.152388 283.627727 
L 364.497658 283.637702 
L 367.842929 283.647142 
L 371.1882 283.6558 
L 374.533471 283.663924 
L 377.878742 283.671432 
L 381.224013 283.678373 
L 384.569284 283.684863 
L 387.914555 283.690754 
L 391.259826 283.696332 
L 394.605096 283.701305 
L 397.950367 283.706048 
L 401.295638 283.710239 
L 404.640909 283.714217 
" clip-path="url(#p37ef0dbc1e)" style="fill: none; stroke: #d62728; stroke-width: 1.5; stroke-linecap: square"/>
   </g>
   <g id="line2d_32">
    <path d="M 73.459091 296.543095 
L 76.804362 296.715876 
L 80.149633 296.834941 
L 83.494904 296.920934 
L 86.840174 296.987691 
L 90.185445 297.043873 
L 93.530716 297.094615 
L 96.875987 297.142817 
L 100.221258 297.190019 
L 103.566529 297.236982 
L 106.9118 297.284006 
L 110.257071 297.331157 
L 113.602342 297.378366 
L 116.947612 297.425511 
L 120.292883 297.472445 
L 123.638154 297.519021 
L 126.983425 297.565102 
L 130.328696 297.610562 
L 133.673967 297.655298 
L 137.019238 297.699214 
L 140.364509 297.742237 
L 143.70978 297.784303 
L 147.055051 297.825364 
L 150.400321 297.865378 
L 153.745592 297.904322 
L 157.090863 297.942171 
L 160.436134 297.978917 
L 163.781405 298.01455 
L 167.126676 298.049074 
L 170.471947 298.082489 
L 173.817218 298.114807 
L 177.162489 298.146039 
L 180.507759 298.1762 
L 183.85303 298.205308 
L 187.198301 298.23338 
L 190.543572 298.260441 
L 193.888843 298.286509 
L 197.234114 298.311612 
L 200.579385 298.33577 
L 203.924656 298.359012 
L 207.269927 298.381358 
L 210.615197 298.40284 
L 213.960468 298.423476 
L 217.305739 298.443298 
L 220.65101 298.462326 
L 223.996281 298.48059 
L 227.341552 298.498112 
L 230.686823 298.514917 
L 234.032094 298.53103 
L 237.377365 298.546472 
L 240.722635 298.561271 
L 244.067906 298.575444 
L 247.413177 298.589019 
L 250.758448 298.602012 
L 254.103719 298.61445 
L 257.44899 298.626347 
L 260.794261 298.63773 
L 264.139532 298.648612 
L 267.484803 298.659017 
L 270.830073 298.668961 
L 274.175344 298.678461 
L 277.520615 298.687537 
L 280.865886 298.696201 
L 284.211157 298.704475 
L 287.556428 298.712369 
L 290.901699 298.719904 
L 294.24697 298.727088 
L 297.592241 298.733941 
L 300.937511 298.740473 
L 304.282782 298.746698 
L 307.628053 298.752629 
L 310.973324 298.758278 
L 314.318595 298.763658 
L 317.663866 298.768777 
L 321.009137 298.773651 
L 324.354408 298.778285 
L 327.699679 298.782695 
L 331.044949 298.786885 
L 334.39022 298.790869 
L 337.735491 298.794652 
L 341.080762 298.798247 
L 344.426033 298.801659 
L 347.771304 298.804897 
L 351.116575 298.807971 
L 354.461846 298.810884 
L 357.807117 298.813648 
L 361.152388 298.816265 
L 364.497658 298.818747 
L 367.842929 298.821095 
L 371.1882 298.823319 
L 374.533471 298.825422 
L 377.878742 298.827412 
L 381.224013 298.829293 
L 384.569284 298.831069 
L 387.914555 298.832749 
L 391.259826 298.834332 
L 394.605096 298.835828 
L 397.950367 298.837237 
L 401.295638 298.838567 
L 404.640909 298.839818 
" clip-path="url(#p37ef0dbc1e)" style="fill: none; stroke: #1f77b4; stroke-width: 1.5; stroke-linecap: square"/>
   </g>
   <g id="patch_3">
    <path d="M 56.9 310.84 
L 56.9 46.836 
" style="fill: none; stroke: #000000; stroke-width: 0.8; stroke-linejoin: miter; stroke-linecap: square"/>
   </g>
   <g id="patch_4">
    <path d="M 421.2 310.84 
L 421.2 46.836 
" style="fill: none; stroke: #000000; stroke-width: 0.8; stroke-linejoin: miter; stroke-linecap: square"/>
   </g>
   <g id="patch_5">
    <path d="M 56.9 310.84 
L 421.2 310.84 
" style="fill: none; stroke: #000000; stroke-width: 0.8; stroke-linejoin: miter; stroke-linecap: square"/>
   </g>
   <g id="patch_6">
    <path d="M 56.9 46.836 
L 421.2 46.836 
" style="fill: none; stroke: #000000; stroke-width: 0.8; stroke-linejoin: miter; stroke-linecap: square"/>
   </g>
   <g id="legend_1">
    <g id="line2d_33">
     <path d="M 62.9 24.663136 
L 70.4 24.663136 
L 77.9 24.663136 
" style="fill: none; stroke: #2ca02c; stroke-width: 1.5; stroke-linecap: square"/>
    </g>
    <g id="text_17">
     <!-- Grass -->
     <g transform="translate(89.9 29.913136) scale(0.15 -0.15)">
      <defs>
       <path id="DejaVuSans-47" d="M 3809 666 
L 3809 1919 
L 2778 1919 
L 2778 2438 
L 4434 2438 
L 4434 434 
Q 4069 175 3628 42 
Q 3188 -91 2688 -91 
Q 1594 -91 976 548 
Q 359 1188 359 2328 
Q 359 3472 976 4111 
Q 1594 4750 2688 4750 
Q 3144 4750 3555 4637 
Q 3966 4525 4313 4306 
L 4313 3634 
Q 3963 3931 3569 4081 
Q 3175 4231 2741 4231 
Q 1884 4231 1454 3753 
Q 1025 3275 1025 2328 
Q 1025 1384 1454 906 
Q 1884 428 2741 428 
Q 3075 428 3337 486 
Q 3600 544 3809 666 
z
" transform="scale(0.015625)"/>
      </defs>
      <use xlink:href="#DejaVuSans-47"/>
      <use xlink:href="#DejaVuSans-72" x="77.490234"/>
      <use xlink:href="#DejaVuSans-61" x="118.603516"/>
      <use xlink:href="#DejaVuSans-73" x="179.882812"/>
      <use xlink:href="#DejaVuSans-73" x="231.982422"/>
     </g>
    </g>
    <g id="line2d_34">
     <path d="M 155.49349 24.663136 
L 162.99349 24.663136 
L 170.49349 24.663136 
" style="fill: none; stroke: #ff7f0e; stroke-width: 1.5; stroke-linecap: square"/>
    </g>
    <g id="text_18">
     <!-- Hares -->
     <g transform="translate(182.49349 29.913136) scale(0.15 -0.15)">
      <defs>
       <path id="DejaVuSans-48" d="M 628 4666 
L 1259 4666 
L 1259 2753 
L 3553 2753 
L 3553 4666 
L 4184 4666 
L 4184 0 
L 3553 0 
L 3553 2222 
L 1259 2222 
L 1259 0 
L 628 0 
L 628 4666 
z
" transform="scale(0.015625)"/>
      </defs>
      <use xlink:href="#DejaVuSans-48"/>
      <use xlink:href="#DejaVuSans-61" x="75.195312"/>
      <use xlink:href="#DejaVuSans-72" x="136.474609"/>
      <use xlink:href="#DejaVuSans-65" x="175.337891"/>
      <use xlink:href="#DejaVuSans-73" x="236.861328"/>
     </g>
    </g>
    <g id="line2d_35">
     <path d="M 248.822917 24.663136 
L 256.322917 24.663136 
L 263.822917 24.663136 
" style="fill: none; stroke: #d62728; stroke-width: 1.5; stroke-linecap: square"/>
    </g>
    <g id="text_19">
     <!-- Deer -->
     <g transform="translate(275.822917 29.913136) scale(0.15 -0.15)">
      <defs>
       <path id="DejaVuSans-44" d="M 1259 4147 
L 1259 519 
L 2022 519 
Q 2988 519 3436 956 
Q 3884 1394 3884 2338 
Q 3884 3275 3436 3711 
Q 2988 4147 2022 4147 
L 1259 4147 
z
M 628 4666 
L 1925 4666 
Q 3281 4666 3915 4102 
Q 4550 3538 4550 2338 
Q 4550 1131 3912 565 
Q 3275 0 1925 0 
L 628 0 
L 628 4666 
z
" transform="scale(0.015625)"/>
      </defs>
      <use xlink:href="#DejaVuSans-44"/>
      <use xlink:href="#DejaVuSans-65" x="77.001953"/>
      <use xlink:href="#DejaVuSans-65" x="138.525391"/>
      <use xlink:href="#DejaVuSans-72" x="200.048828"/>
     </g>
    </g>
    <g id="line2d_36">
     <path d="M 334.982813 24.663136 
L 342.482813 24.663136 
L 349.982813 24.663136 
" style="fill: none; stroke: #1f77b4; stroke-width: 1.5; stroke-linecap: square"/>
    </g>
    <g id="text_20">
     <!-- Wolves -->
     <g transform="translate(361.982813 29.913136) scale(0.15 -0.15)">
      <defs>
       <path id="DejaVuSans-57" d="M 213 4666 
L 850 4666 
L 1831 722 
L 2809 4666 
L 3519 4666 
L 4500 722 
L 5478 4666 
L 6119 4666 
L 4947 0 
L 4153 0 
L 3169 4050 
L 2175 0 
L 1381 0 
L 213 4666 
z
" transform="scale(0.015625)"/>
       <path id="DejaVuSans-6c" d="M 603 4863 
L 1178 4863 
L 1178 0 
L 603 0 
L 603 4863 
z
" transform="scale(0.015625)"/>
       <path id="DejaVuSans-76" d="M 191 3500 
L 800 3500 
L 1894 563 
L 2988 3500 
L 3597 3500 
L 2284 0 
L 1503 0 
L 191 3500 
z
" transform="scale(0.015625)"/>
      </defs>
      <use xlink:href="#DejaVuSans-57"/>
      <use xlink:href="#DejaVuSans-6f" x="93.001953"/>
      <use xlink:href="#DejaVuSans-6c" x="154.183594"/>
      <use xlink:href="#DejaVuSans-76" x="181.966797"/>
      <use xlink:href="#DejaVuSans-65" x="241.146484"/>
      <use xlink:href="#DejaVuSans-73" x="302.669922"/>
     </g>
    </g>
   </g>
  </g>
 </g>
 <defs>
  <clipPath id="p37ef0dbc1e">
   <rect x="56.9" y="46.836" width="364.3" height="264.004"/>
  </clipPath>
 </defs>
</svg>
