<?xml version="1.0" encoding="utf-8" standalone="no"?>
<!DOCTYPE svg PUBLIC "-//W3C//DTD SVG 1.1//EN"
  "http://www.w3.org/Graphics/SVG/1.1/DTD/svg11.dtd">
<svg xmlns:xlink="http://www.w3.org/1999/xlink" width="432pt" height="360pt" viewBox="0 0 432 360" xmlns="http://www.w3.org/2000/svg" version="1.1">
 <metadata>
  <rdf:RDF xmlns:dc="http://purl.org/dc/elements/1.1/" xmlns:cc="http://creativecommons.org/ns#" xmlns:rdf="http://www.w3.org/1999/02/22-rdf-syntax-ns#">
   <cc:Work>
    <dc:type rdf:resource="http://purl.org/dc/dcmitype/StillImage"/>
    <dc:date>2025-06-14T10:39:39.511764</dc:date>
    <dc:format>image/svg+xml</dc:format>
    <dc:creator>
     <cc:Agent>
      <dc:title>Matplotlib v3.8.3, https://matplotlib.org/</dc:title>
     </cc:Agent>
    </dc:creator>
   </cc:Work>
  </rdf:RDF>
 </metadata>
 <defs>
  <style type="text/css">*{stroke-linejoin: round; stroke-linecap: butt}</style>
 </defs>
 <g id="figure_1">
  <g id="patch_1">
   <path d="M 0 360 
L 432 360 
L 432 0 
L 0 0 
z
" style="fill: #ffffff"/>
  </g>
  <g id="axes_1">
   <g id="patch_2">
    <path d="M 61.04 310.84 
L 421.2 310.84 
L 421.2 46.836 
L 61.04 46.836 
z
" style="fill: #ffffff"/>
   </g>
   <g id="matplotlib.axis_1">
    <g id="xtick_1">
     <g id="line2d_1">
      <path d="M 77.410909 310.84 
L 77.410909 46.836 
" clip-path="url(#p8c5a21d7ad)" style="fill: none; stroke: #b0b0b0; stroke-width: 0.8; stroke-linecap: square"/>
     </g>
     <g id="line2d_2">
      <defs>
       <path id="mebb86b3aba" d="M 0 0 
L 0 3.5 
" style="stroke: #000000; stroke-width: 0.8"/>
      </defs>
      <g>
       <use xlink:href="#mebb86b3aba" x="77.410909" y="310.84" style="stroke: #000000; stroke-width: 0.8"/>
      </g>
     </g>
     <g id="text_1">
      <!-- 0 -->
      <g transform="translate(73.275284 327.717969) scale(0.13 -0.13)">
       <defs>
        <path id="DejaVuSans-30" d="M 2034 4250 
Q 1547 4250 1301 3770 
Q 1056 3291 1056 2328 
Q 1056 1369 1301 889 
Q 1547 409 2034 409 
Q 2525 409 2770 889 
Q 3016 1369 3016 2328 
Q 3016 3291 2770 3770 
Q 2525 4250 2034 4250 
z
M 2034 4750 
Q 2819 4750 3233 4129 
Q 3647 3509 3647 2328 
Q 3647 1150 3233 529 
Q 2819 -91 2034 -91 
Q 1250 -91 836 529 
Q 422 1150 422 2328 
Q 422 3509 836 4129 
Q 1250 4750 2034 4750 
z
" transform="scale(0.015625)"/>
       </defs>
       <use xlink:href="#DejaVuSans-30"/>
      </g>
     </g>
    </g>
    <g id="xtick_2">
     <g id="line2d_3">
      <path d="M 121.066667 310.84 
L 121.066667 46.836 
" clip-path="url(#p8c5a21d7ad)" style="fill: none; stroke: #b0b0b0; stroke-width: 0.8; stroke-linecap: square"/>
     </g>
     <g id="line2d_4">
      <g>
       <use xlink:href="#mebb86b3aba" x="121.066667" y="310.84" style="stroke: #000000; stroke-width: 0.8"/>
      </g>
     </g>
     <g id="text_2">
      <!-- 2 -->
      <g transform="translate(116.931042 327.717969) scale(0.13 -0.13)">
       <defs>
        <path id="DejaVuSans-32" d="M 1228 531 
L 3431 531 
L 3431 0 
L 469 0 
L 469 531 
Q 828 903 1448 1529 
Q 2069 2156 2228 2338 
Q 2531 2678 2651 2914 
Q 2772 3150 2772 3378 
Q 2772 3750 2511 3984 
Q 2250 4219 1831 4219 
Q 1534 4219 1204 4116 
Q 875 4013 500 3803 
L 500 4441 
Q 881 4594 1212 4672 
Q 1544 4750 1819 4750 
Q 2544 4750 2975 4387 
Q 3406 4025 3406 3419 
Q 3406 3131 3298 2873 
Q 3191 2616 2906 2266 
Q 2828 2175 2409 1742 
Q 1991 1309 1228 531 
z
" transform="scale(0.015625)"/>
       </defs>
       <use xlink:href="#DejaVuSans-32"/>
      </g>
     </g>
    </g>
    <g id="xtick_3">
     <g id="line2d_5">
      <path d="M 164.722424 310.84 
L 164.722424 46.836 
" clip-path="url(#p8c5a21d7ad)" style="fill: none; stroke: #b0b0b0; stroke-width: 0.8; stroke-linecap: square"/>
     </g>
     <g id="line2d_6">
      <g>
       <use xlink:href="#mebb86b3aba" x="164.722424" y="310.84" style="stroke: #000000; stroke-width: 0.8"/>
      </g>
     </g>
     <g id="text_3">
      <!-- 4 -->
      <g transform="translate(160.586799 327.717969) scale(0.13 -0.13)">
       <defs>
        <path id="DejaVuSans-34" d="M 2419 4116 
L 825 1625 
L 2419 1625 
L 2419 4116 
z
M 2253 4666 
L 3047 4666 
L 3047 1625 
L 3713 1625 
L 3713 1100 
L 3047 1100 
L 3047 0 
L 2419 0 
L 2419 1100 
L 313 1100 
L 313 1709 
L 2253 4666 
z
" transform="scale(0.015625)"/>
       </defs>
       <use xlink:href="#DejaVuSans-34"/>
      </g>
     </g>
    </g>
    <g id="xtick_4">
     <g id="line2d_7">
      <path d="M 208.378182 310.84 
L 208.378182 46.836 
" clip-path="url(#p8c5a21d7ad)" style="fill: none; stroke: #b0b0b0; stroke-width: 0.8; stroke-linecap: square"/>
     </g>
     <g id="line2d_8">
      <g>
       <use xlink:href="#mebb86b3aba" x="208.378182" y="310.84" style="stroke: #000000; stroke-width: 0.8"/>
      </g>
     </g>
     <g id="text_4">
      <!-- 6 -->
      <g transform="translate(204.242557 327.717969) scale(0.13 -0.13)">
       <defs>
        <path id="DejaVuSans-36" d="M 2113 2584 
Q 1688 2584 1439 2293 
Q 1191 2003 1191 1497 
Q 1191 994 1439 701 
Q 1688 409 2113 409 
Q 2538 409 2786 701 
Q 3034 994 3034 1497 
Q 3034 2003 2786 2293 
Q 2538 2584 2113 2584 
z
M 3366 4563 
L 3366 3988 
Q 3128 4100 2886 4159 
Q 2644 4219 2406 4219 
Q 1781 4219 1451 3797 
Q 1122 3375 1075 2522 
Q 1259 2794 1537 2939 
Q 1816 3084 2150 3084 
Q 2853 3084 3261 2657 
Q 3669 2231 3669 1497 
Q 3669 778 3244 343 
Q 2819 -91 2113 -91 
Q 1303 -91 875 529 
Q 447 1150 447 2328 
Q 447 3434 972 4092 
Q 1497 4750 2381 4750 
Q 2619 4750 2861 4703 
Q 3103 4656 3366 4563 
z
" transform="scale(0.015625)"/>
       </defs>
       <use xlink:href="#DejaVuSans-36"/>
      </g>
     </g>
    </g>
    <g id="xtick_5">
     <g id="line2d_9">
      <path d="M 252.033939 310.84 
L 252.033939 46.836 
" clip-path="url(#p8c5a21d7ad)" style="fill: none; stroke: #b0b0b0; stroke-width: 0.8; stroke-linecap: square"/>
     </g>
     <g id="line2d_10">
      <g>
       <use xlink:href="#mebb86b3aba" x="252.033939" y="310.84" style="stroke: #000000; stroke-width: 0.8"/>
      </g>
     </g>
     <g id="text_5">
      <!-- 8 -->
      <g transform="translate(247.898314 327.717969) scale(0.13 -0.13)">
       <defs>
        <path id="DejaVuSans-38" d="M 2034 2216 
Q 1584 2216 1326 1975 
Q 1069 1734 1069 1313 
Q 1069 891 1326 650 
Q 1584 409 2034 409 
Q 2484 409 2743 651 
Q 3003 894 3003 1313 
Q 3003 1734 2745 1975 
Q 2488 2216 2034 2216 
z
M 1403 2484 
Q 997 2584 770 2862 
Q 544 3141 544 3541 
Q 544 4100 942 4425 
Q 1341 4750 2034 4750 
Q 2731 4750 3128 4425 
Q 3525 4100 3525 3541 
Q 3525 3141 3298 2862 
Q 3072 2584 2669 2484 
Q 3125 2378 3379 2068 
Q 3634 1759 3634 1313 
Q 3634 634 3220 271 
Q 2806 -91 2034 -91 
Q 1263 -91 848 271 
Q 434 634 434 1313 
Q 434 1759 690 2068 
Q 947 2378 1403 2484 
z
M 1172 3481 
Q 1172 3119 1398 2916 
Q 1625 2713 2034 2713 
Q 2441 2713 2670 2916 
Q 2900 3119 2900 3481 
Q 2900 3844 2670 4047 
Q 2441 4250 2034 4250 
Q 1625 4250 1398 4047 
Q 1172 3844 1172 3481 
z
" transform="scale(0.015625)"/>
       </defs>
       <use xlink:href="#DejaVuSans-38"/>
      </g>
     </g>
    </g>
    <g id="xtick_6">
     <g id="line2d_11">
      <path d="M 295.689697 310.84 
L 295.689697 46.836 
" clip-path="url(#p8c5a21d7ad)" style="fill: none; stroke: #b0b0b0; stroke-width: 0.8; stroke-linecap: square"/>
     </g>
     <g id="line2d_12">
      <g>
       <use xlink:href="#mebb86b3aba" x="295.689697" y="310.84" style="stroke: #000000; stroke-width: 0.8"/>
      </g>
     </g>
     <g id="text_6">
      <!-- 10 -->
      <g transform="translate(287.418447 327.717969) scale(0.13 -0.13)">
       <defs>
        <path id="DejaVuSans-31" d="M 794 531 
L 1825 531 
L 1825 4091 
L 703 3866 
L 703 4441 
L 1819 4666 
L 2450 4666 
L 2450 531 
L 3481 531 
L 3481 0 
L 794 0 
L 794 531 
z
" transform="scale(0.015625)"/>
       </defs>
       <use xlink:href="#DejaVuSans-31"/>
       <use xlink:href="#DejaVuSans-30" x="63.623047"/>
      </g>
     </g>
    </g>
    <g id="xtick_7">
     <g id="line2d_13">
      <path d="M 339.345455 310.84 
L 339.345455 46.836 
" clip-path="url(#p8c5a21d7ad)" style="fill: none; stroke: #b0b0b0; stroke-width: 0.8; stroke-linecap: square"/>
     </g>
     <g id="line2d_14">
      <g>
       <use xlink:href="#mebb86b3aba" x="339.345455" y="310.84" style="stroke: #000000; stroke-width: 0.8"/>
      </g>
     </g>
     <g id="text_7">
      <!-- 12 -->
      <g transform="translate(331.074205 327.717969) scale(0.13 -0.13)">
       <use xlink:href="#DejaVuSans-31"/>
       <use xlink:href="#DejaVuSans-32" x="63.623047"/>
      </g>
     </g>
    </g>
    <g id="xtick_8">
     <g id="line2d_15">
      <path d="M 383.001212 310.84 
L 383.001212 46.836 
" clip-path="url(#p8c5a21d7ad)" style="fill: none; stroke: #b0b0b0; stroke-width: 0.8; stroke-linecap: square"/>
     </g>
     <g id="line2d_16">
      <g>
       <use xlink:href="#mebb86b3aba" x="383.001212" y="310.84" style="stroke: #000000; stroke-width: 0.8"/>
      </g>
     </g>
     <g id="text_8">
      <!-- 14 -->
      <g transform="translate(374.729962 327.717969) scale(0.13 -0.13)">
       <use xlink:href="#DejaVuSans-31"/>
       <use xlink:href="#DejaVuSans-34" x="63.623047"/>
      </g>
     </g>
    </g>
    <g id="text_9">
     <!-- Time (years) -->
     <g transform="translate(193.893437 345.819219) scale(0.15 -0.15)">
      <defs>
       <path id="DejaVuSans-54" d="M -19 4666 
L 3928 4666 
L 3928 4134 
L 2272 4134 
L 2272 0 
L 1638 0 
L 1638 4134 
L -19 4134 
L -19 4666 
z
" transform="scale(0.015625)"/>
       <path id="DejaVuSans-69" d="M 603 3500 
L 1178 3500 
L 1178 0 
L 603 0 
L 603 3500 
z
M 603 4863 
L 1178 4863 
L 1178 4134 
L 603 4134 
L 603 4863 
z
" transform="scale(0.015625)"/>
       <path id="DejaVuSans-6d" d="M 3328 2828 
Q 3544 3216 3844 3400 
Q 4144 3584 4550 3584 
Q 5097 3584 5394 3201 
Q 5691 2819 5691 2113 
L 5691 0 
L 5113 0 
L 5113 2094 
Q 5113 2597 4934 2840 
Q 4756 3084 4391 3084 
Q 3944 3084 3684 2787 
Q 3425 2491 3425 1978 
L 3425 0 
L 2847 0 
L 2847 2094 
Q 2847 2600 2669 2842 
Q 2491 3084 2119 3084 
Q 1678 3084 1418 2786 
Q 1159 2488 1159 1978 
L 1159 0 
L 581 0 
L 581 3500 
L 1159 3500 
L 1159 2956 
Q 1356 3278 1631 3431 
Q 1906 3584 2284 3584 
Q 2666 3584 2933 3390 
Q 3200 3197 3328 2828 
z
" transform="scale(0.015625)"/>
       <path id="DejaVuSans-65" d="M 3597 1894 
L 3597 1613 
L 953 1613 
Q 991 1019 1311 708 
Q 1631 397 2203 397 
Q 2534 397 2845 478 
Q 3156 559 3463 722 
L 3463 178 
Q 3153 47 2828 -22 
Q 2503 -91 2169 -91 
Q 1331 -91 842 396 
Q 353 884 353 1716 
Q 353 2575 817 3079 
Q 1281 3584 2069 3584 
Q 2775 3584 3186 3129 
Q 3597 2675 3597 1894 
z
M 3022 2063 
Q 3016 2534 2758 2815 
Q 2500 3097 2075 3097 
Q 1594 3097 1305 2825 
Q 1016 2553 972 2059 
L 3022 2063 
z
" transform="scale(0.015625)"/>
       <path id="DejaVuSans-20" transform="scale(0.015625)"/>
       <path id="DejaVuSans-28" d="M 1984 4856 
Q 1566 4138 1362 3434 
Q 1159 2731 1159 2009 
Q 1159 1288 1364 580 
Q 1569 -128 1984 -844 
L 1484 -844 
Q 1016 -109 783 600 
Q 550 1309 550 2009 
Q 550 2706 781 3412 
Q 1013 4119 1484 4856 
L 1984 4856 
z
" transform="scale(0.015625)"/>
       <path id="DejaVuSans-79" d="M 2059 -325 
Q 1816 -950 1584 -1140 
Q 1353 -1331 966 -1331 
L 506 -1331 
L 506 -850 
L 844 -850 
Q 1081 -850 1212 -737 
Q 1344 -625 1503 -206 
L 1606 56 
L 191 3500 
L 800 3500 
L 1894 763 
L 2988 3500 
L 3597 3500 
L 2059 -325 
z
" transform="scale(0.015625)"/>
       <path id="DejaVuSans-61" d="M 2194 1759 
Q 1497 1759 1228 1600 
Q 959 1441 959 1056 
Q 959 750 1161 570 
Q 1363 391 1709 391 
Q 2188 391 2477 730 
Q 2766 1069 2766 1631 
L 2766 1759 
L 2194 1759 
z
M 3341 1997 
L 3341 0 
L 2766 0 
L 2766 531 
Q 2569 213 2275 61 
Q 1981 -91 1556 -91 
Q 1019 -91 701 211 
Q 384 513 384 1019 
Q 384 1609 779 1909 
Q 1175 2209 1959 2209 
L 2766 2209 
L 2766 2266 
Q 2766 2663 2505 2880 
Q 2244 3097 1772 3097 
Q 1472 3097 1187 3025 
Q 903 2953 641 2809 
L 641 3341 
Q 956 3463 1253 3523 
Q 1550 3584 1831 3584 
Q 2591 3584 2966 3190 
Q 3341 2797 3341 1997 
z
" transform="scale(0.015625)"/>
       <path id="DejaVuSans-72" d="M 2631 2963 
Q 2534 3019 2420 3045 
Q 2306 3072 2169 3072 
Q 1681 3072 1420 2755 
Q 1159 2438 1159 1844 
L 1159 0 
L 581 0 
L 581 3500 
L 1159 3500 
L 1159 2956 
Q 1341 3275 1631 3429 
Q 1922 3584 2338 3584 
Q 2397 3584 2469 3576 
Q 2541 3569 2628 3553 
L 2631 2963 
z
" transform="scale(0.015625)"/>
       <path id="DejaVuSans-73" d="M 2834 3397 
L 2834 2853 
Q 2591 2978 2328 3040 
Q 2066 3103 1784 3103 
Q 1356 3103 1142 2972 
Q 928 2841 928 2578 
Q 928 2378 1081 2264 
Q 1234 2150 1697 2047 
L 1894 2003 
Q 2506 1872 2764 1633 
Q 3022 1394 3022 966 
Q 3022 478 2636 193 
Q 2250 -91 1575 -91 
Q 1294 -91 989 -36 
Q 684 19 347 128 
L 347 722 
Q 666 556 975 473 
Q 1284 391 1588 391 
Q 1994 391 2212 530 
Q 2431 669 2431 922 
Q 2431 1156 2273 1281 
Q 2116 1406 1581 1522 
L 1381 1569 
Q 847 1681 609 1914 
Q 372 2147 372 2553 
Q 372 3047 722 3315 
Q 1072 3584 1716 3584 
Q 2034 3584 2315 3537 
Q 2597 3491 2834 3397 
z
" transform="scale(0.015625)"/>
       <path id="DejaVuSans-29" d="M 513 4856 
L 1013 4856 
Q 1481 4119 1714 3412 
Q 1947 2706 1947 2009 
Q 1947 1309 1714 600 
Q 1481 -109 1013 -844 
L 513 -844 
Q 928 -128 1133 580 
Q 1338 1288 1338 2009 
Q 1338 2731 1133 3434 
Q 928 4138 513 4856 
z
" transform="scale(0.015625)"/>
      </defs>
      <use xlink:href="#DejaVuSans-54"/>
      <use xlink:href="#DejaVuSans-69" x="57.958984"/>
      <use xlink:href="#DejaVuSans-6d" x="85.742188"/>
      <use xlink:href="#DejaVuSans-65" x="183.154297"/>
      <use xlink:href="#DejaVuSans-20" x="244.677734"/>
      <use xlink:href="#DejaVuSans-28" x="276.464844"/>
      <use xlink:href="#DejaVuSans-79" x="315.478516"/>
      <use xlink:href="#DejaVuSans-65" x="374.658203"/>
      <use xlink:href="#DejaVuSans-61" x="436.181641"/>
      <use xlink:href="#DejaVuSans-72" x="497.460938"/>
      <use xlink:href="#DejaVuSans-73" x="538.574219"/>
      <use xlink:href="#DejaVuSans-29" x="590.673828"/>
     </g>
    </g>
   </g>
   <g id="matplotlib.axis_2">
    <g id="ytick_1">
     <g id="line2d_17">
      <path d="M 61.04 298.839818 
L 421.2 298.839818 
" clip-path="url(#p8c5a21d7ad)" style="fill: none; stroke: #b0b0b0; stroke-width: 0.8; stroke-linecap: square"/>
     </g>
     <g id="line2d_18">
      <defs>
       <path id="m1e6bb0a708" d="M 0 0 
L -3.5 0 
" style="stroke: #000000; stroke-width: 0.8"/>
      </defs>
      <g>
       <use xlink:href="#m1e6bb0a708" x="61.04" y="298.839818" style="stroke: #000000; stroke-width: 0.8"/>
      </g>
     </g>
     <g id="text_10">
      <!-- 0 -->
      <g transform="translate(45.76875 303.778803) scale(0.13 -0.13)">
       <use xlink:href="#DejaVuSans-30"/>
      </g>
     </g>
    </g>
    <g id="ytick_2">
     <g id="line2d_19">
      <path d="M 61.04 267.575335 
L 421.2 267.575335 
" clip-path="url(#p8c5a21d7ad)" style="fill: none; stroke: #b0b0b0; stroke-width: 0.8; stroke-linecap: square"/>
     </g>
     <g id="line2d_20">
      <g>
       <use xlink:href="#m1e6bb0a708" x="61.04" y="267.575335" style="stroke: #000000; stroke-width: 0.8"/>
      </g>
     </g>
     <g id="text_11">
      <!-- 100 -->
      <g transform="translate(29.22625 272.51432) scale(0.13 -0.13)">
       <use xlink:href="#DejaVuSans-31"/>
       <use xlink:href="#DejaVuSans-30" x="63.623047"/>
       <use xlink:href="#DejaVuSans-30" x="127.246094"/>
      </g>
     </g>
    </g>
    <g id="ytick_3">
     <g id="line2d_21">
      <path d="M 61.04 236.310852 
L 421.2 236.310852 
" clip-path="url(#p8c5a21d7ad)" style="fill: none; stroke: #b0b0b0; stroke-width: 0.8; stroke-linecap: square"/>
     </g>
     <g id="line2d_22">
      <g>
       <use xlink:href="#m1e6bb0a708" x="61.04" y="236.310852" style="stroke: #000000; stroke-width: 0.8"/>
      </g>
     </g>
     <g id="text_12">
      <!-- 200 -->
      <g transform="translate(29.22625 241.249837) scale(0.13 -0.13)">
       <use xlink:href="#DejaVuSans-32"/>
       <use xlink:href="#DejaVuSans-30" x="63.623047"/>
       <use xlink:href="#DejaVuSans-30" x="127.246094"/>
      </g>
     </g>
    </g>
    <g id="ytick_4">
     <g id="line2d_23">
      <path d="M 61.04 205.046369 
L 421.2 205.046369 
" clip-path="url(#p8c5a21d7ad)" style="fill: none; stroke: #b0b0b0; stroke-width: 0.8; stroke-linecap: square"/>
     </g>
     <g id="line2d_24">
      <g>
       <use xlink:href="#m1e6bb0a708" x="61.04" y="205.046369" style="stroke: #000000; stroke-width: 0.8"/>
      </g>
     </g>
     <g id="text_13">
      <!-- 300 -->
      <g transform="translate(29.22625 209.985353) scale(0.13 -0.13)">
       <defs>
        <path id="DejaVuSans-33" d="M 2597 2516 
Q 3050 2419 3304 2112 
Q 3559 1806 3559 1356 
Q 3559 666 3084 287 
Q 2609 -91 1734 -91 
Q 1441 -91 1130 -33 
Q 819 25 488 141 
L 488 750 
Q 750 597 1062 519 
Q 1375 441 1716 441 
Q 2309 441 2620 675 
Q 2931 909 2931 1356 
Q 2931 1769 2642 2001 
Q 2353 2234 1838 2234 
L 1294 2234 
L 1294 2753 
L 1863 2753 
Q 2328 2753 2575 2939 
Q 2822 3125 2822 3475 
Q 2822 3834 2567 4026 
Q 2313 4219 1838 4219 
Q 1578 4219 1281 4162 
Q 984 4106 628 3988 
L 628 4550 
Q 988 4650 1302 4700 
Q 1616 4750 1894 4750 
Q 2613 4750 3031 4423 
Q 3450 4097 3450 3541 
Q 3450 3153 3228 2886 
Q 3006 2619 2597 2516 
z
" transform="scale(0.015625)"/>
       </defs>
       <use xlink:href="#DejaVuSans-33"/>
       <use xlink:href="#DejaVuSans-30" x="63.623047"/>
       <use xlink:href="#DejaVuSans-30" x="127.246094"/>
      </g>
     </g>
    </g>
    <g id="ytick_5">
     <g id="line2d_25">
      <path d="M 61.04 173.781886 
L 421.2 173.781886 
" clip-path="url(#p8c5a21d7ad)" style="fill: none; stroke: #b0b0b0; stroke-width: 0.8; stroke-linecap: square"/>
     </g>
     <g id="line2d_26">
      <g>
       <use xlink:href="#m1e6bb0a708" x="61.04" y="173.781886" style="stroke: #000000; stroke-width: 0.8"/>
      </g>
     </g>
     <g id="text_14">
      <!-- 400 -->
      <g transform="translate(29.22625 178.72087) scale(0.13 -0.13)">
       <use xlink:href="#DejaVuSans-34"/>
       <use xlink:href="#DejaVuSans-30" x="63.623047"/>
       <use xlink:href="#DejaVuSans-30" x="127.246094"/>
      </g>
     </g>
    </g>
    <g id="ytick_6">
     <g id="line2d_27">
      <path d="M 61.04 142.517403 
L 421.2 142.517403 
" clip-path="url(#p8c5a21d7ad)" style="fill: none; stroke: #b0b0b0; stroke-width: 0.8; stroke-linecap: square"/>
     </g>
     <g id="line2d_28">
      <g>
       <use xlink:href="#m1e6bb0a708" x="61.04" y="142.517403" style="stroke: #000000; stroke-width: 0.8"/>
      </g>
     </g>
     <g id="text_15">
      <!-- 500 -->
      <g transform="translate(29.22625 147.456387) scale(0.13 -0.13)">
       <defs>
        <path id="DejaVuSans-35" d="M 691 4666 
L 3169 4666 
L 3169 4134 
L 1269 4134 
L 1269 2991 
Q 1406 3038 1543 3061 
Q 1681 3084 1819 3084 
Q 2600 3084 3056 2656 
Q 3513 2228 3513 1497 
Q 3513 744 3044 326 
Q 2575 -91 1722 -91 
Q 1428 -91 1123 -41 
Q 819 9 494 109 
L 494 744 
Q 775 591 1075 516 
Q 1375 441 1709 441 
Q 2250 441 2565 725 
Q 2881 1009 2881 1497 
Q 2881 1984 2565 2268 
Q 2250 2553 1709 2553 
Q 1456 2553 1204 2497 
Q 953 2441 691 2322 
L 691 4666 
z
" transform="scale(0.015625)"/>
       </defs>
       <use xlink:href="#DejaVuSans-35"/>
       <use xlink:href="#DejaVuSans-30" x="63.623047"/>
       <use xlink:href="#DejaVuSans-30" x="127.246094"/>
      </g>
     </g>
    </g>
    <g id="ytick_7">
     <g id="line2d_29">
      <path d="M 61.04 111.25292 
L 421.2 111.25292 
" clip-path="url(#p8c5a21d7ad)" style="fill: none; stroke: #b0b0b0; stroke-width: 0.8; stroke-linecap: square"/>
     </g>
     <g id="line2d_30">
      <g>
       <use xlink:href="#m1e6bb0a708" x="61.04" y="111.25292" style="stroke: #000000; stroke-width: 0.8"/>
      </g>
     </g>
     <g id="text_16">
      <!-- 600 -->
      <g transform="translate(29.22625 116.191904) scale(0.13 -0.13)">
       <use xlink:href="#DejaVuSans-36"/>
       <use xlink:href="#DejaVuSans-30" x="63.623047"/>
       <use xlink:href="#DejaVuSans-30" x="127.246094"/>
      </g>
     </g>
    </g>
    <g id="ytick_8">
     <g id="line2d_31">
      <path d="M 61.04 79.988437 
L 421.2 79.988437 
" clip-path="url(#p8c5a21d7ad)" style="fill: none; stroke: #b0b0b0; stroke-width: 0.8; stroke-linecap: square"/>
     </g>
     <g id="line2d_32">
      <g>
       <use xlink:href="#m1e6bb0a708" x="61.04" y="79.988437" style="stroke: #000000; stroke-width: 0.8"/>
      </g>
     </g>
     <g id="text_17">
      <!-- 700 -->
      <g transform="translate(29.22625 84.927421) scale(0.13 -0.13)">
       <defs>
        <path id="DejaVuSans-37" d="M 525 4666 
L 3525 4666 
L 3525 4397 
L 1831 0 
L 1172 0 
L 2766 4134 
L 525 4134 
L 525 4666 
z
" transform="scale(0.015625)"/>
       </defs>
       <use xlink:href="#DejaVuSans-37"/>
       <use xlink:href="#DejaVuSans-30" x="63.623047"/>
       <use xlink:href="#DejaVuSans-30" x="127.246094"/>
      </g>
     </g>
    </g>
    <g id="ytick_9">
     <g id="line2d_33">
      <path d="M 61.04 48.723954 
L 421.2 48.723954 
" clip-path="url(#p8c5a21d7ad)" style="fill: none; stroke: #b0b0b0; stroke-width: 0.8; stroke-linecap: square"/>
     </g>
     <g id="line2d_34">
      <g>
       <use xlink:href="#m1e6bb0a708" x="61.04" y="48.723954" style="stroke: #000000; stroke-width: 0.8"/>
      </g>
     </g>
     <g id="text_18">
      <!-- 800 -->
      <g transform="translate(29.22625 53.662938) scale(0.13 -0.13)">
       <use xlink:href="#DejaVuSans-38"/>
       <use xlink:href="#DejaVuSans-30" x="63.623047"/>
       <use xlink:href="#DejaVuSans-30" x="127.246094"/>
      </g>
     </g>
    </g>
    <g id="text_19">
     <!-- Concentration -->
     <g transform="translate(22.106719 231.894641) rotate(-90) scale(0.15 -0.15)">
      <defs>
       <path id="DejaVuSans-43" d="M 4122 4306 
L 4122 3641 
Q 3803 3938 3442 4084 
Q 3081 4231 2675 4231 
Q 1875 4231 1450 3742 
Q 1025 3253 1025 2328 
Q 1025 1406 1450 917 
Q 1875 428 2675 428 
Q 3081 428 3442 575 
Q 3803 722 4122 1019 
L 4122 359 
Q 3791 134 3420 21 
Q 3050 -91 2638 -91 
Q 1578 -91 968 557 
Q 359 1206 359 2328 
Q 359 3453 968 4101 
Q 1578 4750 2638 4750 
Q 3056 4750 3426 4639 
Q 3797 4528 4122 4306 
z
" transform="scale(0.015625)"/>
       <path id="DejaVuSans-6f" d="M 1959 3097 
Q 1497 3097 1228 2736 
Q 959 2375 959 1747 
Q 959 1119 1226 758 
Q 1494 397 1959 397 
Q 2419 397 2687 759 
Q 2956 1122 2956 1747 
Q 2956 2369 2687 2733 
Q 2419 3097 1959 3097 
z
M 1959 3584 
Q 2709 3584 3137 3096 
Q 3566 2609 3566 1747 
Q 3566 888 3137 398 
Q 2709 -91 1959 -91 
Q 1206 -91 779 398 
Q 353 888 353 1747 
Q 353 2609 779 3096 
Q 1206 3584 1959 3584 
z
" transform="scale(0.015625)"/>
       <path id="DejaVuSans-6e" d="M 3513 2113 
L 3513 0 
L 2938 0 
L 2938 2094 
Q 2938 2591 2744 2837 
Q 2550 3084 2163 3084 
Q 1697 3084 1428 2787 
Q 1159 2491 1159 1978 
L 1159 0 
L 581 0 
L 581 3500 
L 1159 3500 
L 1159 2956 
Q 1366 3272 1645 3428 
Q 1925 3584 2291 3584 
Q 2894 3584 3203 3211 
Q 3513 2838 3513 2113 
z
" transform="scale(0.015625)"/>
       <path id="DejaVuSans-63" d="M 3122 3366 
L 3122 2828 
Q 2878 2963 2633 3030 
Q 2388 3097 2138 3097 
Q 1578 3097 1268 2742 
Q 959 2388 959 1747 
Q 959 1106 1268 751 
Q 1578 397 2138 397 
Q 2388 397 2633 464 
Q 2878 531 3122 666 
L 3122 134 
Q 2881 22 2623 -34 
Q 2366 -91 2075 -91 
Q 1284 -91 818 406 
Q 353 903 353 1747 
Q 353 2603 823 3093 
Q 1294 3584 2113 3584 
Q 2378 3584 2631 3529 
Q 2884 3475 3122 3366 
z
" transform="scale(0.015625)"/>
       <path id="DejaVuSans-74" d="M 1172 4494 
L 1172 3500 
L 2356 3500 
L 2356 3053 
L 1172 3053 
L 1172 1153 
Q 1172 725 1289 603 
Q 1406 481 1766 481 
L 2356 481 
L 2356 0 
L 1766 0 
Q 1100 0 847 248 
Q 594 497 594 1153 
L 594 3053 
L 172 3053 
L 172 3500 
L 594 3500 
L 594 4494 
L 1172 4494 
z
" transform="scale(0.015625)"/>
      </defs>
      <use xlink:href="#DejaVuSans-43"/>
      <use xlink:href="#DejaVuSans-6f" x="69.824219"/>
      <use xlink:href="#DejaVuSans-6e" x="131.005859"/>
      <use xlink:href="#DejaVuSans-63" x="194.384766"/>
      <use xlink:href="#DejaVuSans-65" x="249.365234"/>
      <use xlink:href="#DejaVuSans-6e" x="310.888672"/>
      <use xlink:href="#DejaVuSans-74" x="374.267578"/>
      <use xlink:href="#DejaVuSans-72" x="413.476562"/>
      <use xlink:href="#DejaVuSans-61" x="454.589844"/>
      <use xlink:href="#DejaVuSans-74" x="515.869141"/>
      <use xlink:href="#DejaVuSans-69" x="555.078125"/>
      <use xlink:href="#DejaVuSans-6f" x="582.861328"/>
      <use xlink:href="#DejaVuSans-6e" x="644.042969"/>
     </g>
    </g>
   </g>
   <g id="line2d_35">
    <path d="M 77.410909 270.701783 
L 80.718163 272.524403 
L 84.025418 272.727496 
L 87.332672 272.890626 
L 90.639927 272.949755 
L 93.947181 272.967591 
L 97.254435 273.041657 
L 100.56169 273.115646 
L 103.868944 273.11924 
L 107.176198 273.095735 
L 110.483453 273.117357 
L 113.790707 273.170817 
L 117.097961 273.17425 
L 120.405216 273.146807 
L 123.71247 273.152511 
L 127.019725 273.200428 
L 130.326979 273.204161 
L 133.634233 273.173769 
L 136.941488 273.178009 
L 140.248742 273.223028 
L 143.555996 273.222658 
L 146.863251 273.18876 
L 150.170505 273.199786 
L 153.477759 273.241212 
L 156.785014 273.23302 
L 160.092268 273.197006 
L 163.399522 273.219762 
L 166.706777 273.255171 
L 170.014031 273.236808 
L 173.321286 273.203547 
L 176.62854 273.238334 
L 179.935794 273.264472 
L 183.243049 273.235404 
L 186.550303 273.212927 
L 189.857557 273.254954 
L 193.164812 273.268609 
L 196.472066 273.230583 
L 199.77932 273.225795 
L 203.086575 273.268548 
L 206.393829 273.267398 
L 209.701084 273.22484 
L 213.008338 273.241144 
L 216.315592 273.277914 
L 219.622847 273.261281 
L 222.930101 273.222794 
L 226.237355 273.257059 
L 229.54461 273.282081 
L 232.851864 273.251548 
L 236.159118 273.229252 
L 239.466373 273.271342 
L 242.773627 273.280591 
L 246.080882 273.240472 
L 249.388136 273.241628 
L 252.69539 273.281973 
L 256.002645 273.273727 
L 259.309899 273.231428 
L 262.617153 273.256669 
L 265.924408 273.287442 
L 269.231662 273.262666 
L 272.538916 273.231636 
L 275.846171 273.271294 
L 279.153425 273.286969 
L 282.46068 273.249583 
L 285.767934 273.240946 
L 289.075188 273.282898 
L 292.382443 273.280648 
L 295.689697 273.237714 
L 298.996951 273.254922 
L 302.304206 273.289579 
L 305.61146 273.269537 
L 308.918714 273.233195 
L 312.225969 273.269693 
L 315.533223 273.290275 
L 318.840478 273.255716 
L 322.147732 273.239814 
L 325.454986 273.282132 
L 328.762241 273.284869 
L 332.069495 273.242316 
L 335.376749 273.252694 
L 338.684004 273.289977 
L 341.991258 273.274244 
L 345.298512 273.234481 
L 348.605767 273.267447 
L 351.913021 273.291904 
L 355.220275 273.26032 
L 358.52753 273.238571 
L 361.834784 273.280562 
L 365.142039 273.287586 
L 368.449293 273.246072 
L 371.756547 273.250306 
L 375.063802 273.28948 
L 378.371056 273.277719 
L 381.67831 273.235872 
L 384.985565 273.264909 
L 388.292819 273.292633 
L 391.600073 273.264044 
L 394.907328 273.237421 
L 398.214582 273.278568 
L 401.521837 273.289481 
L 404.829091 273.245836 
" clip-path="url(#p8c5a21d7ad)" style="fill: none; stroke: #2ca02c; stroke-width: 1.5; stroke-linecap: square"/>
   </g>
   <g id="line2d_36">
    <path d="M 77.410909 142.517403 
L 80.718163 121.159796 
L 84.025418 104.972479 
L 87.332672 93.496647 
L 90.639927 85.679516 
L 93.947181 80.414096 
L 97.254435 76.816756 
L 100.56169 74.284837 
L 103.868944 72.430887 
L 107.176198 71.008 
L 110.483453 69.860885 
L 113.790707 68.901011 
L 117.097961 68.079534 
L 120.405216 67.360863 
L 123.71247 66.717205 
L 127.019725 66.133693 
L 130.326979 65.607073 
L 133.634233 65.129263 
L 136.941488 64.688426 
L 140.248742 64.27991 
L 143.555996 63.907076 
L 146.863251 63.565869 
L 150.170505 63.246658 
L 153.477759 62.948631 
L 156.785014 62.676404 
L 160.092268 62.426277 
L 163.399522 62.189037 
L 166.706777 61.967401 
L 170.014031 61.765652 
L 173.321286 61.579181 
L 176.62854 61.399719 
L 179.935794 61.233057 
L 183.243049 61.082241 
L 186.550303 60.941003 
L 189.857557 60.803648 
L 193.164812 60.677628 
L 196.472066 60.564259 
L 199.77932 60.455485 
L 203.086575 60.349668 
L 206.393829 60.254299 
L 209.701084 60.168614 
L 213.008338 60.083408 
L 216.315592 60.001794 
L 219.622847 59.929835 
L 222.930101 59.864333 
L 226.237355 59.796757 
L 229.54461 59.734096 
L 232.851864 59.680075 
L 236.159118 59.62876 
L 239.466373 59.575123 
L 242.773627 59.527515 
L 246.080882 59.487097 
L 249.388136 59.44567 
L 252.69539 59.403397 
L 256.002645 59.367811 
L 259.309899 59.337368 
L 262.617153 59.303032 
L 265.924408 59.270236 
L 269.231662 59.244177 
L 272.538916 59.220285 
L 275.846171 59.191805 
L 279.153425 59.167012 
L 282.46068 59.148296 
L 285.767934 59.12828 
L 289.075188 59.105121 
L 292.382443 59.087079 
L 295.689697 59.073669 
L 298.996951 59.055932 
L 302.304206 59.037709 
L 305.61146 59.025246 
L 308.918714 59.014985 
L 312.225969 58.999112 
L 315.533223 58.985472 
L 318.840478 58.977399 
L 322.147732 58.968247 
L 325.454986 58.954644 
L 328.762241 58.945178 
L 332.069495 58.940218 
L 335.376749 58.931036 
L 338.684004 58.920051 
L 341.991258 58.914237 
L 345.298512 58.910891 
L 348.605767 58.901526 
L 351.913021 58.893371 
L 355.220275 58.890523 
L 358.52753 58.887044 
L 361.834784 58.878305 
L 365.142039 58.873012 
L 368.449293 58.87225 
L 371.756547 58.867632 
L 375.063802 58.860257 
L 378.371056 58.857651 
L 381.67831 58.857844 
L 384.985565 58.851964 
L 388.292819 58.846473 
L 391.600073 58.846147 
L 394.907328 58.845718 
L 398.214582 58.839507 
L 401.521837 58.836182 
L 404.829091 58.837798 
" clip-path="url(#p8c5a21d7ad)" style="fill: none; stroke: #ff7f0e; stroke-width: 1.5; stroke-linecap: square"/>
   </g>
   <g id="line2d_37">
    <path d="M 77.410909 298.839818 
L 80.718163 298.839818 
L 84.025418 298.839818 
L 87.332672 298.839818 
L 90.639927 298.839818 
L 93.947181 298.839818 
L 97.254435 298.839818 
L 100.56169 298.839818 
L 103.868944 298.839818 
L 107.176198 298.839818 
L 110.483453 298.839818 
L 113.790707 298.839818 
L 117.097961 298.839818 
L 120.405216 298.839818 
L 123.71247 298.839818 
L 127.019725 298.839818 
L 130.326979 298.839818 
L 133.634233 298.839818 
L 136.941488 298.839818 
L 140.248742 298.839818 
L 143.555996 298.839818 
L 146.863251 298.839818 
L 150.170505 298.839818 
L 153.477759 298.839818 
L 156.785014 298.839818 
L 160.092268 298.839818 
L 163.399522 298.839818 
L 166.706777 298.839818 
L 170.014031 298.839818 
L 173.321286 298.839818 
L 176.62854 298.839818 
L 179.935794 298.839818 
L 183.243049 298.839818 
L 186.550303 298.839818 
L 189.857557 298.839818 
L 193.164812 298.839818 
L 196.472066 298.839818 
L 199.77932 298.839818 
L 203.086575 298.839818 
L 206.393829 298.839818 
L 209.701084 298.839818 
L 213.008338 298.839818 
L 216.315592 298.839818 
L 219.622847 298.839818 
L 222.930101 298.839818 
L 226.237355 298.839818 
L 229.54461 298.839818 
L 232.851864 298.839818 
L 236.159118 298.839818 
L 239.466373 298.839818 
L 242.773627 298.839818 
L 246.080882 298.839818 
L 249.388136 298.839818 
L 252.69539 298.839818 
L 256.002645 298.839818 
L 259.309899 298.839818 
L 262.617153 298.839818 
L 265.924408 298.839818 
L 269.231662 298.839818 
L 272.538916 298.839818 
L 275.846171 298.839818 
L 279.153425 298.839818 
L 282.46068 298.839818 
L 285.767934 298.839818 
L 289.075188 298.839818 
L 292.382443 298.839818 
L 295.689697 298.839818 
L 298.996951 298.839818 
L 302.304206 298.839818 
L 305.61146 298.839818 
L 308.918714 298.839818 
L 312.225969 298.839818 
L 315.533223 298.839818 
L 318.840478 298.839818 
L 322.147732 298.839818 
L 325.454986 298.839818 
L 328.762241 298.839818 
L 332.069495 298.839818 
L 335.376749 298.839818 
L 338.684004 298.839818 
L 341.991258 298.839818 
L 345.298512 298.839818 
L 348.605767 298.839818 
L 351.913021 298.839818 
L 355.220275 298.839818 
L 358.52753 298.839818 
L 361.834784 298.839818 
L 365.142039 298.839818 
L 368.449293 298.839818 
L 371.756547 298.839818 
L 375.063802 298.839818 
L 378.371056 298.839818 
L 381.67831 298.839818 
L 384.985565 298.839818 
L 388.292819 298.839818 
L 391.600073 298.839818 
L 394.907328 298.839818 
L 398.214582 298.839818 
L 401.521837 298.839818 
L 404.829091 298.839818 
" clip-path="url(#p8c5a21d7ad)" style="fill: none; stroke: #d62728; stroke-width: 1.5; stroke-linecap: square"/>
   </g>
   <g id="line2d_38">
    <path d="M 77.410909 294.931758 
L 80.718163 295.098258 
L 84.025418 295.230907 
L 87.332672 295.339596 
L 90.639927 295.431078 
L 93.947181 295.509846 
L 97.254435 295.578878 
L 100.56169 295.640175 
L 103.868944 295.695128 
L 107.176198 295.744739 
L 110.483453 295.789762 
L 113.790707 295.830786 
L 117.097961 295.868282 
L 120.405216 295.902645 
L 123.71247 295.934204 
L 127.019725 295.963244 
L 130.326979 295.990009 
L 133.634233 296.014715 
L 136.941488 296.037552 
L 140.248742 296.058686 
L 143.555996 296.078267 
L 146.863251 296.096427 
L 150.170505 296.113285 
L 153.477759 296.12895 
L 156.785014 296.143517 
L 160.092268 296.157073 
L 163.399522 296.169698 
L 166.706777 296.181463 
L 170.014031 296.192434 
L 173.321286 296.202669 
L 176.62854 296.212225 
L 179.935794 296.221149 
L 183.243049 296.229487 
L 186.550303 296.237281 
L 189.857557 296.244571 
L 193.164812 296.25139 
L 196.472066 296.257772 
L 199.77932 296.263746 
L 203.086575 296.269341 
L 206.393829 296.274581 
L 209.701084 296.279491 
L 213.008338 296.284093 
L 216.315592 296.288407 
L 219.622847 296.292452 
L 222.930101 296.296245 
L 226.237355 296.299804 
L 229.54461 296.303142 
L 232.851864 296.306274 
L 236.159118 296.309214 
L 239.466373 296.311973 
L 242.773627 296.314564 
L 246.080882 296.316996 
L 249.388136 296.319279 
L 252.69539 296.321424 
L 256.002645 296.323439 
L 259.309899 296.32533 
L 262.617153 296.327108 
L 265.924408 296.328778 
L 269.231662 296.330347 
L 272.538916 296.331821 
L 275.846171 296.333207 
L 279.153425 296.334509 
L 282.46068 296.335733 
L 285.767934 296.336883 
L 289.075188 296.337964 
L 292.382443 296.33898 
L 295.689697 296.339935 
L 298.996951 296.340834 
L 302.304206 296.341678 
L 305.61146 296.342472 
L 308.918714 296.343218 
L 312.225969 296.34392 
L 315.533223 296.34458 
L 318.840478 296.345201 
L 322.147732 296.345784 
L 325.454986 296.346333 
L 328.762241 296.346849 
L 332.069495 296.347335 
L 335.376749 296.347791 
L 338.684004 296.348221 
L 341.991258 296.348624 
L 345.298512 296.349004 
L 348.605767 296.349361 
L 351.913021 296.349697 
L 355.220275 296.350013 
L 358.52753 296.35031 
L 361.834784 296.35059 
L 365.142039 296.350853 
L 368.449293 296.3511 
L 371.756547 296.351333 
L 375.063802 296.351552 
L 378.371056 296.351758 
L 381.67831 296.351951 
L 384.985565 296.352134 
L 388.292819 296.352305 
L 391.600073 296.352466 
L 394.907328 296.352618 
L 398.214582 296.352761 
L 401.521837 296.352895 
L 404.829091 296.353021 
" clip-path="url(#p8c5a21d7ad)" style="fill: none; stroke: #1f77b4; stroke-width: 1.5; stroke-linecap: square"/>
   </g>
   <g id="patch_3">
    <path d="M 61.04 310.84 
L 61.04 46.836 
" style="fill: none; stroke: #000000; stroke-width: 0.8; stroke-linejoin: miter; stroke-linecap: square"/>
   </g>
   <g id="patch_4">
    <path d="M 421.2 310.84 
L 421.2 46.836 
" style="fill: none; stroke: #000000; stroke-width: 0.8; stroke-linejoin: miter; stroke-linecap: square"/>
   </g>
   <g id="patch_5">
    <path d="M 61.04 310.84 
L 421.2 310.84 
" style="fill: none; stroke: #000000; stroke-width: 0.8; stroke-linejoin: miter; stroke-linecap: square"/>
   </g>
   <g id="patch_6">
    <path d="M 61.04 46.836 
L 421.2 46.836 
" style="fill: none; stroke: #000000; stroke-width: 0.8; stroke-linejoin: miter; stroke-linecap: square"/>
   </g>
   <g id="legend_1">
    <g id="line2d_39">
     <path d="M 67.04 24.663136 
L 74.54 24.663136 
L 82.04 24.663136 
" style="fill: none; stroke: #2ca02c; stroke-width: 1.5; stroke-linecap: square"/>
    </g>
    <g id="text_20">
     <!-- Grass -->
     <g transform="translate(94.04 29.913136) scale(0.15 -0.15)">
      <defs>
       <path id="DejaVuSans-47" d="M 3809 666 
L 3809 1919 
L 2778 1919 
L 2778 2438 
L 4434 2438 
L 4434 434 
Q 4069 175 3628 42 
Q 3188 -91 2688 -91 
Q 1594 -91 976 548 
Q 359 1188 359 2328 
Q 359 3472 976 4111 
Q 1594 4750 2688 4750 
Q 3144 4750 3555 4637 
Q 3966 4525 4313 4306 
L 4313 3634 
Q 3963 3931 3569 4081 
Q 3175 4231 2741 4231 
Q 1884 4231 1454 3753 
Q 1025 3275 1025 2328 
Q 1025 1384 1454 906 
Q 1884 428 2741 428 
Q 3075 428 3337 486 
Q 3600 544 3809 666 
z
" transform="scale(0.015625)"/>
      </defs>
      <use xlink:href="#DejaVuSans-47"/>
      <use xlink:href="#DejaVuSans-72" x="77.490234"/>
      <use xlink:href="#DejaVuSans-61" x="118.603516"/>
      <use xlink:href="#DejaVuSans-73" x="179.882812"/>
      <use xlink:href="#DejaVuSans-73" x="231.982422"/>
     </g>
    </g>
    <g id="line2d_40">
     <path d="M 158.25349 24.663136 
L 165.75349 24.663136 
L 173.25349 24.663136 
" style="fill: none; stroke: #ff7f0e; stroke-width: 1.5; stroke-linecap: square"/>
    </g>
    <g id="text_21">
     <!-- Hares -->
     <g transform="translate(185.25349 29.913136) scale(0.15 -0.15)">
      <defs>
       <path id="DejaVuSans-48" d="M 628 4666 
L 1259 4666 
L 1259 2753 
L 3553 2753 
L 3553 4666 
L 4184 4666 
L 4184 0 
L 3553 0 
L 3553 2222 
L 1259 2222 
L 1259 0 
L 628 0 
L 628 4666 
z
" transform="scale(0.015625)"/>
      </defs>
      <use xlink:href="#DejaVuSans-48"/>
      <use xlink:href="#DejaVuSans-61" x="75.195312"/>
      <use xlink:href="#DejaVuSans-72" x="136.474609"/>
      <use xlink:href="#DejaVuSans-65" x="175.337891"/>
      <use xlink:href="#DejaVuSans-73" x="236.861328"/>
     </g>
    </g>
    <g id="line2d_41">
     <path d="M 250.202917 24.663136 
L 257.702917 24.663136 
L 265.202917 24.663136 
" style="fill: none; stroke: #d62728; stroke-width: 1.5; stroke-linecap: square"/>
    </g>
    <g id="text_22">
     <!-- Deer -->
     <g transform="translate(277.202917 29.913136) scale(0.15 -0.15)">
      <defs>
       <path id="DejaVuSans-44" d="M 1259 4147 
L 1259 519 
L 2022 519 
Q 2988 519 3436 956 
Q 3884 1394 3884 2338 
Q 3884 3275 3436 3711 
Q 2988 4147 2022 4147 
L 1259 4147 
z
M 628 4666 
L 1925 4666 
Q 3281 4666 3915 4102 
Q 4550 3538 4550 2338 
Q 4550 1131 3912 565 
Q 3275 0 1925 0 
L 628 0 
L 628 4666 
z
" transform="scale(0.015625)"/>
      </defs>
      <use xlink:href="#DejaVuSans-44"/>
      <use xlink:href="#DejaVuSans-65" x="77.001953"/>
      <use xlink:href="#DejaVuSans-65" x="138.525391"/>
      <use xlink:href="#DejaVuSans-72" x="200.048828"/>
     </g>
    </g>
    <g id="line2d_42">
     <path d="M 334.982812 24.663136 
L 342.482812 24.663136 
L 349.982812 24.663136 
" style="fill: none; stroke: #1f77b4; stroke-width: 1.5; stroke-linecap: square"/>
    </g>
    <g id="text_23">
     <!-- Wolves -->
     <g transform="translate(361.982812 29.913136) scale(0.15 -0.15)">
      <defs>
       <path id="DejaVuSans-57" d="M 213 4666 
L 850 4666 
L 1831 722 
L 2809 4666 
L 3519 4666 
L 4500 722 
L 5478 4666 
L 6119 4666 
L 4947 0 
L 4153 0 
L 3169 4050 
L 2175 0 
L 1381 0 
L 213 4666 
z
" transform="scale(0.015625)"/>
       <path id="DejaVuSans-6c" d="M 603 4863 
L 1178 4863 
L 1178 0 
L 603 0 
L 603 4863 
z
" transform="scale(0.015625)"/>
       <path id="DejaVuSans-76" d="M 191 3500 
L 800 3500 
L 1894 563 
L 2988 3500 
L 3597 3500 
L 2284 0 
L 1503 0 
L 191 3500 
z
" transform="scale(0.015625)"/>
      </defs>
      <use xlink:href="#DejaVuSans-57"/>
      <use xlink:href="#DejaVuSans-6f" x="93.001953"/>
      <use xlink:href="#DejaVuSans-6c" x="154.183594"/>
      <use xlink:href="#DejaVuSans-76" x="181.966797"/>
      <use xlink:href="#DejaVuSans-65" x="241.146484"/>
      <use xlink:href="#DejaVuSans-73" x="302.669922"/>
     </g>
    </g>
   </g>
  </g>
 </g>
 <defs>
  <clipPath id="p8c5a21d7ad">
   <rect x="61.04" y="46.836" width="360.16" height="264.004"/>
  </clipPath>
 </defs>
</svg>
