<?xml version="1.0" encoding="utf-8" standalone="no"?>
<!DOCTYPE svg PUBLIC "-//W3C//DTD SVG 1.1//EN"
  "http://www.w3.org/Graphics/SVG/1.1/DTD/svg11.dtd">
<svg xmlns:xlink="http://www.w3.org/1999/xlink" width="432pt" height="360pt" viewBox="0 0 432 360" xmlns="http://www.w3.org/2000/svg" version="1.1">
 <metadata>
  <rdf:RDF xmlns:dc="http://purl.org/dc/elements/1.1/" xmlns:cc="http://creativecommons.org/ns#" xmlns:rdf="http://www.w3.org/1999/02/22-rdf-syntax-ns#">
   <cc:Work>
    <dc:type rdf:resource="http://purl.org/dc/dcmitype/StillImage"/>
    <dc:date>2025-06-14T08:56:29.081756</dc:date>
    <dc:format>image/svg+xml</dc:format>
    <dc:creator>
     <cc:Agent>
      <dc:title>Matplotlib v3.8.3, https://matplotlib.org/</dc:title>
     </cc:Agent>
    </dc:creator>
   </cc:Work>
  </rdf:RDF>
 </metadata>
 <defs>
  <style type="text/css">*{stroke-linejoin: round; stroke-linecap: butt}</style>
 </defs>
 <g id="figure_1">
  <g id="patch_1">
   <path d="M 0 360 
L 432 360 
L 432 0 
L 0 0 
z
" style="fill: #ffffff"/>
  </g>
  <g id="axes_1">
   <g id="patch_2">
    <path d="M 56.9 310.84 
L 421.2 310.84 
L 421.2 46.836 
L 56.9 46.836 
z
" style="fill: #ffffff"/>
   </g>
   <g id="matplotlib.axis_1">
    <g id="xtick_1">
     <g id="line2d_1">
      <path d="M 73.459091 310.84 
L 73.459091 46.836 
" clip-path="url(#p40bbd9ce08)" style="fill: none; stroke: #b0b0b0; stroke-width: 0.8; stroke-linecap: square"/>
     </g>
     <g id="line2d_2">
      <defs>
       <path id="m8e085cfd3e" d="M 0 0 
L 0 3.5 
" style="stroke: #000000; stroke-width: 0.8"/>
      </defs>
      <g>
       <use xlink:href="#m8e085cfd3e" x="73.459091" y="310.84" style="stroke: #000000; stroke-width: 0.8"/>
      </g>
     </g>
     <g id="text_1">
      <!-- 0 -->
      <g transform="translate(69.323466 327.717969) scale(0.13 -0.13)">
       <defs>
        <path id="DejaVuSans-30" d="M 2034 4250 
Q 1547 4250 1301 3770 
Q 1056 3291 1056 2328 
Q 1056 1369 1301 889 
Q 1547 409 2034 409 
Q 2525 409 2770 889 
Q 3016 1369 3016 2328 
Q 3016 3291 2770 3770 
Q 2525 4250 2034 4250 
z
M 2034 4750 
Q 2819 4750 3233 4129 
Q 3647 3509 3647 2328 
Q 3647 1150 3233 529 
Q 2819 -91 2034 -91 
Q 1250 -91 836 529 
Q 422 1150 422 2328 
Q 422 3509 836 4129 
Q 1250 4750 2034 4750 
z
" transform="scale(0.015625)"/>
       </defs>
       <use xlink:href="#DejaVuSans-30"/>
      </g>
     </g>
    </g>
    <g id="xtick_2">
     <g id="line2d_3">
      <path d="M 117.616667 310.84 
L 117.616667 46.836 
" clip-path="url(#p40bbd9ce08)" style="fill: none; stroke: #b0b0b0; stroke-width: 0.8; stroke-linecap: square"/>
     </g>
     <g id="line2d_4">
      <g>
       <use xlink:href="#m8e085cfd3e" x="117.616667" y="310.84" style="stroke: #000000; stroke-width: 0.8"/>
      </g>
     </g>
     <g id="text_2">
      <!-- 2 -->
      <g transform="translate(113.481042 327.717969) scale(0.13 -0.13)">
       <defs>
        <path id="DejaVuSans-32" d="M 1228 531 
L 3431 531 
L 3431 0 
L 469 0 
L 469 531 
Q 828 903 1448 1529 
Q 2069 2156 2228 2338 
Q 2531 2678 2651 2914 
Q 2772 3150 2772 3378 
Q 2772 3750 2511 3984 
Q 2250 4219 1831 4219 
Q 1534 4219 1204 4116 
Q 875 4013 500 3803 
L 500 4441 
Q 881 4594 1212 4672 
Q 1544 4750 1819 4750 
Q 2544 4750 2975 4387 
Q 3406 4025 3406 3419 
Q 3406 3131 3298 2873 
Q 3191 2616 2906 2266 
Q 2828 2175 2409 1742 
Q 1991 1309 1228 531 
z
" transform="scale(0.015625)"/>
       </defs>
       <use xlink:href="#DejaVuSans-32"/>
      </g>
     </g>
    </g>
    <g id="xtick_3">
     <g id="line2d_5">
      <path d="M 161.774242 310.84 
L 161.774242 46.836 
" clip-path="url(#p40bbd9ce08)" style="fill: none; stroke: #b0b0b0; stroke-width: 0.8; stroke-linecap: square"/>
     </g>
     <g id="line2d_6">
      <g>
       <use xlink:href="#m8e085cfd3e" x="161.774242" y="310.84" style="stroke: #000000; stroke-width: 0.8"/>
      </g>
     </g>
     <g id="text_3">
      <!-- 4 -->
      <g transform="translate(157.638617 327.717969) scale(0.13 -0.13)">
       <defs>
        <path id="DejaVuSans-34" d="M 2419 4116 
L 825 1625 
L 2419 1625 
L 2419 4116 
z
M 2253 4666 
L 3047 4666 
L 3047 1625 
L 3713 1625 
L 3713 1100 
L 3047 1100 
L 3047 0 
L 2419 0 
L 2419 1100 
L 313 1100 
L 313 1709 
L 2253 4666 
z
" transform="scale(0.015625)"/>
       </defs>
       <use xlink:href="#DejaVuSans-34"/>
      </g>
     </g>
    </g>
    <g id="xtick_4">
     <g id="line2d_7">
      <path d="M 205.931818 310.84 
L 205.931818 46.836 
" clip-path="url(#p40bbd9ce08)" style="fill: none; stroke: #b0b0b0; stroke-width: 0.8; stroke-linecap: square"/>
     </g>
     <g id="line2d_8">
      <g>
       <use xlink:href="#m8e085cfd3e" x="205.931818" y="310.84" style="stroke: #000000; stroke-width: 0.8"/>
      </g>
     </g>
     <g id="text_4">
      <!-- 6 -->
      <g transform="translate(201.796193 327.717969) scale(0.13 -0.13)">
       <defs>
        <path id="DejaVuSans-36" d="M 2113 2584 
Q 1688 2584 1439 2293 
Q 1191 2003 1191 1497 
Q 1191 994 1439 701 
Q 1688 409 2113 409 
Q 2538 409 2786 701 
Q 3034 994 3034 1497 
Q 3034 2003 2786 2293 
Q 2538 2584 2113 2584 
z
M 3366 4563 
L 3366 3988 
Q 3128 4100 2886 4159 
Q 2644 4219 2406 4219 
Q 1781 4219 1451 3797 
Q 1122 3375 1075 2522 
Q 1259 2794 1537 2939 
Q 1816 3084 2150 3084 
Q 2853 3084 3261 2657 
Q 3669 2231 3669 1497 
Q 3669 778 3244 343 
Q 2819 -91 2113 -91 
Q 1303 -91 875 529 
Q 447 1150 447 2328 
Q 447 3434 972 4092 
Q 1497 4750 2381 4750 
Q 2619 4750 2861 4703 
Q 3103 4656 3366 4563 
z
" transform="scale(0.015625)"/>
       </defs>
       <use xlink:href="#DejaVuSans-36"/>
      </g>
     </g>
    </g>
    <g id="xtick_5">
     <g id="line2d_9">
      <path d="M 250.089394 310.84 
L 250.089394 46.836 
" clip-path="url(#p40bbd9ce08)" style="fill: none; stroke: #b0b0b0; stroke-width: 0.8; stroke-linecap: square"/>
     </g>
     <g id="line2d_10">
      <g>
       <use xlink:href="#m8e085cfd3e" x="250.089394" y="310.84" style="stroke: #000000; stroke-width: 0.8"/>
      </g>
     </g>
     <g id="text_5">
      <!-- 8 -->
      <g transform="translate(245.953769 327.717969) scale(0.13 -0.13)">
       <defs>
        <path id="DejaVuSans-38" d="M 2034 2216 
Q 1584 2216 1326 1975 
Q 1069 1734 1069 1313 
Q 1069 891 1326 650 
Q 1584 409 2034 409 
Q 2484 409 2743 651 
Q 3003 894 3003 1313 
Q 3003 1734 2745 1975 
Q 2488 2216 2034 2216 
z
M 1403 2484 
Q 997 2584 770 2862 
Q 544 3141 544 3541 
Q 544 4100 942 4425 
Q 1341 4750 2034 4750 
Q 2731 4750 3128 4425 
Q 3525 4100 3525 3541 
Q 3525 3141 3298 2862 
Q 3072 2584 2669 2484 
Q 3125 2378 3379 2068 
Q 3634 1759 3634 1313 
Q 3634 634 3220 271 
Q 2806 -91 2034 -91 
Q 1263 -91 848 271 
Q 434 634 434 1313 
Q 434 1759 690 2068 
Q 947 2378 1403 2484 
z
M 1172 3481 
Q 1172 3119 1398 2916 
Q 1625 2713 2034 2713 
Q 2441 2713 2670 2916 
Q 2900 3119 2900 3481 
Q 2900 3844 2670 4047 
Q 2441 4250 2034 4250 
Q 1625 4250 1398 4047 
Q 1172 3844 1172 3481 
z
" transform="scale(0.015625)"/>
       </defs>
       <use xlink:href="#DejaVuSans-38"/>
      </g>
     </g>
    </g>
    <g id="xtick_6">
     <g id="line2d_11">
      <path d="M 294.24697 310.84 
L 294.24697 46.836 
" clip-path="url(#p40bbd9ce08)" style="fill: none; stroke: #b0b0b0; stroke-width: 0.8; stroke-linecap: square"/>
     </g>
     <g id="line2d_12">
      <g>
       <use xlink:href="#m8e085cfd3e" x="294.24697" y="310.84" style="stroke: #000000; stroke-width: 0.8"/>
      </g>
     </g>
     <g id="text_6">
      <!-- 10 -->
      <g transform="translate(285.97572 327.717969) scale(0.13 -0.13)">
       <defs>
        <path id="DejaVuSans-31" d="M 794 531 
L 1825 531 
L 1825 4091 
L 703 3866 
L 703 4441 
L 1819 4666 
L 2450 4666 
L 2450 531 
L 3481 531 
L 3481 0 
L 794 0 
L 794 531 
z
" transform="scale(0.015625)"/>
       </defs>
       <use xlink:href="#DejaVuSans-31"/>
       <use xlink:href="#DejaVuSans-30" x="63.623047"/>
      </g>
     </g>
    </g>
    <g id="xtick_7">
     <g id="line2d_13">
      <path d="M 338.404545 310.84 
L 338.404545 46.836 
" clip-path="url(#p40bbd9ce08)" style="fill: none; stroke: #b0b0b0; stroke-width: 0.8; stroke-linecap: square"/>
     </g>
     <g id="line2d_14">
      <g>
       <use xlink:href="#m8e085cfd3e" x="338.404545" y="310.84" style="stroke: #000000; stroke-width: 0.8"/>
      </g>
     </g>
     <g id="text_7">
      <!-- 12 -->
      <g transform="translate(330.133295 327.717969) scale(0.13 -0.13)">
       <use xlink:href="#DejaVuSans-31"/>
       <use xlink:href="#DejaVuSans-32" x="63.623047"/>
      </g>
     </g>
    </g>
    <g id="xtick_8">
     <g id="line2d_15">
      <path d="M 382.562121 310.84 
L 382.562121 46.836 
" clip-path="url(#p40bbd9ce08)" style="fill: none; stroke: #b0b0b0; stroke-width: 0.8; stroke-linecap: square"/>
     </g>
     <g id="line2d_16">
      <g>
       <use xlink:href="#m8e085cfd3e" x="382.562121" y="310.84" style="stroke: #000000; stroke-width: 0.8"/>
      </g>
     </g>
     <g id="text_8">
      <!-- 14 -->
      <g transform="translate(374.290871 327.717969) scale(0.13 -0.13)">
       <use xlink:href="#DejaVuSans-31"/>
       <use xlink:href="#DejaVuSans-34" x="63.623047"/>
      </g>
     </g>
    </g>
    <g id="text_9">
     <!-- Time (years) -->
     <g transform="translate(191.823437 345.819219) scale(0.15 -0.15)">
      <defs>
       <path id="DejaVuSans-54" d="M -19 4666 
L 3928 4666 
L 3928 4134 
L 2272 4134 
L 2272 0 
L 1638 0 
L 1638 4134 
L -19 4134 
L -19 4666 
z
" transform="scale(0.015625)"/>
       <path id="DejaVuSans-69" d="M 603 3500 
L 1178 3500 
L 1178 0 
L 603 0 
L 603 3500 
z
M 603 4863 
L 1178 4863 
L 1178 4134 
L 603 4134 
L 603 4863 
z
" transform="scale(0.015625)"/>
       <path id="DejaVuSans-6d" d="M 3328 2828 
Q 3544 3216 3844 3400 
Q 4144 3584 4550 3584 
Q 5097 3584 5394 3201 
Q 5691 2819 5691 2113 
L 5691 0 
L 5113 0 
L 5113 2094 
Q 5113 2597 4934 2840 
Q 4756 3084 4391 3084 
Q 3944 3084 3684 2787 
Q 3425 2491 3425 1978 
L 3425 0 
L 2847 0 
L 2847 2094 
Q 2847 2600 2669 2842 
Q 2491 3084 2119 3084 
Q 1678 3084 1418 2786 
Q 1159 2488 1159 1978 
L 1159 0 
L 581 0 
L 581 3500 
L 1159 3500 
L 1159 2956 
Q 1356 3278 1631 3431 
Q 1906 3584 2284 3584 
Q 2666 3584 2933 3390 
Q 3200 3197 3328 2828 
z
" transform="scale(0.015625)"/>
       <path id="DejaVuSans-65" d="M 3597 1894 
L 3597 1613 
L 953 1613 
Q 991 1019 1311 708 
Q 1631 397 2203 397 
Q 2534 397 2845 478 
Q 3156 559 3463 722 
L 3463 178 
Q 3153 47 2828 -22 
Q 2503 -91 2169 -91 
Q 1331 -91 842 396 
Q 353 884 353 1716 
Q 353 2575 817 3079 
Q 1281 3584 2069 3584 
Q 2775 3584 3186 3129 
Q 3597 2675 3597 1894 
z
M 3022 2063 
Q 3016 2534 2758 2815 
Q 2500 3097 2075 3097 
Q 1594 3097 1305 2825 
Q 1016 2553 972 2059 
L 3022 2063 
z
" transform="scale(0.015625)"/>
       <path id="DejaVuSans-20" transform="scale(0.015625)"/>
       <path id="DejaVuSans-28" d="M 1984 4856 
Q 1566 4138 1362 3434 
Q 1159 2731 1159 2009 
Q 1159 1288 1364 580 
Q 1569 -128 1984 -844 
L 1484 -844 
Q 1016 -109 783 600 
Q 550 1309 550 2009 
Q 550 2706 781 3412 
Q 1013 4119 1484 4856 
L 1984 4856 
z
" transform="scale(0.015625)"/>
       <path id="DejaVuSans-79" d="M 2059 -325 
Q 1816 -950 1584 -1140 
Q 1353 -1331 966 -1331 
L 506 -1331 
L 506 -850 
L 844 -850 
Q 1081 -850 1212 -737 
Q 1344 -625 1503 -206 
L 1606 56 
L 191 3500 
L 800 3500 
L 1894 763 
L 2988 3500 
L 3597 3500 
L 2059 -325 
z
" transform="scale(0.015625)"/>
       <path id="DejaVuSans-61" d="M 2194 1759 
Q 1497 1759 1228 1600 
Q 959 1441 959 1056 
Q 959 750 1161 570 
Q 1363 391 1709 391 
Q 2188 391 2477 730 
Q 2766 1069 2766 1631 
L 2766 1759 
L 2194 1759 
z
M 3341 1997 
L 3341 0 
L 2766 0 
L 2766 531 
Q 2569 213 2275 61 
Q 1981 -91 1556 -91 
Q 1019 -91 701 211 
Q 384 513 384 1019 
Q 384 1609 779 1909 
Q 1175 2209 1959 2209 
L 2766 2209 
L 2766 2266 
Q 2766 2663 2505 2880 
Q 2244 3097 1772 3097 
Q 1472 3097 1187 3025 
Q 903 2953 641 2809 
L 641 3341 
Q 956 3463 1253 3523 
Q 1550 3584 1831 3584 
Q 2591 3584 2966 3190 
Q 3341 2797 3341 1997 
z
" transform="scale(0.015625)"/>
       <path id="DejaVuSans-72" d="M 2631 2963 
Q 2534 3019 2420 3045 
Q 2306 3072 2169 3072 
Q 1681 3072 1420 2755 
Q 1159 2438 1159 1844 
L 1159 0 
L 581 0 
L 581 3500 
L 1159 3500 
L 1159 2956 
Q 1341 3275 1631 3429 
Q 1922 3584 2338 3584 
Q 2397 3584 2469 3576 
Q 2541 3569 2628 3553 
L 2631 2963 
z
" transform="scale(0.015625)"/>
       <path id="DejaVuSans-73" d="M 2834 3397 
L 2834 2853 
Q 2591 2978 2328 3040 
Q 2066 3103 1784 3103 
Q 1356 3103 1142 2972 
Q 928 2841 928 2578 
Q 928 2378 1081 2264 
Q 1234 2150 1697 2047 
L 1894 2003 
Q 2506 1872 2764 1633 
Q 3022 1394 3022 966 
Q 3022 478 2636 193 
Q 2250 -91 1575 -91 
Q 1294 -91 989 -36 
Q 684 19 347 128 
L 347 722 
Q 666 556 975 473 
Q 1284 391 1588 391 
Q 1994 391 2212 530 
Q 2431 669 2431 922 
Q 2431 1156 2273 1281 
Q 2116 1406 1581 1522 
L 1381 1569 
Q 847 1681 609 1914 
Q 372 2147 372 2553 
Q 372 3047 722 3315 
Q 1072 3584 1716 3584 
Q 2034 3584 2315 3537 
Q 2597 3491 2834 3397 
z
" transform="scale(0.015625)"/>
       <path id="DejaVuSans-29" d="M 513 4856 
L 1013 4856 
Q 1481 4119 1714 3412 
Q 1947 2706 1947 2009 
Q 1947 1309 1714 600 
Q 1481 -109 1013 -844 
L 513 -844 
Q 928 -128 1133 580 
Q 1338 1288 1338 2009 
Q 1338 2731 1133 3434 
Q 928 4138 513 4856 
z
" transform="scale(0.015625)"/>
      </defs>
      <use xlink:href="#DejaVuSans-54"/>
      <use xlink:href="#DejaVuSans-69" x="57.958984"/>
      <use xlink:href="#DejaVuSans-6d" x="85.742188"/>
      <use xlink:href="#DejaVuSans-65" x="183.154297"/>
      <use xlink:href="#DejaVuSans-20" x="244.677734"/>
      <use xlink:href="#DejaVuSans-28" x="276.464844"/>
      <use xlink:href="#DejaVuSans-79" x="315.478516"/>
      <use xlink:href="#DejaVuSans-65" x="374.658203"/>
      <use xlink:href="#DejaVuSans-61" x="436.181641"/>
      <use xlink:href="#DejaVuSans-72" x="497.460938"/>
      <use xlink:href="#DejaVuSans-73" x="538.574219"/>
      <use xlink:href="#DejaVuSans-29" x="590.673828"/>
     </g>
    </g>
   </g>
   <g id="matplotlib.axis_2">
    <g id="ytick_1">
     <g id="line2d_17">
      <path d="M 56.9 298.839818 
L 421.2 298.839818 
" clip-path="url(#p40bbd9ce08)" style="fill: none; stroke: #b0b0b0; stroke-width: 0.8; stroke-linecap: square"/>
     </g>
     <g id="line2d_18">
      <defs>
       <path id="m7fc77bfdd0" d="M 0 0 
L -3.5 0 
" style="stroke: #000000; stroke-width: 0.8"/>
      </defs>
      <g>
       <use xlink:href="#m7fc77bfdd0" x="56.9" y="298.839818" style="stroke: #000000; stroke-width: 0.8"/>
      </g>
     </g>
     <g id="text_10">
      <!-- 0.0 -->
      <g transform="translate(29.225938 303.778803) scale(0.13 -0.13)">
       <defs>
        <path id="DejaVuSans-2e" d="M 684 794 
L 1344 794 
L 1344 0 
L 684 0 
L 684 794 
z
" transform="scale(0.015625)"/>
       </defs>
       <use xlink:href="#DejaVuSans-30"/>
       <use xlink:href="#DejaVuSans-2e" x="63.623047"/>
       <use xlink:href="#DejaVuSans-30" x="95.410156"/>
      </g>
     </g>
    </g>
    <g id="ytick_2">
     <g id="line2d_19">
      <path d="M 56.9 250.839091 
L 421.2 250.839091 
" clip-path="url(#p40bbd9ce08)" style="fill: none; stroke: #b0b0b0; stroke-width: 0.8; stroke-linecap: square"/>
     </g>
     <g id="line2d_20">
      <g>
       <use xlink:href="#m7fc77bfdd0" x="56.9" y="250.839091" style="stroke: #000000; stroke-width: 0.8"/>
      </g>
     </g>
     <g id="text_11">
      <!-- 0.2 -->
      <g transform="translate(29.225938 255.778075) scale(0.13 -0.13)">
       <use xlink:href="#DejaVuSans-30"/>
       <use xlink:href="#DejaVuSans-2e" x="63.623047"/>
       <use xlink:href="#DejaVuSans-32" x="95.410156"/>
      </g>
     </g>
    </g>
    <g id="ytick_3">
     <g id="line2d_21">
      <path d="M 56.9 202.838364 
L 421.2 202.838364 
" clip-path="url(#p40bbd9ce08)" style="fill: none; stroke: #b0b0b0; stroke-width: 0.8; stroke-linecap: square"/>
     </g>
     <g id="line2d_22">
      <g>
       <use xlink:href="#m7fc77bfdd0" x="56.9" y="202.838364" style="stroke: #000000; stroke-width: 0.8"/>
      </g>
     </g>
     <g id="text_12">
      <!-- 0.4 -->
      <g transform="translate(29.225938 207.777348) scale(0.13 -0.13)">
       <use xlink:href="#DejaVuSans-30"/>
       <use xlink:href="#DejaVuSans-2e" x="63.623047"/>
       <use xlink:href="#DejaVuSans-34" x="95.410156"/>
      </g>
     </g>
    </g>
    <g id="ytick_4">
     <g id="line2d_23">
      <path d="M 56.9 154.837636 
L 421.2 154.837636 
" clip-path="url(#p40bbd9ce08)" style="fill: none; stroke: #b0b0b0; stroke-width: 0.8; stroke-linecap: square"/>
     </g>
     <g id="line2d_24">
      <g>
       <use xlink:href="#m7fc77bfdd0" x="56.9" y="154.837636" style="stroke: #000000; stroke-width: 0.8"/>
      </g>
     </g>
     <g id="text_13">
      <!-- 0.6 -->
      <g transform="translate(29.225938 159.776621) scale(0.13 -0.13)">
       <use xlink:href="#DejaVuSans-30"/>
       <use xlink:href="#DejaVuSans-2e" x="63.623047"/>
       <use xlink:href="#DejaVuSans-36" x="95.410156"/>
      </g>
     </g>
    </g>
    <g id="ytick_5">
     <g id="line2d_25">
      <path d="M 56.9 106.836909 
L 421.2 106.836909 
" clip-path="url(#p40bbd9ce08)" style="fill: none; stroke: #b0b0b0; stroke-width: 0.8; stroke-linecap: square"/>
     </g>
     <g id="line2d_26">
      <g>
       <use xlink:href="#m7fc77bfdd0" x="56.9" y="106.836909" style="stroke: #000000; stroke-width: 0.8"/>
      </g>
     </g>
     <g id="text_14">
      <!-- 0.8 -->
      <g transform="translate(29.225938 111.775893) scale(0.13 -0.13)">
       <use xlink:href="#DejaVuSans-30"/>
       <use xlink:href="#DejaVuSans-2e" x="63.623047"/>
       <use xlink:href="#DejaVuSans-38" x="95.410156"/>
      </g>
     </g>
    </g>
    <g id="ytick_6">
     <g id="line2d_27">
      <path d="M 56.9 58.836182 
L 421.2 58.836182 
" clip-path="url(#p40bbd9ce08)" style="fill: none; stroke: #b0b0b0; stroke-width: 0.8; stroke-linecap: square"/>
     </g>
     <g id="line2d_28">
      <g>
       <use xlink:href="#m7fc77bfdd0" x="56.9" y="58.836182" style="stroke: #000000; stroke-width: 0.8"/>
      </g>
     </g>
     <g id="text_15">
      <!-- 1.0 -->
      <g transform="translate(29.225938 63.775166) scale(0.13 -0.13)">
       <use xlink:href="#DejaVuSans-31"/>
       <use xlink:href="#DejaVuSans-2e" x="63.623047"/>
       <use xlink:href="#DejaVuSans-30" x="95.410156"/>
      </g>
     </g>
    </g>
    <g id="text_16">
     <!-- Concentration -->
     <g transform="translate(22.106406 231.894641) rotate(-90) scale(0.15 -0.15)">
      <defs>
       <path id="DejaVuSans-43" d="M 4122 4306 
L 4122 3641 
Q 3803 3938 3442 4084 
Q 3081 4231 2675 4231 
Q 1875 4231 1450 3742 
Q 1025 3253 1025 2328 
Q 1025 1406 1450 917 
Q 1875 428 2675 428 
Q 3081 428 3442 575 
Q 3803 722 4122 1019 
L 4122 359 
Q 3791 134 3420 21 
Q 3050 -91 2638 -91 
Q 1578 -91 968 557 
Q 359 1206 359 2328 
Q 359 3453 968 4101 
Q 1578 4750 2638 4750 
Q 3056 4750 3426 4639 
Q 3797 4528 4122 4306 
z
" transform="scale(0.015625)"/>
       <path id="DejaVuSans-6f" d="M 1959 3097 
Q 1497 3097 1228 2736 
Q 959 2375 959 1747 
Q 959 1119 1226 758 
Q 1494 397 1959 397 
Q 2419 397 2687 759 
Q 2956 1122 2956 1747 
Q 2956 2369 2687 2733 
Q 2419 3097 1959 3097 
z
M 1959 3584 
Q 2709 3584 3137 3096 
Q 3566 2609 3566 1747 
Q 3566 888 3137 398 
Q 2709 -91 1959 -91 
Q 1206 -91 779 398 
Q 353 888 353 1747 
Q 353 2609 779 3096 
Q 1206 3584 1959 3584 
z
" transform="scale(0.015625)"/>
       <path id="DejaVuSans-6e" d="M 3513 2113 
L 3513 0 
L 2938 0 
L 2938 2094 
Q 2938 2591 2744 2837 
Q 2550 3084 2163 3084 
Q 1697 3084 1428 2787 
Q 1159 2491 1159 1978 
L 1159 0 
L 581 0 
L 581 3500 
L 1159 3500 
L 1159 2956 
Q 1366 3272 1645 3428 
Q 1925 3584 2291 3584 
Q 2894 3584 3203 3211 
Q 3513 2838 3513 2113 
z
" transform="scale(0.015625)"/>
       <path id="DejaVuSans-63" d="M 3122 3366 
L 3122 2828 
Q 2878 2963 2633 3030 
Q 2388 3097 2138 3097 
Q 1578 3097 1268 2742 
Q 959 2388 959 1747 
Q 959 1106 1268 751 
Q 1578 397 2138 397 
Q 2388 397 2633 464 
Q 2878 531 3122 666 
L 3122 134 
Q 2881 22 2623 -34 
Q 2366 -91 2075 -91 
Q 1284 -91 818 406 
Q 353 903 353 1747 
Q 353 2603 823 3093 
Q 1294 3584 2113 3584 
Q 2378 3584 2631 3529 
Q 2884 3475 3122 3366 
z
" transform="scale(0.015625)"/>
       <path id="DejaVuSans-74" d="M 1172 4494 
L 1172 3500 
L 2356 3500 
L 2356 3053 
L 1172 3053 
L 1172 1153 
Q 1172 725 1289 603 
Q 1406 481 1766 481 
L 2356 481 
L 2356 0 
L 1766 0 
Q 1100 0 847 248 
Q 594 497 594 1153 
L 594 3053 
L 172 3053 
L 172 3500 
L 594 3500 
L 594 4494 
L 1172 4494 
z
" transform="scale(0.015625)"/>
      </defs>
      <use xlink:href="#DejaVuSans-43"/>
      <use xlink:href="#DejaVuSans-6f" x="69.824219"/>
      <use xlink:href="#DejaVuSans-6e" x="131.005859"/>
      <use xlink:href="#DejaVuSans-63" x="194.384766"/>
      <use xlink:href="#DejaVuSans-65" x="249.365234"/>
      <use xlink:href="#DejaVuSans-6e" x="310.888672"/>
      <use xlink:href="#DejaVuSans-74" x="374.267578"/>
      <use xlink:href="#DejaVuSans-72" x="413.476562"/>
      <use xlink:href="#DejaVuSans-61" x="454.589844"/>
      <use xlink:href="#DejaVuSans-74" x="515.869141"/>
      <use xlink:href="#DejaVuSans-69" x="555.078125"/>
      <use xlink:href="#DejaVuSans-6f" x="582.861328"/>
      <use xlink:href="#DejaVuSans-6e" x="644.042969"/>
     </g>
    </g>
   </g>
   <g id="line2d_29">
    <path d="M 73.459091 58.836182 
L 76.804362 74.382233 
L 80.149633 76.114533 
L 83.494904 77.505916 
L 86.840174 78.010242 
L 90.185445 78.162405 
L 93.530716 78.794195 
L 96.875987 79.425277 
L 100.221258 79.455875 
L 103.566529 79.255367 
L 106.9118 79.439875 
L 110.257071 79.895865 
L 113.602342 79.925083 
L 116.947612 79.690982 
L 120.292883 79.739727 
L 123.638154 80.148433 
L 126.983425 80.180203 
L 130.328696 79.920956 
L 133.673967 79.957217 
L 137.019238 80.341193 
L 140.364509 80.337966 
L 143.70978 80.048829 
L 147.055051 80.142972 
L 150.400321 80.496289 
L 153.745592 80.426347 
L 157.090863 80.119173 
L 160.436134 80.313354 
L 163.781405 80.615338 
L 167.126676 80.458648 
L 170.471947 80.174992 
L 173.817218 80.471766 
L 177.162489 80.694655 
L 180.507759 80.446666 
L 183.85303 80.255024 
L 187.198301 80.613519 
L 190.543572 80.729927 
L 193.888843 80.405546 
L 197.234114 80.364808 
L 200.579385 80.729452 
L 203.924656 80.719578 
L 207.269927 80.35658 
L 210.615197 80.495734 
L 213.960468 80.809329 
L 217.305739 80.667391 
L 220.65101 80.339162 
L 223.996281 80.631483 
L 227.341552 80.84485 
L 230.686823 80.584368 
L 234.032094 80.39428 
L 237.377365 80.753297 
L 240.722635 80.832124 
L 244.067906 80.489898 
L 247.413177 80.499858 
L 250.758448 80.843957 
L 254.103719 80.773559 
L 257.44899 80.412777 
L 260.794261 80.628157 
L 264.139532 80.890584 
L 267.484803 80.679201 
L 270.830073 80.4146 
L 274.175344 80.752889 
L 277.520615 80.886528 
L 280.865886 80.56761 
L 284.211157 80.494038 
L 287.556428 80.851858 
L 290.901699 80.832594 
L 294.24697 80.466386 
L 297.592241 80.613255 
L 300.937511 80.908818 
L 304.282782 80.737813 
L 307.628053 80.427882 
L 310.973324 80.73924 
L 314.318595 80.914734 
L 317.663866 80.619922 
L 321.009137 80.484373 
L 324.354408 80.845329 
L 327.699679 80.868604 
L 331.044949 80.505636 
L 334.39022 80.594252 
L 337.735491 80.912217 
L 341.080762 80.777963 
L 344.426033 80.438843 
L 347.771304 80.720086 
L 351.116575 80.928636 
L 354.461846 80.65919 
L 357.807117 80.473764 
L 361.152388 80.831941 
L 364.497658 80.891783 
L 367.842929 80.537669 
L 371.1882 80.573875 
L 374.533471 80.907982 
L 377.878742 80.807604 
L 381.224013 80.450695 
L 384.569284 80.698441 
L 387.914555 80.934858 
L 391.259826 80.690955 
L 394.605096 80.463949 
L 397.950367 80.814933 
L 401.295638 80.90795 
L 404.640909 80.535674 
" clip-path="url(#p40bbd9ce08)" style="fill: none; stroke: #2ca02c; stroke-width: 1.5; stroke-linecap: square"/>
   </g>
   <g id="line2d_30">
    <path d="M 73.459091 250.839091 
L 76.804362 244.280974 
L 80.149633 239.310458 
L 83.494904 235.786663 
L 86.840174 233.386316 
L 90.185445 231.769504 
L 93.530716 230.664896 
L 96.875987 229.887439 
L 100.221258 229.318161 
L 103.566529 228.881246 
L 106.9118 228.52901 
L 110.257071 228.234269 
L 113.602342 227.982024 
L 116.947612 227.761348 
L 120.292883 227.563704 
L 123.638154 227.38453 
L 126.983425 227.222825 
L 130.328696 227.076107 
L 133.673967 226.940743 
L 137.019238 226.815303 
L 140.364509 226.70082 
L 143.70978 226.596048 
L 147.055051 226.49803 
L 150.400321 226.406517 
L 153.745592 226.322927 
L 157.090863 226.246122 
L 160.436134 226.173274 
L 163.781405 226.105218 
L 167.126676 226.043269 
L 170.471947 225.986011 
L 173.817218 225.930905 
L 177.162489 225.879729 
L 180.507759 225.833419 
L 183.85303 225.79005 
L 187.198301 225.747873 
L 190.543572 225.709178 
L 193.888843 225.674366 
L 197.234114 225.640966 
L 200.579385 225.608473 
L 203.924656 225.579189 
L 207.269927 225.552879 
L 210.615197 225.526715 
L 213.960468 225.501655 
L 217.305739 225.479559 
L 220.65101 225.459445 
L 223.996281 225.438695 
L 227.341552 225.419454 
L 230.686823 225.402867 
L 234.032094 225.38711 
L 237.377365 225.37064 
L 240.722635 225.356021 
L 244.067906 225.343611 
L 247.413177 225.33089 
L 250.758448 225.317909 
L 254.103719 225.306982 
L 257.44899 225.297635 
L 260.794261 225.287091 
L 264.139532 225.277021 
L 267.484803 225.269019 
L 270.830073 225.261683 
L 274.175344 225.252937 
L 277.520615 225.245325 
L 280.865886 225.239578 
L 284.211157 225.233431 
L 287.556428 225.22632 
L 290.901699 225.22078 
L 294.24697 225.216662 
L 297.592241 225.211216 
L 300.937511 225.20562 
L 304.282782 225.201794 
L 307.628053 225.198643 
L 310.973324 225.193769 
L 314.318595 225.18958 
L 317.663866 225.187101 
L 321.009137 225.184291 
L 324.354408 225.180114 
L 327.699679 225.177208 
L 331.044949 225.175685 
L 334.39022 225.172865 
L 337.735491 225.169492 
L 341.080762 225.167707 
L 344.426033 225.166679 
L 347.771304 225.163804 
L 351.116575 225.1613 
L 354.461846 225.160425 
L 357.807117 225.159357 
L 361.152388 225.156673 
L 364.497658 225.155048 
L 367.842929 225.154814 
L 371.1882 225.153396 
L 374.533471 225.151132 
L 377.878742 225.150332 
L 381.224013 225.150391 
L 384.569284 225.148585 
L 387.914555 225.146899 
L 391.259826 225.146799 
L 394.605096 225.146667 
L 397.950367 225.14476 
L 401.295638 225.143739 
L 404.640909 225.144235 
" clip-path="url(#p40bbd9ce08)" style="fill: none; stroke: #ff7f0e; stroke-width: 1.5; stroke-linecap: square"/>
   </g>
   <g id="line2d_31">
    <path d="M 73.459091 298.839818 
L 76.804362 298.839818 
L 80.149633 298.839818 
L 83.494904 298.839818 
L 86.840174 298.839818 
L 90.185445 298.839818 
L 93.530716 298.839818 
L 96.875987 298.839818 
L 100.221258 298.839818 
L 103.566529 298.839818 
L 106.9118 298.839818 
L 110.257071 298.839818 
L 113.602342 298.839818 
L 116.947612 298.839818 
L 120.292883 298.839818 
L 123.638154 298.839818 
L 126.983425 298.839818 
L 130.328696 298.839818 
L 133.673967 298.839818 
L 137.019238 298.839818 
L 140.364509 298.839818 
L 143.70978 298.839818 
L 147.055051 298.839818 
L 150.400321 298.839818 
L 153.745592 298.839818 
L 157.090863 298.839818 
L 160.436134 298.839818 
L 163.781405 298.839818 
L 167.126676 298.839818 
L 170.471947 298.839818 
L 173.817218 298.839818 
L 177.162489 298.839818 
L 180.507759 298.839818 
L 183.85303 298.839818 
L 187.198301 298.839818 
L 190.543572 298.839818 
L 193.888843 298.839818 
L 197.234114 298.839818 
L 200.579385 298.839818 
L 203.924656 298.839818 
L 207.269927 298.839818 
L 210.615197 298.839818 
L 213.960468 298.839818 
L 217.305739 298.839818 
L 220.65101 298.839818 
L 223.996281 298.839818 
L 227.341552 298.839818 
L 230.686823 298.839818 
L 234.032094 298.839818 
L 237.377365 298.839818 
L 240.722635 298.839818 
L 244.067906 298.839818 
L 247.413177 298.839818 
L 250.758448 298.839818 
L 254.103719 298.839818 
L 257.44899 298.839818 
L 260.794261 298.839818 
L 264.139532 298.839818 
L 267.484803 298.839818 
L 270.830073 298.839818 
L 274.175344 298.839818 
L 277.520615 298.839818 
L 280.865886 298.839818 
L 284.211157 298.839818 
L 287.556428 298.839818 
L 290.901699 298.839818 
L 294.24697 298.839818 
L 297.592241 298.839818 
L 300.937511 298.839818 
L 304.282782 298.839818 
L 307.628053 298.839818 
L 310.973324 298.839818 
L 314.318595 298.839818 
L 317.663866 298.839818 
L 321.009137 298.839818 
L 324.354408 298.839818 
L 327.699679 298.839818 
L 331.044949 298.839818 
L 334.39022 298.839818 
L 337.735491 298.839818 
L 341.080762 298.839818 
L 344.426033 298.839818 
L 347.771304 298.839818 
L 351.116575 298.839818 
L 354.461846 298.839818 
L 357.807117 298.839818 
L 361.152388 298.839818 
L 364.497658 298.839818 
L 367.842929 298.839818 
L 371.1882 298.839818 
L 374.533471 298.839818 
L 377.878742 298.839818 
L 381.224013 298.839818 
L 384.569284 298.839818 
L 387.914555 298.839818 
L 391.259826 298.839818 
L 394.605096 298.839818 
L 397.950367 298.839818 
L 401.295638 298.839818 
L 404.640909 298.839818 
" clip-path="url(#p40bbd9ce08)" style="fill: none; stroke: #d62728; stroke-width: 1.5; stroke-linecap: square"/>
   </g>
   <g id="line2d_32">
    <path d="M 73.459091 286.839636 
L 76.804362 287.350896 
L 80.149633 287.758212 
L 83.494904 288.091954 
L 86.840174 288.37286 
L 90.185445 288.614728 
L 93.530716 288.826698 
L 96.875987 289.014918 
L 100.221258 289.183657 
L 103.566529 289.335995 
L 106.9118 289.474245 
L 110.257071 289.600212 
L 113.602342 289.715351 
L 116.947612 289.820865 
L 120.292883 289.917772 
L 123.638154 290.006942 
L 126.983425 290.089128 
L 130.328696 290.164992 
L 133.673967 290.235114 
L 137.019238 290.300009 
L 140.364509 290.360133 
L 143.70978 290.415895 
L 147.055051 290.467663 
L 150.400321 290.515763 
L 153.745592 290.560492 
L 157.090863 290.602118 
L 160.436134 290.640885 
L 163.781405 290.677012 
L 167.126676 290.710698 
L 170.471947 290.742127 
L 173.817218 290.771468 
L 177.162489 290.79887 
L 180.507759 290.824473 
L 183.85303 290.848407 
L 187.198301 290.87079 
L 190.543572 290.89173 
L 193.888843 290.911325 
L 197.234114 290.92967 
L 200.579385 290.94685 
L 203.924656 290.962942 
L 207.269927 290.978018 
L 210.615197 290.992149 
L 213.960468 291.005396 
L 217.305739 291.017816 
L 220.65101 291.029463 
L 223.996281 291.04039 
L 227.341552 291.050641 
L 230.686823 291.060259 
L 234.032094 291.069285 
L 237.377365 291.077759 
L 240.722635 291.085713 
L 244.067906 291.09318 
L 247.413177 291.100193 
L 250.758448 291.106779 
L 254.103719 291.112964 
L 257.44899 291.118773 
L 260.794261 291.124232 
L 264.139532 291.12936 
L 267.484803 291.134177 
L 270.830073 291.138704 
L 274.175344 291.142959 
L 277.520615 291.146957 
L 280.865886 291.150714 
L 284.211157 291.154246 
L 287.556428 291.157566 
L 290.901699 291.160687 
L 294.24697 291.16362 
L 297.592241 291.166378 
L 300.937511 291.168971 
L 304.282782 291.171409 
L 307.628053 291.1737 
L 310.973324 291.175856 
L 314.318595 291.177883 
L 317.663866 291.179788 
L 321.009137 291.18158 
L 324.354408 291.183265 
L 327.699679 291.18485 
L 331.044949 291.18634 
L 334.39022 291.187742 
L 337.735491 291.18906 
L 341.080762 291.1903 
L 344.426033 291.191465 
L 347.771304 291.192563 
L 351.116575 291.193595 
L 354.461846 291.194564 
L 357.807117 291.195477 
L 361.152388 291.196336 
L 364.497658 291.197143 
L 367.842929 291.197902 
L 371.1882 291.198617 
L 374.533471 291.199289 
L 377.878742 291.199921 
L 381.224013 291.200515 
L 384.569284 291.201075 
L 387.914555 291.201602 
L 391.259826 291.202097 
L 394.605096 291.202562 
L 397.950367 291.203001 
L 401.295638 291.203413 
L 404.640909 291.2038 
" clip-path="url(#p40bbd9ce08)" style="fill: none; stroke: #1f77b4; stroke-width: 1.5; stroke-linecap: square"/>
   </g>
   <g id="patch_3">
    <path d="M 56.9 310.84 
L 56.9 46.836 
" style="fill: none; stroke: #000000; stroke-width: 0.8; stroke-linejoin: miter; stroke-linecap: square"/>
   </g>
   <g id="patch_4">
    <path d="M 421.2 310.84 
L 421.2 46.836 
" style="fill: none; stroke: #000000; stroke-width: 0.8; stroke-linejoin: miter; stroke-linecap: square"/>
   </g>
   <g id="patch_5">
    <path d="M 56.9 310.84 
L 421.2 310.84 
" style="fill: none; stroke: #000000; stroke-width: 0.8; stroke-linejoin: miter; stroke-linecap: square"/>
   </g>
   <g id="patch_6">
    <path d="M 56.9 46.836 
L 421.2 46.836 
" style="fill: none; stroke: #000000; stroke-width: 0.8; stroke-linejoin: miter; stroke-linecap: square"/>
   </g>
   <g id="legend_1">
    <g id="line2d_33">
     <path d="M 62.9 24.663136 
L 70.4 24.663136 
L 77.9 24.663136 
" style="fill: none; stroke: #2ca02c; stroke-width: 1.5; stroke-linecap: square"/>
    </g>
    <g id="text_17">
     <!-- Grass -->
     <g transform="translate(89.9 29.913136) scale(0.15 -0.15)">
      <defs>
       <path id="DejaVuSans-47" d="M 3809 666 
L 3809 1919 
L 2778 1919 
L 2778 2438 
L 4434 2438 
L 4434 434 
Q 4069 175 3628 42 
Q 3188 -91 2688 -91 
Q 1594 -91 976 548 
Q 359 1188 359 2328 
Q 359 3472 976 4111 
Q 1594 4750 2688 4750 
Q 3144 4750 3555 4637 
Q 3966 4525 4313 4306 
L 4313 3634 
Q 3963 3931 3569 4081 
Q 3175 4231 2741 4231 
Q 1884 4231 1454 3753 
Q 1025 3275 1025 2328 
Q 1025 1384 1454 906 
Q 1884 428 2741 428 
Q 3075 428 3337 486 
Q 3600 544 3809 666 
z
" transform="scale(0.015625)"/>
      </defs>
      <use xlink:href="#DejaVuSans-47"/>
      <use xlink:href="#DejaVuSans-72" x="77.490234"/>
      <use xlink:href="#DejaVuSans-61" x="118.603516"/>
      <use xlink:href="#DejaVuSans-73" x="179.882812"/>
      <use xlink:href="#DejaVuSans-73" x="231.982422"/>
     </g>
    </g>
    <g id="line2d_34">
     <path d="M 155.49349 24.663136 
L 162.99349 24.663136 
L 170.49349 24.663136 
" style="fill: none; stroke: #ff7f0e; stroke-width: 1.5; stroke-linecap: square"/>
    </g>
    <g id="text_18">
     <!-- Hares -->
     <g transform="translate(182.49349 29.913136) scale(0.15 -0.15)">
      <defs>
       <path id="DejaVuSans-48" d="M 628 4666 
L 1259 4666 
L 1259 2753 
L 3553 2753 
L 3553 4666 
L 4184 4666 
L 4184 0 
L 3553 0 
L 3553 2222 
L 1259 2222 
L 1259 0 
L 628 0 
L 628 4666 
z
" transform="scale(0.015625)"/>
      </defs>
      <use xlink:href="#DejaVuSans-48"/>
      <use xlink:href="#DejaVuSans-61" x="75.195312"/>
      <use xlink:href="#DejaVuSans-72" x="136.474609"/>
      <use xlink:href="#DejaVuSans-65" x="175.337891"/>
      <use xlink:href="#DejaVuSans-73" x="236.861328"/>
     </g>
    </g>
    <g id="line2d_35">
     <path d="M 248.822917 24.663136 
L 256.322917 24.663136 
L 263.822917 24.663136 
" style="fill: none; stroke: #d62728; stroke-width: 1.5; stroke-linecap: square"/>
    </g>
    <g id="text_19">
     <!-- Deer -->
     <g transform="translate(275.822917 29.913136) scale(0.15 -0.15)">
      <defs>
       <path id="DejaVuSans-44" d="M 1259 4147 
L 1259 519 
L 2022 519 
Q 2988 519 3436 956 
Q 3884 1394 3884 2338 
Q 3884 3275 3436 3711 
Q 2988 4147 2022 4147 
L 1259 4147 
z
M 628 4666 
L 1925 4666 
Q 3281 4666 3915 4102 
Q 4550 3538 4550 2338 
Q 4550 1131 3912 565 
Q 3275 0 1925 0 
L 628 0 
L 628 4666 
z
" transform="scale(0.015625)"/>
      </defs>
      <use xlink:href="#DejaVuSans-44"/>
      <use xlink:href="#DejaVuSans-65" x="77.001953"/>
      <use xlink:href="#DejaVuSans-65" x="138.525391"/>
      <use xlink:href="#DejaVuSans-72" x="200.048828"/>
     </g>
    </g>
    <g id="line2d_36">
     <path d="M 334.982813 24.663136 
L 342.482813 24.663136 
L 349.982813 24.663136 
" style="fill: none; stroke: #1f77b4; stroke-width: 1.5; stroke-linecap: square"/>
    </g>
    <g id="text_20">
     <!-- Wolves -->
     <g transform="translate(361.982813 29.913136) scale(0.15 -0.15)">
      <defs>
       <path id="DejaVuSans-57" d="M 213 4666 
L 850 4666 
L 1831 722 
L 2809 4666 
L 3519 4666 
L 4500 722 
L 5478 4666 
L 6119 4666 
L 4947 0 
L 4153 0 
L 3169 4050 
L 2175 0 
L 1381 0 
L 213 4666 
z
" transform="scale(0.015625)"/>
       <path id="DejaVuSans-6c" d="M 603 4863 
L 1178 4863 
L 1178 0 
L 603 0 
L 603 4863 
z
" transform="scale(0.015625)"/>
       <path id="DejaVuSans-76" d="M 191 3500 
L 800 3500 
L 1894 563 
L 2988 3500 
L 3597 3500 
L 2284 0 
L 1503 0 
L 191 3500 
z
" transform="scale(0.015625)"/>
      </defs>
      <use xlink:href="#DejaVuSans-57"/>
      <use xlink:href="#DejaVuSans-6f" x="93.001953"/>
      <use xlink:href="#DejaVuSans-6c" x="154.183594"/>
      <use xlink:href="#DejaVuSans-76" x="181.966797"/>
      <use xlink:href="#DejaVuSans-65" x="241.146484"/>
      <use xlink:href="#DejaVuSans-73" x="302.669922"/>
     </g>
    </g>
   </g>
  </g>
 </g>
 <defs>
  <clipPath id="p40bbd9ce08">
   <rect x="56.9" y="46.836" width="364.3" height="264.004"/>
  </clipPath>
 </defs>
</svg>
